SplineFontDB: 3.2
FontName: Erathian
FullName: Erathian
FamilyName: Erathian
Weight: Regular
Copyright: Erathian:\nCopyright (c) 2008-2020, Tom CHEN (tomchen.org)\nSIL Open Font License v1.1\n\nAlegreya Medium:\nCopyright 2011 The Alegreya Project Authors (https://github.com/huertatipografica/Alegreya)\nSIL Open Font License v1.1
Version: 2.1
ItalicAngle: 0
UnderlinePosition: -209
UnderlineWidth: 64
Ascent: 800
Descent: 200
InvalidEm: 0
sfntRevision: 0x00020000
LayerCount: 2
Layer: 0 1 "Back" 1
Layer: 1 1 "Fore" 0
XUID: [1021 539 690955149 24374]
StyleMap: 0x0040
FSType: 0
OS2Version: 0
OS2_WeightWidthSlopeOnly: 0
OS2_UseTypoMetrics: 1
CreationTime: 1213974834
ModificationTime: 1582124348
PfmFamily: 81
TTFWeight: 400
TTFWidth: 5
LineGap: 0
VLineGap: 0
Panose: 0 0 0 0 0 0 0 0 0 0
OS2TypoAscent: 1016
OS2TypoAOffset: 0
OS2TypoDescent: -345
OS2TypoDOffset: 0
OS2TypoLinegap: 0
OS2WinAscent: 1123
OS2WinAOffset: 0
OS2WinDescent: 345
OS2WinDOffset: 0
HheadAscent: 1016
HheadAOffset: 0
HheadDescent: -345
HheadDOffset: 0
OS2SubXSize: 650
OS2SubYSize: 600
OS2SubXOff: 0
OS2SubYOff: 75
OS2SupXSize: 650
OS2SupYSize: 600
OS2SupXOff: 0
OS2SupYOff: 350
OS2StrikeYSize: 64
OS2StrikeYPos: 273
OS2CapHeight: 639
OS2XHeight: 456
OS2Vendor: 'TC  '
OS2CodePages: 2000019f.00000000
OS2UnicodeRanges: 6000028f.00000003.00000000.00000000
Lookup: 1 0 0 "'aalt' Access All Alternates lookup 0" { "'aalt' Access All Alternates lookup 0 subtable"  } ['aalt' ('DFLT' <'dflt' > 'cyrl' <'SRB ' 'dflt' > 'latn' <'AZE ' 'CAT ' 'CRT ' 'ESP ' 'KAZ ' 'MOL ' 'NLD ' 'ROM ' 'TAT ' 'TRK ' 'dflt' > ) ]
Lookup: 3 0 0 "'aalt' Access All Alternates lookup 1" { "'aalt' Access All Alternates lookup 1 subtable"  } ['aalt' ('DFLT' <'dflt' > 'cyrl' <'SRB ' 'dflt' > 'latn' <'AZE ' 'CAT ' 'CRT ' 'ESP ' 'KAZ ' 'MOL ' 'NLD ' 'ROM ' 'TAT ' 'TRK ' 'dflt' > ) ]

StartChar: A
Encoding: 65 65 2
Width: 832
GlyphClass: 2
Flags: W
LayerCount: 2
Fore
SplineSet
466.90625 714.286132812 m 0,0,1
 526.94140625 714.286132812 526.94140625 714.286132812 573.018554688 682.5703125 c 128,-1,2
 619.095703125 650.85546875 619.095703125 650.85546875 641.26953125 604.954101562 c 128,-1,3
 663.443359375 559.051757812 663.443359375 559.051757812 664.333984375 508.857421875 c 0,4,5
 664.720703125 460.958007812 664.720703125 460.958007812 653.154296875 411.873046875 c 128,-1,6
 641.588867188 362.7890625 641.588867188 362.7890625 627.393554688 329.399414062 c 128,-1,7
 613.19921875 296.008789062 613.19921875 296.008789062 600.94921875 257.275390625 c 128,-1,8
 588.700195312 218.541992188 588.700195312 218.541992188 588.048828125 189.428710938 c 0,9,10
 587.090820312 182.071289062 587.090820312 182.071289062 587.090820312 174.6640625 c 0,11,12
 587.090820312 147.041992188 587.090820312 147.041992188 604.114257812 117.881835938 c 128,-1,13
 621.137695312 88.72265625 621.137695312 88.72265625 645.19140625 75.142578125 c 0,14,15
 666.602539062 63.0810546875 666.602539062 63.0810546875 685.043945312 67.8525390625 c 128,-1,16
 703.485351562 72.6240234375 703.485351562 72.6240234375 712.870117188 81.96484375 c 128,-1,17
 722.254882812 91.3046875 722.254882812 91.3046875 736.356445312 103.951171875 c 128,-1,18
 750.458007812 116.59765625 750.458007812 116.59765625 763.19140625 120.286132812 c 0,19,20
 783.7265625 126.40625 783.7265625 126.40625 785.334960938 109.321289062 c 128,-1,21
 786.942382812 92.236328125 786.942382812 92.236328125 774.048828125 81.4287109375 c 0,22,23
 763.61328125 71.73828125 763.61328125 71.73828125 746.557617188 54.9853515625 c 128,-1,24
 729.501953125 38.232421875 729.501953125 38.232421875 722.495117188 32.0546875 c 128,-1,25
 715.489257812 25.876953125 715.489257812 25.876953125 703.682617188 18.494140625 c 128,-1,26
 691.875 11.1103515625 691.875 11.1103515625 679.19140625 7.4287109375 c 0,27,28
 642.750976562 -3.0263671875 642.750976562 -3.0263671875 615.274414062 10.234375 c 128,-1,29
 587.797851562 23.4951171875 587.797851562 23.4951171875 573.247070312 53.3994140625 c 128,-1,30
 558.696289062 83.3037109375 558.696289062 83.3037109375 551.801757812 117.038085938 c 128,-1,31
 544.90625 150.771484375 544.90625 150.771484375 544.90625 186.857421875 c 0,32,33
 545.166015625 235.412109375 545.166015625 235.412109375 570.912109375 336.672851562 c 128,-1,34
 596.659179688 437.93359375 596.659179688 437.93359375 591.477539062 493.713867188 c 0,35,36
 584.208984375 571.95703125 584.208984375 571.95703125 539.913085938 624.263671875 c 128,-1,37
 495.618164062 676.571289062 495.618164062 676.571289062 437.19140625 676.571289062 c 0,38,39
 386.36328125 676.571289062 386.36328125 676.571289062 345.125 657.385742188 c 128,-1,40
 303.88671875 638.19921875 303.88671875 638.19921875 275.2890625 603.280273438 c 128,-1,41
 246.692382812 568.360351562 246.692382812 568.360351562 227.544921875 525.215820312 c 128,-1,42
 208.396484375 482.071289062 208.396484375 482.071289062 196.620117188 428.571289062 c 0,43,44
 182.796875 349.552734375 182.796875 349.552734375 187.678710938 309.713867188 c 128,-1,45
 192.559570312 269.875976562 192.559570312 269.875976562 199.561523438 205.142578125 c 128,-1,46
 206.563476562 140.409179688 206.563476562 140.409179688 200.333984375 84 c 0,47,48
 199.936523438 66.6171875 199.936523438 66.6171875 189.388671875 47.5302734375 c 128,-1,49
 178.83984375 28.443359375 178.83984375 28.443359375 164.333984375 18.857421875 c 0,50,51
 147.435546875 7.9638671875 147.435546875 7.9638671875 118.022460938 2.931640625 c 128,-1,52
 88.6103515625 -2.1005859375 88.6103515625 -2.1005859375 65.7880859375 2.021484375 c 128,-1,53
 42.966796875 6.1435546875 42.966796875 6.1435546875 44.048828125 18.857421875 c 0,54,55
 45.2900390625 31.8466796875 45.2900390625 31.8466796875 56.0224609375 36.6923828125 c 128,-1,56
 66.755859375 41.537109375 66.755859375 41.537109375 79.4453125 40.9462890625 c 128,-1,57
 92.134765625 40.35546875 92.134765625 40.35546875 104.907226562 45.4326171875 c 128,-1,58
 117.6796875 50.5107421875 117.6796875 50.5107421875 122.048828125 63.7138671875 c 0,59,60
 133.561523438 99.2978515625 133.561523438 99.2978515625 130.186523438 171.766601562 c 128,-1,61
 126.811523438 244.236328125 126.811523438 244.236328125 122.958984375 302.614257812 c 128,-1,62
 119.106445312 360.991210938 119.106445312 360.991210938 137.762695312 428.571289062 c 0,63,64
 177.52734375 548.078125 177.52734375 548.078125 251.709960938 619.927734375 c 128,-1,65
 325.891601562 691.778320312 325.891601562 691.778320312 426.333984375 710.571289062 c 0,66,67
 446.329101562 714.286132812 446.329101562 714.286132812 466.90625 714.286132812 c 0,0,1
295.477539062 445.428710938 m 1,68,69
 305.909179688 472.077148438 305.909179688 472.077148438 333.786132812 492.16796875 c 128,-1,70
 361.663085938 512.259765625 361.663085938 512.259765625 390.333984375 514 c 0,71,72
 428.849609375 516.818359375 428.849609375 516.818359375 466.734375 499.067382812 c 128,-1,73
 504.620117188 481.315429688 504.620117188 481.315429688 504.620117188 453.142578125 c 0,74,75
 504.228515625 439.833984375 504.228515625 439.833984375 490.90625 435.963867188 c 128,-1,76
 477.583007812 432.094726562 477.583007812 432.094726562 467.762695312 437.428710938 c 0,77,78
 463.750976562 439.103515625 463.750976562 439.103515625 428.245117188 461.224609375 c 128,-1,79
 392.739257812 483.345703125 392.739257812 483.345703125 373.762695312 481.142578125 c 0,80,81
 353.116210938 478.681640625 353.116210938 478.681640625 340.532226562 458.166015625 c 128,-1,82
 327.948242188 437.649414062 327.948242188 437.649414062 329.088867188 412.595703125 c 128,-1,83
 330.229492188 387.541992188 330.229492188 387.541992188 345.19140625 372.857421875 c 0,84,85
 356.581054688 361.685546875 356.581054688 361.685546875 379.048828125 341.499023438 c 128,-1,86
 401.515625 321.313476562 401.515625 321.313476562 411.8125 310.512695312 c 128,-1,87
 422.110351562 299.711914062 422.110351562 299.711914062 435.541992188 281.887695312 c 128,-1,88
 448.974609375 264.063476562 448.974609375 264.063476562 454.934570312 244.38671875 c 128,-1,89
 460.895507812 224.708984375 460.895507812 224.708984375 462.048828125 200 c 0,90,91
 461.704101562 159.799804688 461.704101562 159.799804688 433.073242188 129.411132812 c 128,-1,92
 404.443359375 99.0234375 404.443359375 99.0234375 364.333984375 96.2861328125 c 0,93,94
 356.159179688 95.798828125 356.159179688 95.798828125 347.936523438 95.798828125 c 0,95,96
 307.424804688 95.798828125 307.424804688 95.798828125 268.620117188 107.428710938 c 0,97,98
 258.0703125 112.481445312 258.0703125 112.481445312 258.0703125 124.177734375 c 0,99,100
 258.0703125 132.998046875 258.0703125 132.998046875 264.90625 138.571289062 c 0,101,102
 271.6796875 143.521484375 271.6796875 143.521484375 311.005859375 135.2421875 c 128,-1,103
 350.33203125 126.962890625 350.33203125 126.962890625 362.048828125 134.571289062 c 0,104,105
 373.584960938 143.6640625 373.584960938 143.6640625 381.749023438 160.495117188 c 128,-1,106
 389.913085938 177.326171875 389.913085938 177.326171875 389.913085938 192.014648438 c 0,107,108
 389.913085938 203.11328125 389.913085938 203.11328125 386.620117188 213.713867188 c 0,109,110
 383.153320312 235.62890625 383.153320312 235.62890625 366.229492188 255.278320312 c 128,-1,111
 349.306640625 274.927734375 349.306640625 274.927734375 327.295898438 295.579101562 c 128,-1,112
 305.286132812 316.229492188 305.286132812 316.229492188 295.477539062 334.286132812 c 0,113,114
 282.940429688 360.655273438 282.940429688 360.655273438 282.940429688 389.857421875 c 128,-1,115
 282.940429688 419.057617188 282.940429688 419.057617188 295.477539062 445.428710938 c 1,68,69
EndSplineSet
Substitution2: "Single Substitution lookup 51 subtable" ordfeminine
Substitution2: "'c2sc' Capitals to Small Capitals lookup 35 subtable" a.sc
AlternateSubs2: "'aalt' Access All Alternates lookup 1 subtable" ordfeminine a.sc
Position2: "'cpsp' Capital Spacing lookup 0 subtable" dx=10 dy=0 dh=20 dv=0
EndChar

StartChar: Aacute
Encoding: 193 193 3
Width: 831
GlyphClass: 2
Flags: W
AnchorPoint: "Anchor-17" 2 0 basechar 0
AnchorPoint: "Anchor-16" 2 0 basechar 0
AnchorPoint: "Anchor-15" 339 775 basechar 0
AnchorPoint: "Anchor-14" 545 10 basechar 0
AnchorPoint: "Anchor-13" 303 0 basechar 0
LayerCount: 2
Fore
SplineSet
294 715 m 1
 285 749 l 1
 380 795 380 795 495 856 c 1
 505 850 l 1
 525 790 l 1
 521 779 l 1
 409 745 409 745 305 709 c 1
 294 715 l 1
EndSplineSet
Refer: 2 65 N 1 0 0 1 2.00045 0 0
Substitution2: "'c2sc' Capitals to Small Capitals lookup 35 subtable" aacute.sc
Substitution2: "'aalt' Access All Alternates lookup 0 subtable" aacute.sc
Position2: "'cpsp' Capital Spacing lookup 0 subtable" dx=10 dy=0 dh=20 dv=0
EndChar

StartChar: Abreve
Encoding: 258 258 4
Width: 829
GlyphClass: 2
Flags: W
AnchorPoint: "Anchor-17" 0 0 basechar 0
AnchorPoint: "Anchor-16" 0 0 basechar 0
AnchorPoint: "Anchor-15" 305 831 basechar 0
AnchorPoint: "Anchor-14" 543 10 basechar 0
AnchorPoint: "Anchor-13" 301 0 basechar 0
LayerCount: 2
Fore
SplineSet
306.5 753.5 m 0
 274 784 274 784 260 829 c 1
 281 849 l 1
 293 851 l 1
 306 825 306 825 332.5 811 c 0
 359 797 359 797 392 797 c 256
 425 797 425 797 451.5 811 c 0
 478 825 478 825 491 851 c 1
 503 849 l 1
 524 829 l 1
 511 784 511 784 478 753.5 c 0
 445 723 445 723 392 723 c 256
 339 723 339 723 306.5 753.5 c 0
EndSplineSet
Refer: 2 65 N 1 0 0 1 0.000452168 0 0
Substitution2: "'c2sc' Capitals to Small Capitals lookup 35 subtable" abreve.sc
Substitution2: "'aalt' Access All Alternates lookup 0 subtable" abreve.sc
Position2: "'cpsp' Capital Spacing lookup 0 subtable" dx=10 dy=0 dh=20 dv=0
EndChar

StartChar: uni01CD
Encoding: 461 461 5
Width: 833
GlyphClass: 2
Flags: W
AnchorPoint: "Anchor-17" 3 0 basechar 0
AnchorPoint: "Anchor-16" 3 0 basechar 0
AnchorPoint: "Anchor-15" 310 774 basechar 0
AnchorPoint: "Anchor-14" 546 10 basechar 0
AnchorPoint: "Anchor-13" 304 0 basechar 0
LayerCount: 2
Fore
SplineSet
252 847 m 1
 270 878 l 1
 282 880 l 1
 353 841 353 841 406 818 c 1
 452 838 452 838 530 880 c 1
 542 878 l 1
 560 847 l 1
 494 799 494 799 414 731 c 1
 398 731 l 1
 317 799 317 799 252 847 c 1
EndSplineSet
Refer: 2 65 N 1 0 0 1 3.00061 0 0
Substitution2: "'c2sc' Capitals to Small Capitals lookup 35 subtable" uni01CE.sc
Substitution2: "'aalt' Access All Alternates lookup 0 subtable" uni01CE.sc
Position2: "'cpsp' Capital Spacing lookup 0 subtable" dx=10 dy=0 dh=20 dv=0
EndChar

StartChar: Acircumflex
Encoding: 194 194 6
Width: 831
GlyphClass: 2
Flags: W
AnchorPoint: "Anchor-17" 2 0 basechar 0
AnchorPoint: "Anchor-16" 2 0 basechar 0
AnchorPoint: "Anchor-15" 309 859 basechar 0
AnchorPoint: "Anchor-14" 545 10 basechar 0
AnchorPoint: "Anchor-13" 303 0 basechar 0
LayerCount: 2
Fore
SplineSet
262 715 m 1
 244 745 l 1
 310 794 310 794 390 862 c 1
 406 862 l 1
 429 843 l 2
 444 831 444 831 482.5 799.5 c 0
 521 768 521 768 552 745 c 1
 534 715 l 1
 522 713 l 1
 457 748 457 748 398 775 c 1
 331 744 331 744 274 713 c 1
 262 715 l 1
EndSplineSet
Refer: 2 65 N 1 0 0 1 2.00045 0 0
Substitution2: "'c2sc' Capitals to Small Capitals lookup 35 subtable" acircumflex.sc
Substitution2: "'aalt' Access All Alternates lookup 0 subtable" acircumflex.sc
Position2: "'cpsp' Capital Spacing lookup 0 subtable" dx=10 dy=0 dh=20 dv=0
EndChar

StartChar: uni0200
Encoding: 512 512 7
Width: 832
GlyphClass: 2
Flags: W
AnchorPoint: "Anchor-17" 1 0 basechar 0
AnchorPoint: "Anchor-16" 1 0 basechar 0
AnchorPoint: "Anchor-15" 273 838 basechar 0
AnchorPoint: "Anchor-14" 544 10 basechar 0
AnchorPoint: "Anchor-13" 302 0 basechar 0
LayerCount: 2
Fore
SplineSet
370 812 m 1
 368 822 l 1
 399 873 l 1
 409 876 l 1
 492 806 492 806 561 751 c 1
 546 725 l 1
 536 720 l 1
 456 767 456 767 370 812 c 1
218 804 m 1
 216 815 l 1
 247 865 l 1
 257 869 l 1
 340 799 340 799 409 744 c 1
 393 717 l 1
 384 713 l 1
 304 760 304 760 218 804 c 1
EndSplineSet
Refer: 2 65 N 1 0 0 1 1.00045 0 0
Substitution2: "'c2sc' Capitals to Small Capitals lookup 35 subtable" uni0201.sc
Substitution2: "'aalt' Access All Alternates lookup 0 subtable" uni0201.sc
Position2: "'cpsp' Capital Spacing lookup 0 subtable" dx=10 dy=0 dh=20 dv=0
EndChar

StartChar: Adieresis
Encoding: 196 196 8
Width: 831
GlyphClass: 2
Flags: W
AnchorPoint: "Anchor-17" 2 0 basechar 0
AnchorPoint: "Anchor-16" 2 0 basechar 0
AnchorPoint: "Anchor-15" 309 817 basechar 0
AnchorPoint: "Anchor-14" 545 10 basechar 0
AnchorPoint: "Anchor-13" 303 0 basechar 0
LayerCount: 2
Fore
SplineSet
275 737.5 m 0
 262 752 262 752 262 773 c 0
 262 798 262 798 278 814.5 c 0
 294 831 294 831 319 831 c 0
 342 831 342 831 355 816.5 c 0
 368 802 368 802 368 780 c 0
 368 756 368 756 352 739.5 c 0
 336 723 336 723 311 723 c 0
 288 723 288 723 275 737.5 c 0
446 737.5 m 0
 433 752 433 752 433 773 c 0
 433 798 433 798 449 814.5 c 0
 465 831 465 831 490 831 c 0
 513 831 513 831 526 816.5 c 0
 539 802 539 802 539 780 c 0
 539 756 539 756 523 739.5 c 0
 507 723 507 723 482 723 c 0
 459 723 459 723 446 737.5 c 0
EndSplineSet
Refer: 2 65 N 1 0 0 1 2.00045 0 0
Substitution2: "'c2sc' Capitals to Small Capitals lookup 35 subtable" adieresis.sc
Substitution2: "'aalt' Access All Alternates lookup 0 subtable" adieresis.sc
Position2: "'cpsp' Capital Spacing lookup 0 subtable" dx=10 dy=0 dh=20 dv=0
EndChar

StartChar: Agrave
Encoding: 192 192 9
Width: 832
GlyphClass: 2
Flags: W
AnchorPoint: "Anchor-17" 2 0 basechar 0
AnchorPoint: "Anchor-16" 2 0 basechar 0
AnchorPoint: "Anchor-15" 276 848 basechar 0
AnchorPoint: "Anchor-14" 545 10 basechar 0
AnchorPoint: "Anchor-13" 303 0 basechar 0
LayerCount: 2
Fore
SplineSet
282 773 m 1
 278 784 l 1
 298 844 l 1
 308 850 l 1
 423 789 423 789 518 743 c 1
 508 709 l 1
 498 703 l 1
 394 739 394 739 282 773 c 1
EndSplineSet
Refer: 2 65 N 1 0 0 1 2.00045 0 0
Substitution2: "'c2sc' Capitals to Small Capitals lookup 35 subtable" agrave.sc
Substitution2: "'aalt' Access All Alternates lookup 0 subtable" agrave.sc
Position2: "'cpsp' Capital Spacing lookup 0 subtable" dx=10 dy=0 dh=20 dv=0
EndChar

StartChar: Amacron
Encoding: 256 256 11
Width: 829
GlyphClass: 2
Flags: W
AnchorPoint: "Anchor-17" 0 0 basechar 0
AnchorPoint: "Anchor-16" 0 0 basechar 0
AnchorPoint: "Anchor-15" 308 761 basechar 0
AnchorPoint: "Anchor-14" 543 10 basechar 0
AnchorPoint: "Anchor-13" 301 0 basechar 0
LayerCount: 2
Fore
SplineSet
247 734 m 1
 259 792 l 1
 413 791 l 2
 461 791 461 791 541 797 c 1
 548 786 l 1
 539 726 l 1
 397 725 l 1
 255 724 l 1
 247 734 l 1
EndSplineSet
Refer: 2 65 N 1 0 0 1 0.000452168 0 0
Substitution2: "'c2sc' Capitals to Small Capitals lookup 35 subtable" amacron.sc
Substitution2: "'aalt' Access All Alternates lookup 0 subtable" amacron.sc
Position2: "'cpsp' Capital Spacing lookup 0 subtable" dx=10 dy=0 dh=20 dv=0
EndChar

StartChar: Aogonek
Encoding: 260 260 12
Width: 829
GlyphClass: 2
Flags: W
LayerCount: 2
Fore
SplineSet
697 -152.5 m 4,0,1
 718 -146 718 -146 734 -136 c 5,2,-1
 751 -162 l 5,3,4
 727 -185 727 -185 699 -202.5 c 4,5,6
 671 -220 671 -220 648 -227 c 5,7,8
 598 -227 598 -227 566 -201 c 4,9,10
 534 -175 534 -175 534 -134 c 4,11,12
 534 -104 534 -104 551.5 -75.5 c 4,13,14
 569 -47 569 -47 627 14 c 5,15,-1
 680 13 l 5,16,17
 639 -35 639 -35 624.5 -60.5 c 4,18,19
 610 -86 610 -86 610 -109 c 260,20,21
 610 -132 610 -132 623.5 -145.5 c 4,22,23
 637 -159 637 -159 660 -159 c 4,24,25
 676 -159 676 -159 697 -152.5 c 4,0,1
EndSplineSet
Refer: 2 65 N 1 0 0 1 0.000452168 0 2
Substitution2: "'c2sc' Capitals to Small Capitals lookup 35 subtable" aogonek.sc
Substitution2: "'aalt' Access All Alternates lookup 0 subtable" aogonek.sc
Position2: "'cpsp' Capital Spacing lookup 0 subtable" dx=10 dy=0 dh=20 dv=0
EndChar

StartChar: Aring
Encoding: 197 197 13
Width: 831
GlyphClass: 2
Flags: W
AnchorPoint: "Anchor-17" 2 0 basechar 0
AnchorPoint: "Anchor-16" 2 0 basechar 0
AnchorPoint: "Anchor-15" 309 849 basechar 0
AnchorPoint: "Anchor-14" 545 10 basechar 0
AnchorPoint: "Anchor-13" 303 0 basechar 0
LayerCount: 2
Fore
SplineSet
336.5 741 m 0
 315 764 315 764 315 802 c 0
 315 841 315 841 339.5 866 c 0
 364 891 364 891 404 891 c 0
 445 891 445 891 465.5 867.5 c 0
 486 844 486 844 486 811 c 0
 486 772 486 772 462 745 c 0
 438 718 438 718 396 718 c 0
 358 718 358 718 336.5 741 c 0
432 770 m 0
 445 778 445 778 445 800 c 0
 445 821 445 821 432.5 833 c 0
 420 845 420 845 397 845 c 0
 376 845 376 845 365 835 c 0
 354 825 354 825 354 808 c 0
 354 785 354 785 369.5 773.5 c 0
 385 762 385 762 403 762 c 0
 419 762 419 762 432 770 c 0
EndSplineSet
Refer: 2 65 N 1 0 0 1 2.00045 0 0
Substitution2: "'c2sc' Capitals to Small Capitals lookup 35 subtable" aring.sc
Substitution2: "'aalt' Access All Alternates lookup 0 subtable" aring.sc
Position2: "'cpsp' Capital Spacing lookup 0 subtable" dx=10 dy=0 dh=20 dv=0
EndChar

StartChar: Aringacute
Encoding: 506 506 14
Width: 832
GlyphClass: 2
Flags: W
AnchorPoint: "Anchor-17" 1 0 basechar 0
AnchorPoint: "Anchor-16" 1 0 basechar 0
AnchorPoint: "Anchor-15" 387 943 basechar 0
AnchorPoint: "Anchor-14" 544 10 basechar 0
AnchorPoint: "Anchor-13" 1 0 basechar 0
LayerCount: 2
Fore
SplineSet
300 882 m 5,0,-1
 292 912 l 5,1,2
 377 953 377 953 480 1008 c 5,3,-1
 489 1003 l 5,4,-1
 507 949 l 5,5,-1
 503 939 l 5,6,7
 402 908 402 908 309 876 c 5,8,-1
 300 882 l 5,0,-1
332.5 742.5 m 4,9,10
 313 763 313 763 313 798 c 260,11,12
 313 833 313 833 335.5 855.5 c 4,13,14
 358 878 358 878 394 878 c 4,15,16
 431 878 431 878 449.5 857 c 4,17,18
 468 836 468 836 468 806 c 4,19,20
 468 771 468 771 446 746.5 c 4,21,22
 424 722 424 722 387 722 c 4,23,24
 352 722 352 722 332.5 742.5 c 4,9,10
431 796 m 4,25,26
 431 814 431 814 419.5 825.5 c 4,27,28
 408 837 408 837 387 837 c 4,29,30
 369 837 369 837 359 828 c 4,31,32
 349 819 349 819 349 803 c 4,33,34
 349 783 349 783 363 772.5 c 4,35,36
 377 762 377 762 393 762 c 4,37,38
 431 762 431 762 431 796 c 4,25,26
EndSplineSet
Refer: 2 65 N 1 0 0 1 1.00045 0 2
Substitution2: "'c2sc' Capitals to Small Capitals lookup 35 subtable" aringacute.sc
Substitution2: "'aalt' Access All Alternates lookup 0 subtable" aringacute.sc
Position2: "'cpsp' Capital Spacing lookup 0 subtable" dx=10 dy=0 dh=20 dv=0
EndChar

StartChar: Atilde
Encoding: 195 195 15
Width: 831
GlyphClass: 2
Flags: W
AnchorPoint: "Anchor-17" 2 0 basechar 0
AnchorPoint: "Anchor-16" 2 0 basechar 0
AnchorPoint: "Anchor-15" 311 826 basechar 0
AnchorPoint: "Anchor-14" 545 10 basechar 0
AnchorPoint: "Anchor-13" 303 0 basechar 0
LayerCount: 2
Fore
SplineSet
237 738 m 1
 237 745 l 1
 314 832 l 1
 331 836 l 1
 350 836 350 836 410 818 c 0
 466 802 466 802 478 802 c 256
 490 802 490 802 507.5 816 c 0
 525 830 525 830 542 850 c 1
 550 850 l 1
 580 822 l 1
 580 815 l 1
 503 729 l 1
 487 725 l 1
 467 725 467 725 407 743 c 0
 355 758 355 758 339 758 c 0
 327 758 327 758 309.5 744 c 0
 292 730 292 730 275 710 c 1
 267 710 l 1
 237 738 l 1
EndSplineSet
Refer: 2 65 N 1 0 0 1 2.00045 0 0
Substitution2: "'c2sc' Capitals to Small Capitals lookup 35 subtable" atilde.sc
Substitution2: "'aalt' Access All Alternates lookup 0 subtable" atilde.sc
Position2: "'cpsp' Capital Spacing lookup 0 subtable" dx=10 dy=0 dh=20 dv=0
EndChar

StartChar: AE
Encoding: 198 198 16
Width: 1281
GlyphClass: 2
Flags: W
LayerCount: 2
Fore
SplineSet
412.762695312 512.286132812 m 0,0,1
 451.862304688 513.986328125 451.862304688 513.986328125 489.206054688 496.377929688 c 128,-1,2
 526.548828125 478.76953125 526.548828125 478.76953125 524.762695312 450 c 0,3,4
 524.37109375 436.69140625 524.37109375 436.69140625 511.048828125 432.821289062 c 128,-1,5
 497.7265625 428.952148438 497.7265625 428.952148438 487.90625 434.286132812 c 0,6,7
 484.25390625 435.825195312 484.25390625 435.825195312 448.637695312 458.015625 c 128,-1,8
 413.021484375 480.205078125 413.021484375 480.205078125 394.19140625 478 c 0,9,10
 373.538085938 475.538085938 373.538085938 475.538085938 360.958984375 455.083007812 c 128,-1,11
 348.379882812 434.62890625 348.379882812 434.62890625 349.518554688 409.583984375 c 128,-1,12
 350.657226562 384.538085938 350.657226562 384.538085938 365.620117188 369.713867188 c 0,13,14
 376.4375 359.362304688 376.4375 359.362304688 399.405273438 339.1015625 c 128,-1,15
 422.373046875 318.841796875 422.373046875 318.841796875 432.313476562 308.440429688 c 128,-1,16
 442.252929688 298.0390625 442.252929688 298.0390625 455.899414062 280.130859375 c 128,-1,17
 469.545898438 262.221679688 469.545898438 262.221679688 475.435546875 242.612304688 c 128,-1,18
 481.32421875 223.002929688 481.32421875 223.002929688 482.477539062 198.286132812 c 0,19,20
 482.041992188 158.28125 482.041992188 158.28125 453.495117188 127.892578125 c 128,-1,21
 424.948242188 97.5048828125 424.948242188 97.5048828125 385.048828125 94.5712890625 c 0,22,23
 376.844726562 94.083984375 376.844726562 94.083984375 368.651367188 94.083984375 c 0,24,25
 328.143554688 94.083984375 328.143554688 94.083984375 289.334960938 105.713867188 c 0,26,27
 278.806640625 110.896484375 278.806640625 110.896484375 278.806640625 122.6328125 c 0,28,29
 278.806640625 131.48828125 278.806640625 131.48828125 285.620117188 137.142578125 c 0,30,31
 292.340820312 141.924804688 292.340820312 141.924804688 331.672851562 133.573242188 c 128,-1,32
 371.00390625 125.221679688 371.00390625 125.221679688 382.762695312 132.857421875 c 0,33,34
 394.357421875 142.020507812 394.357421875 142.020507812 402.5625 158.965820312 c 128,-1,35
 410.768554688 175.91015625 410.768554688 175.91015625 410.768554688 190.688476562 c 0,36,37
 410.768554688 201.572265625 410.768554688 201.572265625 407.620117188 212 c 0,38,39
 404.03125 233.90625 404.03125 233.90625 387.030273438 253.56640625 c 128,-1,40
 370.030273438 273.2265625 370.030273438 273.2265625 348.01953125 293.862304688 c 128,-1,41
 326.009765625 314.497070312 326.009765625 314.497070312 316.19140625 332.571289062 c 0,42,43
 303.647460938 359.017578125 303.647460938 359.017578125 303.647460938 388.286132812 c 128,-1,44
 303.647460938 417.553710938 303.647460938 417.553710938 316.19140625 444 c 0,45,46
 327.169921875 470.880859375 327.169921875 470.880859375 355.46484375 490.888671875 c 128,-1,47
 383.760742188 510.896484375 383.760742188 510.896484375 412.762695312 512.286132812 c 0,0,1
1204.76269531 78.2861328125 m 0,48,49
 1222.02636719 77.6220703125 1222.02636719 77.6220703125 1225.87695312 59.765625 c 128,-1,50
 1229.72851562 41.908203125 1229.72851562 41.908203125 1221.17285156 24.2353515625 c 128,-1,51
 1212.6171875 6.5625 1212.6171875 6.5625 1199.62011719 6.2861328125 c 0,52,53
 755.99609375 16 755.99609375 16 730.19140625 16 c 0,54,55
 724.580078125 15.0732421875 724.580078125 15.0732421875 719.334960938 12.857421875 c 0,56,57
 710.221679688 7.30859375 710.221679688 7.30859375 699.90625 4.5712890625 c 0,58,59
 663.571289062 -5.8828125 663.571289062 -5.8828125 636.109375 7.4228515625 c 128,-1,60
 608.647460938 20.7294921875 608.647460938 20.7294921875 594.069335938 50.6435546875 c 128,-1,61
 579.490234375 80.5576171875 579.490234375 80.5576171875 572.555664062 114.307617188 c 128,-1,62
 565.620117188 148.056640625 565.620117188 148.056640625 565.620117188 184 c 0,63,64
 565.879882812 232.5546875 565.879882812 232.5546875 591.626953125 333.81640625 c 128,-1,65
 617.373046875 435.077148438 617.373046875 435.077148438 612.19140625 490.857421875 c 0,66,67
 604.920898438 569.130859375 604.920898438 569.130859375 560.614257812 621.565429688 c 128,-1,68
 516.30859375 674 516.30859375 674 457.90625 674 c 0,69,70
 407.092773438 674 407.092773438 674 365.931640625 654.784179688 c 128,-1,71
 324.76953125 635.568359375 324.76953125 635.568359375 296.247070312 600.55078125 c 128,-1,72
 267.725585938 565.532226562 267.725585938 565.532226562 248.626953125 522.41796875 c 128,-1,73
 229.529296875 479.3046875 229.529296875 479.3046875 217.620117188 425.713867188 c 0,74,75
 203.655273438 346.65625 203.655273438 346.65625 208.477539062 306.857421875 c 128,-1,76
 213.30078125 267.057617188 213.30078125 267.057617188 220.287109375 202.286132812 c 128,-1,77
 227.274414062 137.513671875 227.274414062 137.513671875 221.048828125 81.142578125 c 0,78,79
 220.202148438 64.517578125 220.202148438 64.517578125 209.821289062 46.1845703125 c 128,-1,80
 199.44140625 27.8515625 199.44140625 27.8515625 185.620117188 18.5712890625 c 0,81,82
 168.55078125 7.7978515625 168.55078125 7.7978515625 139.099609375 2.7685546875 c 128,-1,83
 109.647460938 -2.2607421875 109.647460938 -2.2607421875 86.8076171875 1.802734375 c 128,-1,84
 63.9677734375 5.8662109375 63.9677734375 5.8662109375 65.048828125 18.5712890625 c 128,-1,85
 66.2900390625 31.458984375 66.2900390625 31.458984375 77.0224609375 36.2919921875 c 128,-1,86
 87.7548828125 41.125 87.7548828125 41.125 100.4453125 40.5869140625 c 128,-1,87
 113.135742188 40.048828125 113.135742188 40.048828125 125.90625 45.2294921875 c 128,-1,88
 138.677734375 50.4091796875 138.677734375 50.4091796875 143.048828125 63.7138671875 c 0,89,90
 154.6875 99.3271484375 154.6875 99.3271484375 151.313476562 171.766601562 c 128,-1,91
 147.939453125 244.20703125 147.939453125 244.20703125 144.022460938 302.614257812 c 128,-1,92
 140.104492188 361.020507812 140.104492188 361.020507812 158.762695312 428.571289062 c 0,93,94
 198.491210938 546.6953125 198.491210938 546.6953125 272.607421875 618.046875 c 128,-1,95
 346.724609375 689.397460938 346.724609375 689.397460938 447.048828125 708.857421875 c 0,96,97
 466.883789062 712.514648438 466.883789062 712.514648438 487.048828125 712.571289062 c 0,98,99
 547.017578125 712.70703125 547.017578125 712.70703125 593.041015625 680.998046875 c 128,-1,100
 639.064453125 649.288085938 639.064453125 649.288085938 661.056640625 603.001953125 c 128,-1,101
 683.048828125 556.715820312 683.048828125 556.715820312 683.048828125 506.286132812 c 0,102,103
 683.033203125 436.970703125 683.033203125 436.970703125 661.334960938 371.142578125 c 1,104,105
 671.303710938 380.088867188 671.303710938 380.088867188 683.323242188 389.329101562 c 128,-1,106
 695.342773438 398.569335938 695.342773438 398.569335938 713.536132812 411.813476562 c 128,-1,107
 731.729492188 425.05859375 731.729492188 425.05859375 742.762695312 433.428710938 c 0,108,109
 796.33203125 474.849609375 796.33203125 474.849609375 877.116210938 525.581054688 c 128,-1,110
 957.901367188 576.311523438 957.901367188 576.311523438 1018.47753906 606.571289062 c 0,111,112
 1084.18457031 644.352539062 1084.18457031 644.352539062 1154.19140625 673.428710938 c 0,113,114
 1164.98828125 677.174804688 1164.98828125 677.174804688 1172.01269531 662.428710938 c 128,-1,115
 1179.03808594 647.682617188 1179.03808594 647.682617188 1168.19140625 641.142578125 c 0,116,117
 1145.921875 627.75390625 1145.921875 627.75390625 1085.18164062 591.701171875 c 128,-1,118
 1024.44238281 555.6484375 1024.44238281 555.6484375 993.852539062 536.9296875 c 128,-1,119
 963.262695312 518.2109375 963.262695312 518.2109375 914.66796875 487.573242188 c 128,-1,120
 866.072265625 456.935546875 866.072265625 456.935546875 826.149414062 428.82421875 c 128,-1,121
 786.2265625 400.712890625 786.2265625 400.712890625 748.762695312 371.428710938 c 1,122,123
 775.799804688 371.428710938 775.799804688 371.428710938 825.403320312 370.413085938 c 128,-1,124
 875.006835938 369.397460938 875.006835938 369.397460938 915.646484375 369.397460938 c 128,-1,125
 956.287109375 369.397460938 956.287109375 369.397460938 992.477539062 371.428710938 c 0,126,127
 1014.49707031 371.428710938 1014.49707031 371.428710938 1028.04882812 357.46484375 c 128,-1,128
 1041.60058594 343.5 1041.60058594 343.5 1026.76269531 325.713867188 c 0,129,130
 992.358398438 290.244140625 992.358398438 290.244140625 927.202148438 224.154296875 c 128,-1,131
 862.045898438 158.064453125 862.045898438 158.064453125 832.762695312 128 c 0,132,133
 805.203125 100.436523438 805.203125 100.436523438 810.072265625 95.275390625 c 0,134,135
 812.084960938 93.142578125 812.084960938 93.142578125 817.90625 93.142578125 c 0,136,137
 860.888671875 91.62109375 860.888671875 91.62109375 932.826171875 88.857421875 c 128,-1,138
 1004.76367188 86.0927734375 1004.76367188 86.0927734375 1089.84277344 82.76171875 c 128,-1,139
 1174.921875 79.4306640625 1174.921875 79.4306640625 1204.76269531 78.2861328125 c 0,48,49
607.90625 187.142578125 m 0,140,141
 606.997070312 179.982421875 606.997070312 179.982421875 606.997070312 172.759765625 c 0,142,143
 606.997070312 145.244140625 606.997070312 145.244140625 623.922851562 116.140625 c 128,-1,144
 640.84765625 87.0361328125 640.84765625 87.0361328125 664.762695312 73.4287109375 c 0,145,146
 678.252929688 65.41796875 678.252929688 65.41796875 693.940429688 65.41796875 c 0,147,148
 717.71875 65.41796875 717.71875 65.41796875 734.477539062 82.2861328125 c 0,149,150
 766.282226562 118.026367188 766.282226562 118.026367188 827.98046875 181.32421875 c 128,-1,151
 889.678710938 244.62109375 889.678710938 244.62109375 913.90625 270.857421875 c 0,152,153
 940.264648438 298.97265625 940.264648438 298.97265625 932.178710938 303.666015625 c 0,154,155
 929.635742188 305.142578125 929.635742188 305.142578125 924.477539062 305.142578125 c 0,156,157
 871.334960938 306.571289062 871.334960938 306.571289062 712.19140625 306.571289062 c 0,158,159
 705.814453125 307.151367188 705.814453125 307.151367188 699.407226562 307.151367188 c 0,160,161
 676.653320312 307.151367188 676.653320312 307.151367188 655.048828125 300 c 1,162,163
 632.87890625 285.22265625 632.87890625 285.22265625 622.762695312 260.571289062 c 0,164,165
 609.866210938 224.9609375 609.866210938 224.9609375 607.90625 187.142578125 c 0,140,141
EndSplineSet
Substitution2: "'c2sc' Capitals to Small Capitals lookup 35 subtable" ae.sc
Substitution2: "'aalt' Access All Alternates lookup 0 subtable" ae.sc
Position2: "'cpsp' Capital Spacing lookup 0 subtable" dx=10 dy=0 dh=20 dv=0
EndChar

StartChar: AEacute
Encoding: 508 508 17
Width: 1258
GlyphClass: 2
Flags: W
AnchorPoint: "Anchor-17" -1 0 basechar 0
AnchorPoint: "Anchor-16" -1 0 basechar 0
AnchorPoint: "Anchor-15" 458 775 basechar 0
AnchorPoint: "Anchor-14" -1 0 basechar 0
AnchorPoint: "Anchor-13" -1 0 basechar 0
LayerCount: 2
Fore
SplineSet
305 713 m 1
 296 747 l 1
 391 793 391 793 506 854 c 1
 516 848 l 1
 536 788 l 1
 532 777 l 1
 420 743 420 743 316 707 c 1
 305 713 l 1
EndSplineSet
Refer: 16 198 N 1 0 0 1 -0.999872 0 0
Substitution2: "'c2sc' Capitals to Small Capitals lookup 35 subtable" aeacute.sc
Substitution2: "'aalt' Access All Alternates lookup 0 subtable" aeacute.sc
Position2: "'cpsp' Capital Spacing lookup 0 subtable" dx=10 dy=0 dh=20 dv=0
EndChar

StartChar: B
Encoding: 66 66 18
Width: 939
GlyphClass: 2
Flags: W
LayerCount: 2
Fore
SplineSet
592.072265625 64 m 4,0,1
 712.426757812 86.375 712.426757812 86.375 731.787109375 174.571289062 c 4,2,3
 735.4140625 196.106445312 735.4140625 196.106445312 735.4140625 217.943359375 c 4,4,5
 735.4140625 272.217773438 735.4140625 272.217773438 713.787109375 322 c 4,6,7
 700.747070312 358.3203125 700.747070312 358.3203125 648.1875 392.427734375 c 132,-1,8
 595.627929688 426.53515625 595.627929688 426.53515625 529.930664062 449.270507812 c 132,-1,9
 464.232421875 472.005859375 464.232421875 472.005859375 400.397460938 489.552734375 c 132,-1,10
 336.5625 507.098632812 336.5625 507.098632812 293.317382812 515.263671875 c 6,11,-1
 250.072265625 523.428710938 l 6,12,13
 249.091796875 521.787109375 249.091796875 521.787109375 247.401367188 519.12109375 c 132,-1,14
 245.711914062 516.455078125 245.711914062 516.455078125 240.18359375 508.211914062 c 132,-1,15
 234.654296875 499.967773438 234.654296875 499.967773438 229.606445312 493.71875 c 132,-1,16
 224.557617188 487.469726562 224.557617188 487.469726562 216.859375 478.661132812 c 132,-1,17
 209.162109375 469.852539062 209.162109375 469.852539062 203.133789062 466.056640625 c 132,-1,18
 197.10546875 462.26171875 197.10546875 462.26171875 189.618164062 458.92578125 c 132,-1,19
 182.129882812 455.58984375 182.129882812 455.58984375 177.500976562 460.286132812 c 4,20,21
 170.172851562 464.682617188 170.172851562 464.682617188 169.544921875 473.72265625 c 132,-1,22
 168.916992188 482.762695312 168.916992188 482.762695312 176.337890625 498.208984375 c 132,-1,23
 183.7578125 513.654296875 183.7578125 513.654296875 189.270507812 523.482421875 c 132,-1,24
 194.783203125 533.310546875 194.783203125 533.310546875 208.336914062 554.071289062 c 132,-1,25
 221.891601562 574.83203125 221.891601562 574.83203125 224.9296875 579.713867188 c 132,-1,26
 227.951171875 584.405273438 227.951171875 584.405273438 234.504882812 594.803710938 c 132,-1,27
 241.059570312 605.203125 241.059570312 605.203125 245.154296875 611.532226562 c 132,-1,28
 249.249023438 617.861328125 249.249023438 617.861328125 255.509765625 627.225585938 c 132,-1,29
 261.770507812 636.58984375 261.770507812 636.58984375 266.448242188 642.529296875 c 132,-1,30
 271.126953125 648.46875 271.126953125 648.46875 276.454101562 654.549804688 c 132,-1,31
 281.78125 660.629882812 281.78125 660.629882812 286.403320312 663.930664062 c 132,-1,32
 291.025390625 667.231445312 291.025390625 667.231445312 294.9296875 668 c 4,33,34
 297.98046875 668.944335938 297.98046875 668.944335938 301.176757812 668.944335938 c 4,35,36
 312.349609375 668.944335938 312.349609375 668.944335938 318.643554688 659.713867188 c 4,37,38
 322.982421875 654.97265625 322.982421875 654.97265625 320.827148438 646.513671875 c 132,-1,39
 318.670898438 638.0546875 318.670898438 638.0546875 316.1796875 633.607421875 c 132,-1,40
 313.688476562 629.16015625 313.688476562 629.16015625 307.8359375 619.897460938 c 132,-1,41
 301.983398438 610.634765625 301.983398438 610.634765625 298.9296875 604.286132812 c 5,42,43
 305.251953125 603.471679688 305.251953125 603.471679688 316.310546875 601.830078125 c 132,-1,44
 327.369140625 600.188476562 327.369140625 600.188476562 361.37890625 593.740234375 c 132,-1,45
 395.389648438 587.291992188 395.389648438 587.291992188 428.545898438 579.409179688 c 132,-1,46
 461.702148438 571.526367188 461.702148438 571.526367188 507.025390625 557.736328125 c 132,-1,47
 552.348632812 543.946289062 552.348632812 543.946289062 591.575195312 528.1484375 c 132,-1,48
 630.80078125 512.350585938 630.80078125 512.350585938 671.409179688 489.543945312 c 132,-1,49
 712.016601562 466.73828125 712.016601562 466.73828125 741.284179688 441.350585938 c 132,-1,50
 770.552734375 415.962890625 770.552734375 415.962890625 790.416992188 382.466796875 c 132,-1,51
 810.28125 348.970703125 810.28125 348.970703125 813.215820312 312.286132812 c 4,52,53
 817.333984375 261.422851562 817.333984375 261.422851562 809.890625 220.3828125 c 132,-1,54
 802.447265625 179.341796875 802.447265625 179.341796875 783.379882812 147.930664062 c 132,-1,55
 764.3125 116.518554688 764.3125 116.518554688 743.604492188 94.650390625 c 132,-1,56
 722.897460938 72.7822265625 722.897460938 72.7822265625 691.787109375 48.2861328125 c 4,57,58
 615.623046875 -9.197265625 615.623046875 -9.197265625 447.500976562 2.5712890625 c 4,59,60
 409.541015625 5.1572265625 409.541015625 5.1572265625 364.782226562 25.169921875 c 132,-1,61
 320.0234375 45.18359375 320.0234375 45.18359375 276.125 63.591796875 c 132,-1,62
 232.227539062 82 232.227539062 82 193.215820312 82 c 4,63,64
 174.962890625 82 174.962890625 82 141.290039062 62.197265625 c 132,-1,65
 107.618164062 42.39453125 107.618164062 42.39453125 86.6435546875 43.4287109375 c 4,66,67
 63.5556640625 45.0341796875 63.5556640625 45.0341796875 55.677734375 59.349609375 c 132,-1,68
 47.798828125 73.6640625 47.798828125 73.6640625 49.2158203125 100.571289062 c 5,69,70
 57.62890625 135.52734375 57.62890625 135.52734375 88.853515625 163.236328125 c 132,-1,71
 120.079101562 190.946289062 120.079101562 190.946289062 155.787109375 195.142578125 c 4,72,73
 186.733398438 196.670898438 186.733398438 196.670898438 223.65234375 179.556640625 c 132,-1,74
 260.5703125 162.442382812 260.5703125 162.442382812 293.51953125 139.024414062 c 132,-1,75
 326.467773438 115.606445312 326.467773438 115.606445312 373.083007812 93.1708984375 c 132,-1,76
 419.697265625 70.734375 419.697265625 70.734375 470.036132812 61.62109375 c 132,-1,77
 520.374023438 52.5068359375 520.374023438 52.5068359375 592.072265625 64 c 4,0,1
841.215820312 108 m 4,78,79
 858.731445312 107.34765625 858.731445312 107.34765625 873.883789062 94.791015625 c 132,-1,80
 889.036132812 82.2333984375 889.036132812 82.2333984375 892.9296875 65.142578125 c 4,81,82
 892.9296875 46.810546875 892.9296875 46.810546875 870.431640625 33.2626953125 c 132,-1,83
 847.932617188 19.7138671875 847.932617188 19.7138671875 833.787109375 19.7138671875 c 4,84,85
 817.616210938 20.9521484375 817.616210938 20.9521484375 806.172851562 33.3056640625 c 132,-1,86
 794.728515625 45.6591796875 794.728515625 45.6591796875 794.728515625 61.876953125 c 4,87,88
 794.728515625 63.947265625 794.728515625 63.947265625 794.9296875 66 c 4,89,90
 794.9296875 83.28515625 794.9296875 83.28515625 810.946289062 95.642578125 c 132,-1,91
 826.963867188 108 826.963867188 108 841.215820312 108 c 4,78,79
EndSplineSet
Substitution2: "'c2sc' Capitals to Small Capitals lookup 35 subtable" b.sc
Substitution2: "'aalt' Access All Alternates lookup 0 subtable" b.sc
Position2: "'cpsp' Capital Spacing lookup 0 subtable" dx=10 dy=0 dh=20 dv=0
EndChar

StartChar: C
Encoding: 67 67 19
Width: 378
GlyphClass: 2
Flags: W
LayerCount: 2
Fore
SplineSet
278.432617188 795.428710938 m 0,0,1
 314.55859375 795.428710938 314.55859375 795.428710938 322.575195312 768.857421875 c 128,-1,2
 330.592773438 742.286132812 330.592773438 742.286132812 299.861328125 702.857421875 c 0,3,4
 285.6875 685.5859375 285.6875 685.5859375 238.5703125 635.240234375 c 128,-1,5
 191.454101562 584.89453125 191.454101562 584.89453125 159.4375 547.141601562 c 128,-1,6
 127.420898438 509.388671875 127.420898438 509.388671875 128.432617188 499.142578125 c 0,7,8
 129.518554688 488.1484375 129.518554688 488.1484375 198.68359375 422.913085938 c 128,-1,9
 267.848632812 357.677734375 267.848632812 357.677734375 268.146484375 344.286132812 c 0,10,11
 268.390625 333.322265625 268.390625 333.322265625 237.809570312 307.817382812 c 128,-1,12
 207.228515625 282.311523438 207.228515625 282.311523438 175.151367188 257.325195312 c 128,-1,13
 143.07421875 232.33984375 143.07421875 232.33984375 141.00390625 223.713867188 c 0,14,15
 138.2109375 211.015625 138.2109375 211.015625 174.353515625 166.444335938 c 128,-1,16
 210.49609375 121.873046875 210.49609375 121.873046875 248.036132812 83.650390625 c 2,17,-1
 285.575195312 45.4287109375 l 2,18,19
 286.33984375 46.0966796875 286.33984375 46.0966796875 287.62890625 47.1708984375 c 128,-1,20
 288.918945312 48.2451171875 288.918945312 48.2451171875 293.051757812 51.533203125 c 128,-1,21
 297.185546875 54.8203125 297.185546875 54.8203125 300.733398438 57.2138671875 c 128,-1,22
 304.282226562 59.607421875 304.282226562 59.607421875 309.565429688 62.9150390625 c 128,-1,23
 314.84765625 66.2216796875 314.84765625 66.2216796875 318.436523438 67.3359375 c 128,-1,24
 322.025390625 68.4501953125 322.025390625 68.4501953125 326.23828125 69.1787109375 c 128,-1,25
 330.452148438 69.9072265625 330.452148438 69.9072265625 331.861328125 67.142578125 c 0,26,27
 340.544921875 58.1962890625 340.544921875 58.1962890625 314.913085938 30.126953125 c 128,-1,28
 289.282226562 2.0576171875 289.282226562 2.0576171875 257.190429688 -20.888671875 c 128,-1,29
 225.098632812 -43.8359375 225.098632812 -43.8359375 217.575195312 -40.5712890625 c 0,30,31
 208.771484375 -34.708984375 208.771484375 -34.708984375 212.326171875 -25.439453125 c 128,-1,32
 215.881835938 -16.169921875 215.881835938 -16.169921875 224.728515625 -7.513671875 c 2,33,-1
 233.575195312 1.142578125 l 1,34,35
 226.178710938 7.4853515625 226.178710938 7.4853515625 213.89453125 18.2490234375 c 128,-1,36
 201.609375 29.01171875 201.609375 29.01171875 170.140625 58.1142578125 c 128,-1,37
 138.671875 87.216796875 138.671875 87.216796875 114.530273438 111.611328125 c 128,-1,38
 90.388671875 136.004882812 90.388671875 136.004882812 70.365234375 161.282226562 c 128,-1,39
 50.3408203125 186.559570312 50.3408203125 186.559570312 49.861328125 198 c 0,40,41
 49.125 215.547851562 49.125 215.547851562 79.7568359375 243.928710938 c 128,-1,42
 110.388671875 272.309570312 110.388671875 272.309570312 141.583984375 297.405273438 c 128,-1,43
 172.779296875 322.5 172.779296875 322.5 173.00390625 331.713867188 c 128,-1,44
 173.231445312 341.049804688 173.231445312 341.049804688 141.556640625 370.2734375 c 128,-1,45
 109.8828125 399.498046875 109.8828125 399.498046875 78.259765625 431.725585938 c 128,-1,46
 46.6376953125 463.954101562 46.6376953125 463.954101562 47.00390625 480.571289062 c 128,-1,47
 47.373046875 497.291015625 47.373046875 497.291015625 99.943359375 554.190429688 c 128,-1,48
 152.513671875 611.088867188 152.513671875 611.088867188 206.064453125 665.428710938 c 128,-1,49
 259.616210938 719.767578125 259.616210938 719.767578125 261.290039062 729.142578125 c 0,50,51
 262.67578125 736.904296875 262.67578125 736.904296875 257.209960938 755.654296875 c 128,-1,52
 251.744140625 774.404296875 251.744140625 774.404296875 254.893554688 784.916992188 c 128,-1,53
 258.041992188 795.428710938 258.041992188 795.428710938 278.432617188 795.428710938 c 0,0,1
EndSplineSet
Substitution2: "Single Substitution lookup 54 subtable" C.ss01
Substitution2: "'ss01' Style Set 1 lookup 44 subtable" C.ss01
Substitution2: "'c2sc' Capitals to Small Capitals lookup 35 subtable" c.sc
AlternateSubs2: "'aalt' Access All Alternates lookup 1 subtable" c.sc C.ss01
Position2: "'cpsp' Capital Spacing lookup 0 subtable" dx=10 dy=0 dh=20 dv=0
EndChar

StartChar: Cacute
Encoding: 262 262 20
Width: 377
GlyphClass: 2
Flags: W
AnchorPoint: "Anchor-17" 0.999023 0 basechar 0
AnchorPoint: "Anchor-16" 0.999023 0 basechar 0
AnchorPoint: "Anchor-15" 384.999 775 basechar 0
AnchorPoint: "Anchor-14" 0.999023 0 basechar 0
AnchorPoint: "Anchor-13" 314.999 0 basechar 0
LayerCount: 2
Fore
SplineSet
83 760 m 1
 74 794 l 1
 169 840 169 840 284 901 c 1
 294 895 l 1
 314 835 l 1
 310 824 l 1
 198 790 198 790 94 754 c 1
 83 760 l 1
EndSplineSet
Refer: 19 67 N 1 0 0 1 0.99988 0 0
Substitution2: "'c2sc' Capitals to Small Capitals lookup 35 subtable" cacute.sc
Substitution2: "'aalt' Access All Alternates lookup 0 subtable" cacute.sc
Position2: "'cpsp' Capital Spacing lookup 0 subtable" dx=10 dy=0 dh=20 dv=0
EndChar

StartChar: Ccaron
Encoding: 268 268 21
Width: 395
GlyphClass: 2
Flags: W
AnchorPoint: "Anchor-17" 19 0 basechar 0
AnchorPoint: "Anchor-16" 19 0 basechar 0
AnchorPoint: "Anchor-15" 373 774 basechar 0
AnchorPoint: "Anchor-14" 19 0 basechar 0
AnchorPoint: "Anchor-13" 333 0 basechar 0
LayerCount: 2
Fore
SplineSet
41 877 m 1
 59 908 l 1
 71 910 l 1
 142 871 142 871 195 848 c 1
 241 868 241 868 319 910 c 1
 331 908 l 1
 349 877 l 1
 283 829 283 829 203 761 c 1
 187 761 l 1
 106 829 106 829 41 877 c 1
EndSplineSet
Refer: 19 67 N 1 0 0 1 19 0 0
Substitution2: "'c2sc' Capitals to Small Capitals lookup 35 subtable" ccaron.sc
Substitution2: "'aalt' Access All Alternates lookup 0 subtable" ccaron.sc
Position2: "'cpsp' Capital Spacing lookup 0 subtable" dx=10 dy=0 dh=20 dv=0
EndChar

StartChar: Ccedilla
Encoding: 199 199 22
Width: 409
GlyphClass: 2
Flags: W
AnchorPoint: "Anchor-13" 222.999 -235 basechar 0
LayerCount: 2
Fore
SplineSet
285.999023438 17 m 4,0,-1
 274.999023438 -48 l 5,1,2
 318.999023438 -76 318.999023438 -76 341.999023438 -95.5 c 4,3,4
 364.999023438 -115 364.999023438 -115 364.999023438 -140 c 260,5,6
 364.999023438 -165 364.999023438 -165 346.499023438 -187 c 4,7,8
 327.999023438 -209 327.999023438 -209 298.499023438 -222 c 4,9,10
 268.999023438 -235 268.999023438 -235 238.999023438 -235 c 4,11,12
 211.999023438 -235 211.999023438 -235 189.499023438 -224.5 c 4,13,14
 166.999023438 -214 166.999023438 -214 166.999023438 -196 c 4,15,16
 166.999023438 -180 166.999023438 -180 196.999023438 -137 c 5,17,-1
 205.999023438 -137 l 5,18,19
 206.999023438 -164 206.999023438 -164 220.999023438 -178.5 c 4,20,21
 234.999023438 -193 234.999023438 -193 258.999023438 -193 c 4,22,23
 277.999023438 -193 277.999023438 -193 290.999023438 -183.5 c 4,24,25
 303.999023438 -174 303.999023438 -174 303.999023438 -159 c 4,26,27
 303.999023438 -143 303.999023438 -143 281.499023438 -125.5 c 4,28,29
 258.999023438 -108 258.999023438 -108 218.999023438 -85 c 5,30,-1
 231.999023438 -11 l 4,31,-1
 285.999023438 17 l 4,0,-1
EndSplineSet
Refer: 19 67 N 1 0 0 1 -4.00012 0 2
Substitution2: "'c2sc' Capitals to Small Capitals lookup 35 subtable" ccedilla.sc
Substitution2: "'aalt' Access All Alternates lookup 0 subtable" ccedilla.sc
Position2: "'cpsp' Capital Spacing lookup 0 subtable" dx=10 dy=0 dh=20 dv=0
EndChar

StartChar: Cdotaccent
Encoding: 266 266 24
Width: 377
GlyphClass: 2
Flags: W
AnchorPoint: "Anchor-17" 0.999023 0 basechar 0
AnchorPoint: "Anchor-16" 0.999023 0 basechar 0
AnchorPoint: "Anchor-15" 355.999 832 basechar 0
AnchorPoint: "Anchor-14" 0.999023 0 basechar 0
AnchorPoint: "Anchor-13" 314.999 0 basechar 0
LayerCount: 2
Fore
SplineSet
135 808 m 0
 120 825 120 825 120 851 c 0
 120 881 120 881 139 900.5 c 0
 158 920 158 920 188 920 c 0
 215 920 215 920 230.5 903 c 0
 246 886 246 886 246 860 c 0
 246 830 246 830 227 810.5 c 0
 208 791 208 791 178 791 c 0
 150 791 150 791 135 808 c 0
EndSplineSet
Refer: 19 67 N 1 0 0 1 0.99988 0 0
Substitution2: "'c2sc' Capitals to Small Capitals lookup 35 subtable" cdotaccent.sc
Substitution2: "'aalt' Access All Alternates lookup 0 subtable" cdotaccent.sc
Position2: "'cpsp' Capital Spacing lookup 0 subtable" dx=10 dy=0 dh=20 dv=0
EndChar

StartChar: D
Encoding: 68 68 25
Width: 774
GlyphClass: 2
Flags: W
LayerCount: 2
Fore
SplineSet
240.46875 687.428710938 m 4,0,1
 249.946289062 685.651367188 249.946289062 685.651367188 258.76171875 676.17578125 c 132,-1,2
 267.577148438 666.701171875 267.577148438 666.701171875 261.326171875 655.713867188 c 4,3,4
 256.961914062 648.043945312 256.961914062 648.043945312 233.5625 642.803710938 c 132,-1,5
 210.163085938 637.564453125 210.163085938 637.564453125 207.897460938 627.142578125 c 4,6,7
 205.604492188 616.186523438 205.604492188 616.186523438 228.700195312 589.950195312 c 132,-1,8
 251.795898438 563.713867188 251.795898438 563.713867188 271.326171875 563.713867188 c 4,9,10
 327.697265625 561.249023438 327.697265625 561.249023438 483.221679688 556.729492188 c 132,-1,11
 638.74609375 552.208984375 638.74609375 552.208984375 669.326171875 551.142578125 c 4,12,13
 687.055664062 550.663085938 687.055664062 550.663085938 707.859375 536.711914062 c 132,-1,14
 728.663085938 522.760742188 728.663085938 522.760742188 726.46875 508 c 4,15,16
 719.215820312 461.096679688 719.215820312 461.096679688 705.618164062 374.163085938 c 132,-1,17
 692.01953125 287.229492188 692.01953125 287.229492188 678.176757812 198.7890625 c 132,-1,18
 664.334960938 110.348632812 664.334960938 110.348632812 657.326171875 65.142578125 c 4,19,20
 647.02734375 1.142578125 647.02734375 1.142578125 618.46875 1.142578125 c 4,21,22
 565.432617188 1.142578125 565.432617188 1.142578125 398.93359375 4 c 132,-1,23
 232.43359375 6.857421875 232.43359375 6.857421875 179.612304688 6.857421875 c 4,24,25
 161.8828125 6.392578125 161.8828125 6.392578125 143.716796875 -5.16015625 c 132,-1,26
 125.55078125 -16.712890625 125.55078125 -16.712890625 117.612304688 -32.5712890625 c 4,27,28
 112.8828125 -42.5859375 112.8828125 -42.5859375 116.541015625 -64.75 c 132,-1,29
 120.198242188 -86.9140625 120.198242188 -86.9140625 114.18359375 -95.4287109375 c 4,30,31
 104.817382812 -112.87890625 104.817382812 -112.87890625 85.6123046875 -117.713867188 c 4,32,33
 80.2421875 -119.838867188 80.2421875 -119.838867188 74.46875 -119.838867188 c 132,-1,34
 68.6962890625 -119.838867188 68.6962890625 -119.838867188 63.326171875 -117.713867188 c 4,35,36
 52.25 -108.646484375 52.25 -108.646484375 46.7548828125 -95.4287109375 c 4,37,38
 43 -84.5322265625 43 -84.5322265625 43 -73 c 132,-1,39
 43 -61.4677734375 43 -61.4677734375 46.7548828125 -50.5712890625 c 4,40,41
 69.908203125 -15.3251953125 69.908203125 -15.3251953125 115.700195312 14.728515625 c 132,-1,42
 161.491210938 44.7822265625 161.491210938 44.7822265625 203.040039062 52 c 4,43,44
 230.567382812 54.1376953125 230.567382812 54.1376953125 360.076171875 51.6787109375 c 132,-1,45
 489.584960938 49.21875 489.584960938 49.21875 541.326171875 52 c 4,46,47
 555.44140625 52.7626953125 555.44140625 52.7626953125 563.534179688 65.294921875 c 132,-1,48
 571.626953125 77.8271484375 571.626953125 77.8271484375 573.326171875 91.142578125 c 4,49,50
 584.802734375 170.044921875 584.802734375 170.044921875 621.897460938 418.857421875 c 4,51,52
 626.828125 444.075195312 626.828125 444.075195312 624.68359375 460.615234375 c 132,-1,53
 622.5390625 477.154296875 622.5390625 477.154296875 619.982421875 486.313476562 c 132,-1,54
 617.424804688 495.471679688 617.424804688 495.471679688 611.344726562 499.846679688 c 132,-1,55
 605.263671875 504.221679688 605.263671875 504.221679688 602.323242188 505.111328125 c 132,-1,56
 599.381835938 506 599.381835938 506 596.46875 506 c 4,57,58
 552.071289062 506.758789062 552.071289062 506.758789062 480.876953125 509.255859375 c 132,-1,59
 409.681640625 511.752929688 409.681640625 511.752929688 326.6328125 515.029296875 c 132,-1,60
 243.583984375 518.305664062 243.583984375 518.305664062 210.46875 519.428710938 c 4,61,62
 180.7890625 520.50390625 180.7890625 520.50390625 146.032226562 559.548828125 c 132,-1,63
 111.275390625 598.594726562 111.275390625 598.594726562 117.040039062 624.857421875 c 4,64,65
 121.290039062 644.754882812 121.290039062 644.754882812 173.036132812 667.6875 c 132,-1,66
 224.782226562 690.619140625 224.782226562 690.619140625 240.46875 687.428710938 c 4,0,1
EndSplineSet
Substitution2: "Single Substitution lookup 54 subtable" D.ss01
Substitution2: "'ss01' Style Set 1 lookup 44 subtable" D.ss01
Substitution2: "'c2sc' Capitals to Small Capitals lookup 35 subtable" d.sc
AlternateSubs2: "'aalt' Access All Alternates lookup 1 subtable" d.sc D.ss01
Position2: "'cpsp' Capital Spacing lookup 0 subtable" dx=10 dy=0 dh=20 dv=0
EndChar

StartChar: Eth
Encoding: 208 208 27
Width: 778
Flags: W
LayerCount: 2
Fore
SplineSet
717 296 m 1,0,-1
 339 296 l 1,1,-1
 332 303 l 1,2,-1
 340 347 l 1,3,-1
 717 348 l 1,4,-1
 723 340 l 1,5,-1
 717 296 l 1,0,-1
EndSplineSet
Refer: 25 68 N 1 0 0 1 0 0 2
Substitution2: "'c2sc' Capitals to Small Capitals lookup 35 subtable" eth.sc
Substitution2: "'aalt' Access All Alternates lookup 0 subtable" eth.sc
Position2: "'cpsp' Capital Spacing lookup 0 subtable" dx=10 dy=0 dh=20 dv=0
EndChar

StartChar: Dcaron
Encoding: 270 270 28
Width: 773
GlyphClass: 2
Flags: W
AnchorPoint: "Anchor-17" -1 0 basechar 0
AnchorPoint: "Anchor-16" 340 324 basechar 0
AnchorPoint: "Anchor-15" 333 774 basechar 0
AnchorPoint: "Anchor-14" -1 0 basechar 0
AnchorPoint: "Anchor-13" 333 0 basechar 0
LayerCount: 2
Fore
SplineSet
248 777 m 1
 266 808 l 1
 278 810 l 1
 349 771 349 771 402 748 c 1
 448 768 448 768 526 810 c 1
 538 808 l 1
 556 777 l 1
 490 729 490 729 410 661 c 1
 394 661 l 1
 313 729 313 729 248 777 c 1
EndSplineSet
Refer: 25 68 N 1 0 0 1 -1 0 0
Substitution2: "'c2sc' Capitals to Small Capitals lookup 35 subtable" dcaron.sc
Substitution2: "'aalt' Access All Alternates lookup 0 subtable" dcaron.sc
Position2: "'cpsp' Capital Spacing lookup 0 subtable" dx=10 dy=0 dh=20 dv=0
EndChar

StartChar: Dcroat
Encoding: 272 272 29
Width: 778
Flags: W
LayerCount: 2
Fore
SplineSet
720 296 m 5,0,-1
 342 296 l 5,1,-1
 335 303 l 5,2,-1
 343 347 l 5,3,-1
 720 348 l 5,4,-1
 726 340 l 5,5,-1
 720 296 l 5,0,-1
EndSplineSet
Refer: 25 68 N 1 0 0 1 -1 0 2
Substitution2: "'c2sc' Capitals to Small Capitals lookup 35 subtable" dcroat.sc
Substitution2: "'aalt' Access All Alternates lookup 0 subtable" dcroat.sc
Position2: "'cpsp' Capital Spacing lookup 0 subtable" dx=10 dy=0 dh=20 dv=0
EndChar

StartChar: E
Encoding: 69 69 31
Width: 784
GlyphClass: 2
Flags: W
LayerCount: 2
Fore
SplineSet
658.060546875 668.857421875 m 1,0,-1
 657.489257812 668.857421875 l 2,1,2
 668.286132812 672.602539062 668.286132812 672.602539062 675.310546875 657.857421875 c 128,-1,3
 682.3359375 643.111328125 682.3359375 643.111328125 671.489257812 636.571289062 c 0,4,5
 650.217773438 623.765625 650.217773438 623.765625 588.560546875 587.09765625 c 128,-1,6
 526.90234375 550.430664062 526.90234375 550.430664062 497.076171875 532.115234375 c 128,-1,7
 467.25 513.80078125 467.25 513.80078125 418.325195312 482.87890625 c 128,-1,8
 369.399414062 451.95703125 369.399414062 451.95703125 329.65234375 423.850585938 c 128,-1,9
 289.905273438 395.744140625 289.905273438 395.744140625 252.346679688 366.286132812 c 1,10,11
 268.109375 366.286132812 268.109375 366.286132812 374.310546875 363.857421875 c 128,-1,12
 480.512695312 361.428710938 480.512695312 361.428710938 496.060546875 364.857421875 c 0,13,14
 518.18359375 366.046875 518.18359375 366.046875 531.846679688 351.96484375 c 128,-1,15
 545.509765625 337.881835938 545.509765625 337.881835938 530.346679688 320 c 0,16,17
 501.780273438 290.41796875 501.780273438 290.41796875 469.411132812 257.477539062 c 128,-1,18
 437.041992188 224.536132812 437.041992188 224.536132812 397.47265625 184.5234375 c 128,-1,19
 357.903320312 144.509765625 357.903320312 144.509765625 336.346679688 122.571289062 c 0,20,21
 311.239257812 96.599609375 311.239257812 96.599609375 313.041015625 91.0341796875 c 0,22,23
 314.208007812 87.4287109375 314.208007812 87.4287109375 321.775390625 87.4287109375 c 0,24,25
 371.673828125 85.8046875 371.673828125 85.8046875 708.346679688 72.857421875 c 0,26,27
 725.583007812 72.1943359375 725.583007812 72.1943359375 729.48046875 54.5009765625 c 128,-1,28
 733.377929688 36.8076171875 733.377929688 36.8076171875 725.022460938 19.404296875 c 128,-1,29
 716.666015625 2 716.666015625 2 704.060546875 2 c 0,30,31
 305.83203125 11.7138671875 305.83203125 11.7138671875 234.91796875 11.7138671875 c 0,32,33
 195.634765625 12.6083984375 195.634765625 12.6083984375 195.116210938 21.1875 c 0,34,35
 194.92578125 24.345703125 194.92578125 24.345703125 198.346679688 28.5712890625 c 0,36,37
 238.258789062 78.880859375 238.258789062 78.880859375 321.14453125 164.516601562 c 128,-1,38
 404.030273438 250.151367188 404.030273438 250.151367188 419.775390625 267.428710938 c 0,39,40
 443.442382812 293.544921875 443.442382812 293.544921875 439.305664062 298.919921875 c 0,41,42
 437.155273438 301.713867188 437.155273438 301.713867188 430.060546875 301.713867188 c 2,43,-1
 218.060546875 301.713867188 l 2,44,45
 215.778320312 301.713867188 215.778320312 301.713867188 206.265625 302.155273438 c 128,-1,46
 196.752929688 302.596679688 196.752929688 302.596679688 191.256835938 302.478515625 c 128,-1,47
 185.76171875 302.359375 185.76171875 302.359375 178.569335938 300.458984375 c 128,-1,48
 171.376953125 298.55859375 171.376953125 298.55859375 167.489257812 294.571289062 c 0,49,50
 165.806640625 292.818359375 165.806640625 292.818359375 157.0234375 284.014648438 c 128,-1,51
 148.240234375 275.211914062 148.240234375 275.211914062 145.240234375 271.794921875 c 128,-1,52
 142.240234375 268.377929688 142.240234375 268.377929688 136.272460938 260.036132812 c 128,-1,53
 130.3046875 251.6953125 130.3046875 251.6953125 128.93359375 246.038085938 c 128,-1,54
 127.5625 240.381835938 127.5625 240.381835938 127.711914062 232.248046875 c 128,-1,55
 127.861328125 224.114257812 127.861328125 224.114257812 131.775390625 216.286132812 c 0,56,57
 134.88671875 210.063476562 134.88671875 210.063476562 144.04296875 204.624023438 c 128,-1,58
 153.198242188 199.185546875 153.198242188 199.185546875 161.959960938 196.08984375 c 128,-1,59
 170.721679688 192.993164062 170.721679688 192.993164062 178.287109375 188.185546875 c 128,-1,60
 185.852539062 183.376953125 185.852539062 183.376953125 185.78125 178.416015625 c 128,-1,61
 185.7109375 173.455078125 185.7109375 173.455078125 177.203125 164.286132812 c 0,62,63
 126.376953125 118.018554688 126.376953125 118.018554688 86.3466796875 128.571289062 c 0,64,65
 53.3115234375 137.434570312 53.3115234375 137.434570312 46.7744140625 171.75 c 128,-1,66
 40.23828125 206.065429688 40.23828125 206.065429688 57.775390625 236.571289062 c 0,67,68
 69.3681640625 260.168945312 69.3681640625 260.168945312 87.9248046875 284.159179688 c 128,-1,69
 106.48046875 308.149414062 106.48046875 308.149414062 119.580078125 322.711914062 c 128,-1,70
 132.678710938 337.2734375 132.678710938 337.2734375 163.26171875 362.590820312 c 128,-1,71
 193.84375 387.908203125 193.84375 387.908203125 202.391601562 394.423828125 c 128,-1,72
 210.938476562 400.938476562 210.938476562 400.938476562 247.489257812 428.571289062 c 0,73,74
 301.122070312 469.69140625 301.122070312 469.69140625 381.989257812 519.919921875 c 128,-1,75
 462.857421875 570.1484375 462.857421875 570.1484375 523.489257812 600 c 1,76,77
 588.670898438 638.567382812 588.670898438 638.567382812 658.060546875 668.857421875 c 1,0,-1
183.203125 563.713867188 m 1,78,-1
 183.203125 564.857421875 l 2,79,80
 185.412109375 565.0546875 185.412109375 565.0546875 187.649414062 565.0546875 c 0,81,82
 200.8046875 565.0546875 200.8046875 565.0546875 214.068359375 556.625 c 128,-1,83
 227.33203125 548.196289062 227.33203125 548.196289062 232.91796875 536.286132812 c 0,84,85
 245.580078125 513.581054688 245.580078125 513.581054688 219.794921875 489.172851562 c 128,-1,86
 194.009765625 464.764648438 194.009765625 464.764648438 157.775390625 467.713867188 c 0,87,88
 128.452148438 470.142578125 128.452148438 470.142578125 140.690429688 510.192382812 c 0,89,90
 151.817382812 546.608398438 151.817382812 546.608398438 175.736328125 560.616210938 c 0,91,92
 179.6015625 562.879882812 179.6015625 562.879882812 183.203125 563.713867188 c 1,78,-1
704.91796875 348.571289062 m 0,93,94
 715.635742188 352.016601562 715.635742188 352.016601562 723.450195312 342.133789062 c 128,-1,95
 731.264648438 332.250976562 731.264648438 332.250976562 733.489257812 320.571289062 c 0,96,97
 738.537109375 296.340820312 738.537109375 296.340820312 719.663085938 266.231445312 c 0,98,99
 698.708007812 232.799804688 698.708007812 232.799804688 678.91796875 259.713867188 c 0,100,101
 669.502929688 274.788085938 669.502929688 274.788085938 669.502929688 292.560546875 c 0,102,103
 669.502929688 308.790039062 669.502929688 308.790039062 679.87890625 325.201171875 c 128,-1,104
 690.255859375 341.612304688 690.255859375 341.612304688 704.91796875 348.571289062 c 0,93,94
EndSplineSet
Substitution2: "'c2sc' Capitals to Small Capitals lookup 35 subtable" e.sc
Substitution2: "'aalt' Access All Alternates lookup 0 subtable" e.sc
Position2: "'cpsp' Capital Spacing lookup 0 subtable" dx=10 dy=0 dh=20 dv=0
EndChar

StartChar: Eacute
Encoding: 201 201 32
Width: 791
GlyphClass: 2
Flags: W
AnchorPoint: "Anchor-17" -2 0 basechar 0
AnchorPoint: "Anchor-16" -2 0 basechar 0
AnchorPoint: "Anchor-15" 342 775 basechar 0
AnchorPoint: "Anchor-14" 522 40 basechar 0
AnchorPoint: "Anchor-13" 316 0 basechar 0
LayerCount: 2
Fore
SplineSet
278 662 m 1
 269 696 l 1
 364 742 364 742 479 803 c 1
 489 797 l 1
 509 737 l 1
 505 726 l 1
 393 692 393 692 289 656 c 1
 278 662 l 1
EndSplineSet
Refer: 31 69 N 1 0 0 1 -1.99936 0 0
Substitution2: "'c2sc' Capitals to Small Capitals lookup 35 subtable" eacute.sc
Substitution2: "'aalt' Access All Alternates lookup 0 subtable" eacute.sc
Position2: "'cpsp' Capital Spacing lookup 0 subtable" dx=10 dy=0 dh=20 dv=0
EndChar

StartChar: Ecaron
Encoding: 282 282 34
Width: 790
GlyphClass: 2
Flags: W
AnchorPoint: "Anchor-17" 3 0 basechar 0
AnchorPoint: "Anchor-16" 3 0 basechar 0
AnchorPoint: "Anchor-15" 316 774 basechar 0
AnchorPoint: "Anchor-14" 527 40 basechar 0
AnchorPoint: "Anchor-13" 321 0 basechar 0
LayerCount: 2
Fore
SplineSet
248 776 m 1
 266 807 l 1
 278 809 l 1
 349 770 349 770 402 747 c 1
 448 767 448 767 526 809 c 1
 538 807 l 1
 556 776 l 1
 490 728 490 728 410 660 c 1
 394 660 l 1
 313 728 313 728 248 776 c 1
EndSplineSet
Refer: 31 69 N 1 0 0 1 3.00064 0 0
Substitution2: "'c2sc' Capitals to Small Capitals lookup 35 subtable" ecaron.sc
Substitution2: "'aalt' Access All Alternates lookup 0 subtable" ecaron.sc
Position2: "'cpsp' Capital Spacing lookup 0 subtable" dx=10 dy=0 dh=20 dv=0
EndChar

StartChar: Ecircumflex
Encoding: 202 202 35
Width: 791
GlyphClass: 2
Flags: W
AnchorPoint: "Anchor-17" -2 0 basechar 0
AnchorPoint: "Anchor-16" -2 0 basechar 0
AnchorPoint: "Anchor-15" 312 859 basechar 0
AnchorPoint: "Anchor-14" 522 40 basechar 0
AnchorPoint: "Anchor-13" 316 0 basechar 0
LayerCount: 2
Fore
SplineSet
256 670 m 1
 238 700 l 1
 304 749 304 749 384 817 c 1
 400 817 l 1
 423 798 l 2
 438 786 438 786 476.5 754.5 c 0
 515 723 515 723 546 700 c 1
 528 670 l 1
 516 668 l 1
 451 703 451 703 392 730 c 1
 325 699 325 699 268 668 c 1
 256 670 l 1
EndSplineSet
Refer: 31 69 N 1 0 0 1 -1.99936 0 0
Substitution2: "'c2sc' Capitals to Small Capitals lookup 35 subtable" ecircumflex.sc
Substitution2: "'aalt' Access All Alternates lookup 0 subtable" ecircumflex.sc
Position2: "'cpsp' Capital Spacing lookup 0 subtable" dx=10 dy=0 dh=20 dv=0
EndChar

StartChar: uni0204
Encoding: 516 516 36
Width: 792
GlyphClass: 2
Flags: W
AnchorPoint: "Anchor-17" 4 0 basechar 0
AnchorPoint: "Anchor-16" 4 0 basechar 0
AnchorPoint: "Anchor-15" 301 846 basechar 0
AnchorPoint: "Anchor-14" 528 40 basechar 0
AnchorPoint: "Anchor-13" 322 0 basechar 0
LayerCount: 2
Fore
SplineSet
338 744 m 1
 336 754 l 1
 367 805 l 1
 377 808 l 1
 460 738 460 738 529 683 c 1
 514 657 l 1
 504 652 l 1
 424 699 424 699 338 744 c 1
186 736 m 1
 184 747 l 1
 215 797 l 1
 225 801 l 1
 308 731 308 731 377 676 c 1
 361 649 l 1
 352 645 l 1
 272 692 272 692 186 736 c 1
EndSplineSet
Refer: 31 69 N 1 0 0 1 4.00064 0 0
Substitution2: "'c2sc' Capitals to Small Capitals lookup 35 subtable" uni0205.sc
Substitution2: "'aalt' Access All Alternates lookup 0 subtable" uni0205.sc
Position2: "'cpsp' Capital Spacing lookup 0 subtable" dx=10 dy=0 dh=20 dv=0
EndChar

StartChar: Edieresis
Encoding: 203 203 37
Width: 792
GlyphClass: 2
Flags: W
AnchorPoint: "Anchor-17" -2 0 basechar 0
AnchorPoint: "Anchor-16" -2 0 basechar 0
AnchorPoint: "Anchor-15" 312 817 basechar 0
AnchorPoint: "Anchor-14" 522 40 basechar 0
AnchorPoint: "Anchor-13" 316 0 basechar 0
LayerCount: 2
Fore
SplineSet
258 713.5 m 0
 245 728 245 728 245 749 c 0
 245 774 245 774 261 790.5 c 0
 277 807 277 807 302 807 c 0
 325 807 325 807 338 792.5 c 0
 351 778 351 778 351 756 c 0
 351 732 351 732 335 715.5 c 0
 319 699 319 699 294 699 c 0
 271 699 271 699 258 713.5 c 0
429 713.5 m 0
 416 728 416 728 416 749 c 0
 416 774 416 774 432 790.5 c 0
 448 807 448 807 473 807 c 0
 496 807 496 807 509 792.5 c 0
 522 778 522 778 522 756 c 0
 522 732 522 732 506 715.5 c 0
 490 699 490 699 465 699 c 0
 442 699 442 699 429 713.5 c 0
EndSplineSet
Refer: 31 69 N 1 0 0 1 -1.99936 0 0
Substitution2: "'c2sc' Capitals to Small Capitals lookup 35 subtable" edieresis.sc
Substitution2: "'aalt' Access All Alternates lookup 0 subtable" edieresis.sc
Position2: "'cpsp' Capital Spacing lookup 0 subtable" dx=10 dy=0 dh=20 dv=0
EndChar

StartChar: Edotaccent
Encoding: 278 278 38
Width: 790
GlyphClass: 2
Flags: W
AnchorPoint: "Anchor-17" 3 0 basechar 0
AnchorPoint: "Anchor-16" 3 0 basechar 0
AnchorPoint: "Anchor-15" 317 832 basechar 0
AnchorPoint: "Anchor-14" 527 40 basechar 0
AnchorPoint: "Anchor-13" 321 0 basechar 0
LayerCount: 2
Fore
SplineSet
352 712 m 0
 337 729 337 729 337 755 c 0
 337 785 337 785 356 804.5 c 0
 375 824 375 824 405 824 c 0
 432 824 432 824 447.5 807 c 0
 463 790 463 790 463 764 c 0
 463 734 463 734 444 714.5 c 0
 425 695 425 695 395 695 c 0
 367 695 367 695 352 712 c 0
EndSplineSet
Refer: 31 69 N 1 0 0 1 3.00064 0 0
Substitution2: "'c2sc' Capitals to Small Capitals lookup 35 subtable" edotaccent.sc
Substitution2: "'aalt' Access All Alternates lookup 0 subtable" edotaccent.sc
Position2: "'cpsp' Capital Spacing lookup 0 subtable" dx=10 dy=0 dh=20 dv=0
EndChar

StartChar: Egrave
Encoding: 200 200 39
Width: 792
GlyphClass: 2
Flags: W
AnchorPoint: "Anchor-17" -2 0 basechar 0
AnchorPoint: "Anchor-16" -2 0 basechar 0
AnchorPoint: "Anchor-15" 272 848 basechar 0
AnchorPoint: "Anchor-14" 522 40 basechar 0
AnchorPoint: "Anchor-13" 316 0 basechar 0
LayerCount: 2
Fore
SplineSet
279 728 m 1
 275 739 l 1
 295 799 l 1
 305 805 l 1
 420 744 420 744 515 698 c 1
 505 664 l 1
 495 658 l 1
 391 694 391 694 279 728 c 1
EndSplineSet
Refer: 31 69 N 1 0 0 1 -1.99936 0 0
Substitution2: "'c2sc' Capitals to Small Capitals lookup 35 subtable" egrave.sc
Substitution2: "'aalt' Access All Alternates lookup 0 subtable" egrave.sc
Position2: "'cpsp' Capital Spacing lookup 0 subtable" dx=10 dy=0 dh=20 dv=0
EndChar

StartChar: Emacron
Encoding: 274 274 41
Width: 790
GlyphClass: 2
Flags: W
AnchorPoint: "Anchor-17" 3 0 basechar 0
AnchorPoint: "Anchor-16" 3 0 basechar 0
AnchorPoint: "Anchor-15" 317 761 basechar 0
AnchorPoint: "Anchor-14" 527 40 basechar 0
AnchorPoint: "Anchor-13" 321 0 basechar 0
LayerCount: 2
Fore
SplineSet
232 724 m 1
 244 782 l 1
 398 781 l 2
 446 781 446 781 526 787 c 1
 533 776 l 1
 524 716 l 1
 382 715 l 1
 240 714 l 1
 232 724 l 1
EndSplineSet
Refer: 31 69 N 1 0 0 1 3.00064 0 0
Substitution2: "'c2sc' Capitals to Small Capitals lookup 35 subtable" emacron.sc
Substitution2: "'aalt' Access All Alternates lookup 0 subtable" emacron.sc
Position2: "'cpsp' Capital Spacing lookup 0 subtable" dx=10 dy=0 dh=20 dv=0
EndChar

StartChar: Eogonek
Encoding: 280 280 42
Width: 790
GlyphClass: 2
Flags: W
LayerCount: 2
Fore
SplineSet
528 -151.5 m 4,0,1
 549 -145 549 -145 565 -135 c 5,2,-1
 582 -161 l 5,3,4
 558 -184 558 -184 530 -201.5 c 4,5,6
 502 -219 502 -219 479 -226 c 5,7,8
 429 -226 429 -226 397 -200 c 4,9,10
 365 -174 365 -174 365 -133 c 4,11,12
 365 -103 365 -103 382.5 -74.5 c 4,13,14
 400 -46 400 -46 458 15 c 5,15,-1
 511 14 l 5,16,17
 470 -34 470 -34 455.5 -59.5 c 4,18,19
 441 -85 441 -85 441 -108 c 260,20,21
 441 -131 441 -131 454.5 -144.5 c 4,22,23
 468 -158 468 -158 491 -158 c 4,24,25
 507 -158 507 -158 528 -151.5 c 4,0,1
EndSplineSet
Refer: 31 69 N 1 0 0 1 3.00064 0 2
Substitution2: "'c2sc' Capitals to Small Capitals lookup 35 subtable" eogonek.sc
Substitution2: "'aalt' Access All Alternates lookup 0 subtable" eogonek.sc
Position2: "'cpsp' Capital Spacing lookup 0 subtable" dx=10 dy=0 dh=20 dv=0
EndChar

StartChar: uni01B7
Encoding: 439 439 43
Width: 556
GlyphClass: 2
Flags: W
AnchorPoint: "Anchor-17" 0 0 basechar 0
AnchorPoint: "Anchor-16" 0 0 basechar 0
AnchorPoint: "Anchor-15" 295 639 basechar 0
AnchorPoint: "Anchor-14" 0 0 basechar 0
AnchorPoint: "Anchor-13" 276 0 basechar 0
LayerCount: 2
Fore
SplineSet
459 307.5 m 128,-1,1
 512 264 512 264 512 190 c 0,2,3
 512 129 512 129 477 83.5 c 128,-1,4
 442 38 442 38 379 13 c 128,-1,5
 316 -12 316 -12 235 -12 c 0,6,7
 165 -12 165 -12 75 6 c 1,8,-1
 69 14 l 1,9,10
 73 54 73 54 73 94 c 2,11,-1
 71 184 l 1,12,-1
 80 192 l 1,13,-1
 136 195 l 1,14,15
 135 123 135 123 165 89.5 c 128,-1,16
 195 56 195 56 260 56 c 256,17,18
 325 56 325 56 359 87 c 128,-1,19
 393 118 393 118 393 180 c 256,20,21
 393 242 393 242 357 270 c 128,-1,22
 321 298 321 298 245 298 c 2,23,-1
 219 297 l 1,24,-1
 213 304 l 1,25,-1
 218 349 l 1,26,-1
 395 554 l 1,27,-1
 220 554 l 2,28,29
 188 554 188 554 172 546 c 128,-1,30
 156 538 156 538 148.5 516.5 c 128,-1,31
 141 495 141 495 136 449 c 1,32,-1
 69 446 l 1,33,34
 82 518 82 518 84 640 c 1,35,-1
 94 649 l 1,36,-1
 260 640 l 1,37,-1
 490 639 l 1,38,-1
 506 590 l 1,39,-1
 305 359 l 1,40,0
 406 351 406 351 459 307.5 c 128,-1,1
EndSplineSet
Validated: 33
Substitution2: "'c2sc' Capitals to Small Capitals lookup 35 subtable" uni0292.sc
Substitution2: "'aalt' Access All Alternates lookup 0 subtable" uni0292.sc
EndChar

StartChar: uni01EE
Encoding: 494 494 44
Width: 556
GlyphClass: 2
Flags: W
AnchorPoint: "Anchor-17" 0 0 basechar 0
AnchorPoint: "Anchor-16" 0 0 basechar 0
AnchorPoint: "Anchor-15" 295 774 basechar 0
AnchorPoint: "Anchor-14" 0 0 basechar 0
AnchorPoint: "Anchor-13" 276 0 basechar 0
LayerCount: 2
Fore
SplineSet
141 817 m 1
 159 848 l 1
 171 850 l 1
 242 811 242 811 295 788 c 1
 341 808 341 808 419 850 c 1
 431 848 l 1
 449 817 l 1
 383 769 383 769 303 701 c 1
 287 701 l 1
 206 769 206 769 141 817 c 1
EndSplineSet
Refer: 43 439 N 1 0 0 1 0 0 0
Validated: 1
Substitution2: "'c2sc' Capitals to Small Capitals lookup 35 subtable" uni01EF.sc
Substitution2: "'aalt' Access All Alternates lookup 0 subtable" uni01EF.sc
EndChar

StartChar: F
Encoding: 70 70 45
Width: 876
GlyphClass: 2
Flags: W
LayerCount: 2
Fore
SplineSet
124.40234375 567.713867188 m 1,0,1
 449.745117188 564.006835938 449.745117188 564.006835938 551.259765625 567.713867188 c 0,2,3
 566.979492188 568.208007812 566.979492188 568.208007812 638.041015625 568.803710938 c 128,-1,4
 709.102539062 569.399414062 709.102539062 569.399414062 751.259765625 571.713867188 c 0,5,6
 758.424804688 571.713867188 758.424804688 571.713867188 772.583984375 573.61328125 c 128,-1,7
 786.744140625 575.512695312 786.744140625 575.512695312 796.7578125 576.19140625 c 128,-1,8
 806.772460938 576.87109375 806.772460938 576.87109375 816.858398438 575.46484375 c 128,-1,9
 826.9453125 574.05859375 826.9453125 574.05859375 830.952148438 566.729492188 c 128,-1,10
 834.959960938 559.399414062 834.959960938 559.399414062 832.1171875 546 c 128,-1,11
 829.311523438 532.748046875 829.311523438 532.748046875 825.161132812 528.19140625 c 128,-1,12
 821.009765625 523.634765625 821.009765625 523.634765625 817.108398438 524.862304688 c 128,-1,13
 813.208007812 526.08984375 813.208007812 526.08984375 807.625 523.012695312 c 128,-1,14
 802.041992188 519.935546875 802.041992188 519.935546875 797.259765625 509.713867188 c 0,15,16
 783.883789062 453.118164062 783.883789062 453.118164062 776.40234375 395.428710938 c 0,17,18
 774.07421875 363.854492188 774.07421875 363.854492188 757.545898438 336.857421875 c 0,19,20
 748.942382812 321.448242188 748.942382812 321.448242188 700.619140625 315.892578125 c 128,-1,21
 652.296875 310.3359375 652.296875 310.3359375 608.185546875 312.203125 c 128,-1,22
 564.075195312 314.069335938 564.075195312 314.069335938 557.545898438 317.142578125 c 0,23,24
 548.1484375 322.221679688 548.1484375 322.221679688 544.577148438 346.793945312 c 128,-1,25
 541.005859375 371.365234375 541.005859375 371.365234375 542.1328125 393.396484375 c 2,26,-1
 543.259765625 415.428710938 l 1,27,28
 501.537109375 413.442382812 501.537109375 413.442382812 496.974609375 420.286132812 c 0,29,30
 492.890625 425.341796875 492.890625 425.341796875 494.045898438 433.75 c 128,-1,31
 495.200195312 442.157226562 495.200195312 442.157226562 502.688476562 443.142578125 c 0,32,33
 548.677734375 449.713867188 548.677734375 449.713867188 590.974609375 449.713867188 c 0,34,35
 592.381835938 449.713867188 592.381835938 449.713867188 598.412109375 449.873046875 c 128,-1,36
 604.442382812 450.032226562 604.442382812 450.032226562 608.736328125 449.979492188 c 128,-1,37
 613.030273438 449.92578125 613.030273438 449.92578125 619.625976562 449.634765625 c 128,-1,38
 626.22265625 449.344726562 626.22265625 449.344726562 630.799804688 448.27734375 c 128,-1,39
 635.377929688 447.209960938 635.377929688 447.209960938 639.80078125 445.518554688 c 128,-1,40
 644.224609375 443.828125 644.224609375 443.828125 646.346679688 440.796875 c 128,-1,41
 648.469726562 437.765625 648.469726562 437.765625 648.1171875 433.713867188 c 0,42,43
 647.35546875 427.873046875 647.35546875 427.873046875 637.640625 424.086914062 c 128,-1,44
 627.926757812 420.301757812 627.926757812 420.301757812 618.592773438 419.436523438 c 2,45,-1
 609.259765625 418.571289062 l 1,46,47
 608.5703125 409.963867188 608.5703125 409.963867188 608.5703125 401.31640625 c 0,48,49
 608.5703125 376.036132812 608.5703125 376.036132812 614.40234375 351.428710938 c 0,50,51
 616.243164062 346.493164062 616.243164062 346.493164062 618.7578125 343.737304688 c 128,-1,52
 621.272460938 340.982421875 621.272460938 340.982421875 626.203125 340.04296875 c 128,-1,53
 631.133789062 339.102539062 631.133789062 339.102539062 634.762695312 339.04296875 c 128,-1,54
 638.390625 338.983398438 638.390625 338.983398438 647.487304688 339.461914062 c 128,-1,55
 656.584960938 339.94140625 656.584960938 339.94140625 662.40234375 340 c 0,56,57
 675.6171875 340.133789062 675.6171875 340.133789062 680.213867188 341.012695312 c 128,-1,58
 684.809570312 341.891601562 684.809570312 341.891601562 691.614257812 350.0234375 c 128,-1,59
 698.419921875 358.155273438 698.419921875 358.155273438 702.9375 374.2265625 c 128,-1,60
 707.455078125 390.298828125 707.455078125 390.298828125 714.974609375 423.142578125 c 0,61,62
 721.783203125 458.02734375 721.783203125 458.02734375 724.688476562 493.428710938 c 0,63,64
 724.688476562 502.66796875 724.688476562 502.66796875 717.53515625 509.357421875 c 128,-1,65
 710.381835938 516.046875 710.381835938 516.046875 695.791015625 519.514648438 c 128,-1,66
 681.200195312 522.982421875 681.200195312 522.982421875 667.666015625 524.999023438 c 128,-1,67
 654.131835938 527.014648438 654.131835938 527.014648438 632.4375 527.166992188 c 128,-1,68
 610.7421875 527.319335938 610.7421875 527.319335938 598.909179688 527.100585938 c 128,-1,69
 587.076171875 526.881835938 587.076171875 526.881835938 566.954101562 526.139648438 c 0,70,71
 558.674804688 525.833984375 558.674804688 525.833984375 554.974609375 525.713867188 c 0,72,73
 513.451171875 524.444335938 513.451171875 524.444335938 462.665039062 524.444335938 c 128,-1,74
 411.87890625 524.444335938 411.87890625 524.444335938 381.85546875 525.079101562 c 2,75,-1
 351.831054688 525.713867188 l 1,76,-1
 314.688476562 48.5712890625 l 1,77,-1
 516.688476562 44.857421875 l 1,78,79
 536.153320312 106.859375 536.153320312 106.859375 554.40234375 107.713867188 c 0,80,81
 564.494140625 108.198242188 564.494140625 108.198242188 569.810546875 105.418945312 c 128,-1,82
 575.126953125 102.638671875 575.126953125 102.638671875 575.358398438 97.029296875 c 128,-1,83
 575.58984375 91.419921875 575.58984375 91.419921875 574.647460938 86.9130859375 c 128,-1,84
 573.704101562 82.4072265625 573.704101562 82.4072265625 570.9375 75.78125 c 128,-1,85
 568.170898438 69.1552734375 568.170898438 69.1552734375 567.831054688 68 c 0,86,87
 565.392578125 60.0029296875 565.392578125 60.0029296875 560.451171875 42.029296875 c 128,-1,88
 555.508789062 24.0556640625 555.508789062 24.0556640625 551.993164062 12.5888671875 c 128,-1,89
 548.478515625 1.123046875 548.478515625 1.123046875 543.623046875 -12.041015625 c 128,-1,90
 538.768554688 -25.205078125 538.768554688 -25.205078125 533.657226562 -31.9501953125 c 128,-1,91
 528.546875 -38.6943359375 528.546875 -38.6943359375 523.259765625 -38.857421875 c 0,92,93
 507.1328125 -39.4921875 507.1328125 -39.4921875 502.061523438 -29.634765625 c 128,-1,94
 496.990234375 -19.7783203125 496.990234375 -19.7783203125 499.982421875 -9.603515625 c 2,95,-1
 502.974609375 0.5712890625 l 1,96,97
 452.580078125 3.71484375 452.580078125 3.71484375 397.545898438 4 c 2,98,-1
 168.1171875 0 l 2,99,100
 168.018554688 0 168.018554688 0 164.236328125 -0.380859375 c 128,-1,101
 160.454101562 -0.7626953125 160.454101562 -0.7626953125 155.96484375 -0.935546875 c 128,-1,102
 151.474609375 -1.1083984375 151.474609375 -1.1083984375 145.470703125 -1.029296875 c 128,-1,103
 139.466796875 -0.9501953125 139.466796875 -0.9501953125 134.110351562 0.23046875 c 128,-1,104
 128.75390625 1.4111328125 128.75390625 1.4111328125 124.106445312 3.4599609375 c 128,-1,105
 119.458984375 5.509765625 119.458984375 5.509765625 116.813476562 9.552734375 c 128,-1,106
 114.168945312 13.5966796875 114.168945312 13.5966796875 114.40234375 19.142578125 c 0,107,108
 114.40234375 31.689453125 114.40234375 31.689453125 119.21484375 36.599609375 c 128,-1,109
 124.028320312 41.509765625 124.028320312 41.509765625 137.831054688 42.5712890625 c 2,110,-1
 225.259765625 46.2861328125 l 1,111,-1
 263.545898438 523.428710938 l 1,112,-1
 98.6884765625 526.857421875 l 1,113,114
 81.517578125 494.854492188 81.517578125 494.854492188 66.974609375 493.142578125 c 0,115,116
 29.025390625 488.96875 29.025390625 488.96875 66.974609375 547.428710938 c 0,117,118
 70.75390625 552.809570312 70.75390625 552.809570312 80.2216796875 570.725585938 c 0,119,120
 108.990234375 625.163085938 108.990234375 625.163085938 124.89453125 625.650390625 c 0,121,122
 133.868164062 625.924804688 133.868164062 625.924804688 141.545898438 613.428710938 c 0,123,124
 144.212890625 608.857421875 144.212890625 608.857421875 139.926757812 597.428710938 c 128,-1,125
 135.640625 586 135.640625 586 130.021484375 576.856445312 c 2,126,-1
 124.40234375 567.713867188 l 1,0,1
EndSplineSet
Substitution2: "'c2sc' Capitals to Small Capitals lookup 35 subtable" f.sc
Substitution2: "'aalt' Access All Alternates lookup 0 subtable" f.sc
Position2: "'cpsp' Capital Spacing lookup 0 subtable" dx=10 dy=0 dh=20 dv=0
EndChar

StartChar: G
Encoding: 71 71 46
Width: 865
GlyphClass: 2
Flags: W
LayerCount: 2
Fore
SplineSet
818.427734375 547.713867188 m 4,0,1
 818.427734375 537.637695312 818.427734375 537.637695312 814.642578125 526.319335938 c 132,-1,2
 810.857421875 515.000976562 810.857421875 515.000976562 800.681640625 499.015625 c 132,-1,3
 790.505859375 483.030273438 790.505859375 483.030273438 784.700195312 474.561523438 c 132,-1,4
 778.89453125 466.09375 778.89453125 466.09375 762.373046875 444.446289062 c 132,-1,5
 745.8515625 422.798828125 745.8515625 422.798828125 741.856445312 417.428710938 c 4,6,7
 709.353515625 373.875 709.353515625 373.875 667.345703125 334.235351562 c 132,-1,8
 625.337890625 294.595703125 625.337890625 294.595703125 576.271484375 260.190429688 c 132,-1,9
 527.206054688 225.784179688 527.206054688 225.784179688 485.453125 199.638671875 c 132,-1,10
 443.700195312 173.493164062 443.700195312 173.493164062 387.041992188 139.650390625 c 132,-1,11
 330.383789062 105.806640625 330.383789062 105.806640625 297.856445312 84.5712890625 c 4,12,13
 275.998046875 70.26953125 275.998046875 70.26953125 243.70703125 48.2265625 c 132,-1,14
 211.415039062 26.18359375 211.415039062 26.18359375 194.744140625 15.2470703125 c 132,-1,15
 178.073242188 4.3115234375 178.073242188 4.3115234375 156.694335938 -8.138671875 c 132,-1,16
 135.31640625 -20.5888671875 135.31640625 -20.5888671875 119.251953125 -25.9638671875 c 132,-1,17
 103.188476562 -31.3388671875 103.188476562 -31.3388671875 88.142578125 -32 c 4,18,19
 75.4853515625 -32 75.4853515625 -32 66.5283203125 -23.04296875 c 132,-1,20
 57.5712890625 -14.0849609375 57.5712890625 -14.0849609375 57.5712890625 -1.4287109375 c 5,21,22
 63.3466796875 15.6142578125 63.3466796875 15.6142578125 72.427734375 31.142578125 c 4,23,24
 74.2548828125 35.1455078125 74.2548828125 35.1455078125 76.2109375 47.6044921875 c 132,-1,25
 78.166015625 60.0625 78.166015625 60.0625 82.2646484375 68.9677734375 c 132,-1,26
 86.36328125 77.873046875 86.36328125 77.873046875 95 80.2861328125 c 4,27,28
 99.6103515625 81.5859375 99.6103515625 81.5859375 115.375 78.361328125 c 132,-1,29
 131.139648438 75.13671875 131.139648438 75.13671875 140.427734375 78.2861328125 c 4,30,31
 148.82421875 81.4248046875 148.82421875 81.4248046875 202.309570312 98.09765625 c 132,-1,32
 255.793945312 114.76953125 255.793945312 114.76953125 281 125.713867188 c 4,33,34
 351.366210938 157.375976562 351.366210938 157.375976562 443.954101562 213.715820312 c 132,-1,35
 536.541992188 270.0546875 536.541992188 270.0546875 597 318 c 4,36,37
 625.72265625 344.1953125 625.72265625 344.1953125 659.961914062 386.471679688 c 132,-1,38
 694.201171875 428.747070312 694.201171875 428.747070312 713.856445312 462.286132812 c 4,39,40
 732.715820312 498.021484375 732.715820312 498.021484375 732.715820312 538.427734375 c 4,41,42
 732.715820312 538.748046875 732.715820312 538.748046875 732.713867188 539.142578125 c 4,43,44
 734.209960938 554.356445312 734.209960938 554.356445312 724.252929688 579.372070312 c 132,-1,45
 714.295898438 604.388671875 714.295898438 604.388671875 700.142578125 610.286132812 c 4,46,47
 676.178710938 617.755859375 676.178710938 617.755859375 651.078125 617.755859375 c 4,48,49
 613.795898438 617.755859375 613.795898438 617.755859375 580.142578125 601.713867188 c 4,50,51
 563.224609375 593.138671875 563.224609375 593.138671875 544.397460938 573.033203125 c 132,-1,52
 525.571289062 552.926757812 525.571289062 552.926757812 525.571289062 540.571289062 c 4,53,54
 526.081054688 531.973632812 526.081054688 531.973632812 532.52734375 525.52734375 c 132,-1,55
 538.973632812 519.08203125 538.973632812 519.08203125 547.571289062 518.571289062 c 4,56,57
 556.267578125 518.571289062 556.267578125 518.571289062 561.244140625 524.732421875 c 132,-1,58
 566.221679688 530.892578125 566.221679688 530.892578125 568.048828125 538.28515625 c 132,-1,59
 569.876953125 545.678710938 569.876953125 545.678710938 576.119140625 551.838867188 c 132,-1,60
 582.362304688 558 582.362304688 558 593.28515625 558 c 4,61,62
 594.278320312 558.0703125 594.278320312 558.0703125 595.28515625 558.0703125 c 4,63,64
 607.114257812 558.0703125 607.114257812 558.0703125 615.485351562 549.69921875 c 132,-1,65
 623.856445312 541.328125 623.856445312 541.328125 623.856445312 529.499023438 c 4,66,67
 623.856445312 508.73828125 623.856445312 508.73828125 594.646484375 487.512695312 c 132,-1,68
 565.436523438 466.286132812 565.436523438 466.286132812 549.28515625 466.286132812 c 4,69,70
 531.372070312 466.286132812 531.372070312 466.286132812 518.774414062 474.8125 c 132,-1,71
 506.176757812 483.33984375 506.176757812 483.33984375 499.453125 493.572265625 c 132,-1,72
 492.729492188 503.803710938 492.729492188 503.803710938 476.622070312 512.331054688 c 132,-1,73
 460.514648438 520.857421875 460.514648438 520.857421875 436.427734375 520.857421875 c 4,74,75
 391.548828125 519.2421875 391.548828125 519.2421875 348.142578125 507.713867188 c 4,76,77
 342.202148438 505.529296875 342.202148438 505.529296875 338.014648438 503.149414062 c 132,-1,78
 333.828125 500.76953125 333.828125 500.76953125 331.734375 499.041015625 c 132,-1,79
 329.640625 497.311523438 329.640625 497.311523438 328.5625 494.921875 c 132,-1,80
 327.485351562 492.532226562 327.485351562 492.532226562 327.353515625 491.49609375 c 132,-1,81
 327.221679688 490.459960938 327.221679688 490.459960938 327.396484375 488.217773438 c 132,-1,82
 327.571289062 485.9765625 327.571289062 485.9765625 327.571289062 485.713867188 c 4,83,84
 327.571289062 483.892578125 327.571289062 483.892578125 337.286132812 468.678710938 c 132,-1,85
 347 453.463867188 347 453.463867188 347 448.857421875 c 4,86,87
 347 434.991210938 347 434.991210938 335.319335938 426.486328125 c 132,-1,88
 323.638671875 417.98046875 323.638671875 417.98046875 312.965820312 415.990234375 c 132,-1,89
 302.29296875 414 302.29296875 414 292.713867188 414 c 4,90,91
 292.4296875 414 292.4296875 414 288.6484375 413.97265625 c 132,-1,92
 284.868164062 413.9453125 284.868164062 413.9453125 283.852539062 413.9765625 c 132,-1,93
 282.8359375 414.008789062 282.8359375 414.008789062 279.173828125 414.212890625 c 132,-1,94
 275.51171875 414.41796875 275.51171875 414.41796875 274.094726562 414.80859375 c 132,-1,95
 272.676757812 415.19921875 272.676757812 415.19921875 269.5546875 415.96875 c 132,-1,96
 266.43359375 416.73828125 266.43359375 416.73828125 265.036132812 417.821289062 c 132,-1,97
 263.638671875 418.904296875 263.638671875 418.904296875 261.478515625 420.5703125 c 132,-1,98
 259.319335938 422.237304688 259.319335938 422.237304688 258.364257812 424.344726562 c 132,-1,99
 257.409179688 426.451171875 257.409179688 426.451171875 256.6328125 429.348632812 c 132,-1,100
 255.856445312 432.245117188 255.856445312 432.245117188 255.856445312 435.713867188 c 4,101,102
 255.856445312 441.071289062 255.856445312 441.071289062 264.571289062 458.786132812 c 132,-1,103
 273.28515625 476.5 273.28515625 476.5 273.28515625 481.428710938 c 4,104,105
 273.28515625 495.379882812 273.28515625 495.379882812 252.135742188 531.26171875 c 132,-1,106
 230.987304688 567.142578125 230.987304688 567.142578125 216.142578125 567.142578125 c 4,107,108
 197.716796875 567.142578125 197.716796875 567.142578125 175.684570312 534.907226562 c 132,-1,109
 153.651367188 502.672851562 153.651367188 502.672851562 150.427734375 488.571289062 c 4,110,111
 149.077148438 482.583007812 149.077148438 482.583007812 149.845703125 477.004882812 c 132,-1,112
 150.615234375 471.426757812 150.615234375 471.426757812 148.819335938 462.899414062 c 132,-1,113
 147.024414062 454.372070312 147.024414062 454.372070312 141.571289062 447.142578125 c 4,114,115
 123.240234375 429.551757812 123.240234375 429.551757812 97.8564453125 428.571289062 c 4,116,117
 47 428.571289062 47 428.571289062 47 464.286132812 c 4,118,119
 47 474.127929688 47 474.127929688 51.234375 478.760742188 c 132,-1,120
 55.46875 483.392578125 55.46875 483.392578125 66.669921875 488.000976562 c 132,-1,121
 77.87109375 492.610351562 77.87109375 492.610351562 83.8564453125 496.571289062 c 4,122,123
 98.44921875 509.545898438 98.44921875 509.545898438 114.104492188 531.478515625 c 132,-1,124
 129.758789062 553.412109375 129.758789062 553.412109375 137.28515625 571.428710938 c 4,125,126
 144.0703125 582.711914062 144.0703125 582.711914062 152.700195312 600.224609375 c 132,-1,127
 161.330078125 617.736328125 161.330078125 617.736328125 165.612304688 624.530273438 c 132,-1,128
 169.893554688 631.323242188 169.893554688 631.323242188 179.396484375 637.233398438 c 132,-1,129
 188.900390625 643.142578125 188.900390625 643.142578125 203 643.142578125 c 4,130,131
 213.05078125 643.142578125 213.05078125 643.142578125 221.334960938 640.680664062 c 132,-1,132
 229.620117188 638.21875 229.620117188 638.21875 237.799804688 631.711914062 c 132,-1,133
 245.979492188 625.205078125 245.979492188 625.205078125 250.65625 620.653320312 c 132,-1,134
 255.333007812 616.102539062 255.333007812 616.102539062 265.063476562 604.896484375 c 132,-1,135
 274.794921875 593.689453125 274.794921875 593.689453125 279.28515625 588.857421875 c 4,136,137
 304.024414062 561.905273438 304.024414062 561.905273438 340.821289062 558.786132812 c 132,-1,138
 377.6171875 555.666992188 377.6171875 555.666992188 462.142578125 566.857421875 c 4,139,140
 481.706054688 568.966796875 481.706054688 568.966796875 496.0546875 579.764648438 c 132,-1,141
 510.403320312 590.561523438 510.403320312 590.561523438 518.859375 603.4765625 c 132,-1,142
 527.31640625 616.391601562 527.31640625 616.391601562 545.849609375 632.032226562 c 132,-1,143
 564.3828125 647.672851562 564.3828125 647.672851562 589.856445312 657.142578125 c 4,144,145
 615.010742188 668.0703125 615.010742188 668.0703125 642.427734375 668.571289062 c 4,146,147
 647.43359375 668.788085938 647.43359375 668.788085938 652.48046875 668.788085938 c 4,148,149
 679.88671875 668.788085938 679.88671875 668.788085938 715.784179688 658.594726562 c 132,-1,150
 751.682617188 648.40234375 751.682617188 648.40234375 775 634 c 4,151,152
 793.126953125 622.889648438 793.126953125 622.889648438 805.95703125 599.978515625 c 132,-1,153
 818.786132812 577.067382812 818.786132812 577.067382812 818.786132812 555.805664062 c 4,154,155
 818.786132812 551.744140625 818.786132812 551.744140625 818.427734375 547.713867188 c 4,0,1
EndSplineSet
Substitution2: "'c2sc' Capitals to Small Capitals lookup 35 subtable" g.sc
Substitution2: "'aalt' Access All Alternates lookup 0 subtable" g.sc
Position2: "'cpsp' Capital Spacing lookup 0 subtable" dx=10 dy=0 dh=20 dv=0
EndChar

StartChar: Gbreve
Encoding: 286 286 47
Width: 861
GlyphClass: 2
Flags: W
AnchorPoint: "Anchor-17" -1 0 basechar 0
AnchorPoint: "Anchor-16" -1 0 basechar 0
AnchorPoint: "Anchor-15" 371 823 basechar 0
AnchorPoint: "Anchor-14" -1 0 basechar 0
AnchorPoint: "Anchor-13" 330 0 basechar 0
LayerCount: 2
Fore
SplineSet
321.5 725.5 m 0
 289 756 289 756 275 801 c 1
 296 821 l 1
 308 823 l 1
 321 797 321 797 347.5 783 c 0
 374 769 374 769 407 769 c 256
 440 769 440 769 466.5 783 c 0
 493 797 493 797 506 823 c 1
 518 821 l 1
 539 801 l 1
 526 756 526 756 493 725.5 c 0
 460 695 460 695 407 695 c 256
 354 695 354 695 321.5 725.5 c 0
EndSplineSet
Refer: 46 71 N 1 0 0 1 -1 0 0
Substitution2: "'c2sc' Capitals to Small Capitals lookup 35 subtable" gbreve.sc
Substitution2: "'aalt' Access All Alternates lookup 0 subtable" gbreve.sc
Position2: "'cpsp' Capital Spacing lookup 0 subtable" dx=10 dy=0 dh=20 dv=0
EndChar

StartChar: Gcaron
Encoding: 486 486 48
Width: 865
GlyphClass: 2
Flags: W
AnchorPoint: "Anchor-17" -1 0 basechar 0
AnchorPoint: "Anchor-16" -1 0 basechar 0
AnchorPoint: "Anchor-15" 371 774 basechar 0
AnchorPoint: "Anchor-14" -1 0 basechar 0
AnchorPoint: "Anchor-13" 330 0 basechar 0
LayerCount: 2
Fore
SplineSet
255 767 m 1
 273 798 l 1
 285 800 l 1
 356 761 356 761 409 738 c 1
 455 758 455 758 533 800 c 1
 545 798 l 1
 563 767 l 1
 497 719 497 719 417 651 c 1
 401 651 l 1
 320 719 320 719 255 767 c 1
EndSplineSet
Refer: 46 71 N 1 0 0 1 -1 0 0
Substitution2: "'c2sc' Capitals to Small Capitals lookup 35 subtable" gcaron.sc
Substitution2: "'aalt' Access All Alternates lookup 0 subtable" gcaron.sc
Position2: "'cpsp' Capital Spacing lookup 0 subtable" dx=10 dy=0 dh=20 dv=0
EndChar

StartChar: Gdotaccent
Encoding: 288 288 51
Width: 861
GlyphClass: 2
Flags: W
AnchorPoint: "Anchor-17" -1 0 basechar 0
AnchorPoint: "Anchor-16" -1 0 basechar 0
AnchorPoint: "Anchor-15" 371 832 basechar 0
AnchorPoint: "Anchor-14" -1 0 basechar 0
AnchorPoint: "Anchor-13" 330 0 basechar 0
LayerCount: 2
Fore
SplineSet
358 721 m 0
 343 738 343 738 343 764 c 0
 343 794 343 794 362 813.5 c 0
 381 833 381 833 411 833 c 0
 438 833 438 833 453.5 816 c 0
 469 799 469 799 469 773 c 0
 469 743 469 743 450 723.5 c 0
 431 704 431 704 401 704 c 0
 373 704 373 704 358 721 c 0
EndSplineSet
Refer: 46 71 N 1 0 0 1 -1 0 0
Substitution2: "'c2sc' Capitals to Small Capitals lookup 35 subtable" gdotaccent.sc
Substitution2: "'aalt' Access All Alternates lookup 0 subtable" gdotaccent.sc
Position2: "'cpsp' Capital Spacing lookup 0 subtable" dx=10 dy=0 dh=20 dv=0
EndChar

StartChar: uni01E4
Encoding: 484 484 52
Width: 865
Flags: W
LayerCount: 2
Fore
SplineSet
577 210 m 5,0,-1
 361 208 l 5,1,-1
 355 216 l 5,2,-1
 362 260 l 5,3,-1
 578 261 l 5,4,-1
 638 264 l 5,5,-1
 644 253 l 5,6,-1
 640 210 l 5,7,-1
 577 210 l 5,0,-1
EndSplineSet
Refer: 46 71 N 1 0 0 1 -1 0 2
Substitution2: "'c2sc' Capitals to Small Capitals lookup 35 subtable" uni01E5.sc
Substitution2: "'aalt' Access All Alternates lookup 0 subtable" uni01E5.sc
EndChar

StartChar: H
Encoding: 72 72 53
Width: 778
GlyphClass: 2
Flags: W
LayerCount: 2
Fore
SplineSet
502.544921875 94.5712890625 m 0,0,1
 511.055664062 144.571289062 511.055664062 144.571289062 470.544921875 144.571289062 c 0,2,3
 456.555664062 144.571289062 456.555664062 144.571289062 440.978515625 126.795898438 c 128,-1,4
 425.40234375 109.021484375 425.40234375 109.021484375 425.40234375 95.7138671875 c 0,5,6
 428.373046875 81.814453125 428.373046875 81.814453125 440.427734375 70.5126953125 c 128,-1,7
 452.482421875 59.2119140625 452.482421875 59.2119140625 466.544921875 57.142578125 c 0,8,9
 479.662109375 57.142578125 479.662109375 57.142578125 489.83984375 69.4140625 c 128,-1,10
 500.018554688 81.685546875 500.018554688 81.685546875 502.544921875 94.5712890625 c 0,0,1
695.116210938 637.428710938 m 1,11,12
 700.663085938 628.018554688 700.663085938 628.018554688 717.17578125 610.734375 c 128,-1,13
 733.6875 593.451171875 733.6875 593.451171875 733.6875 580.286132812 c 0,14,15
 733.6875 571.295898438 733.6875 571.295898438 727.325195312 564.93359375 c 128,-1,16
 720.962890625 558.571289062 720.962890625 558.571289062 711.973632812 558.571289062 c 0,17,18
 701.03125 558.571289062 701.03125 558.571289062 676.678710938 575.986328125 c 128,-1,19
 652.326171875 593.401367188 652.326171875 593.401367188 647.116210938 594.571289062 c 0,20,21
 608.901367188 609.1953125 608.901367188 609.1953125 568.544921875 616 c 1,22,23
 519.53125 613.375976562 519.53125 613.375976562 471.116210938 605.428710938 c 0,24,25
 458.8828125 603.420898438 458.8828125 603.420898438 457.561523438 568.290039062 c 128,-1,26
 456.240234375 533.159179688 456.240234375 533.159179688 462.374023438 497.642578125 c 128,-1,27
 468.508789062 462.125 468.508789062 462.125 474.830078125 457.713867188 c 0,28,29
 479.624023438 454.369140625 479.624023438 454.369140625 494.185546875 462.427734375 c 128,-1,30
 508.747070312 470.486328125 508.747070312 470.486328125 535.760742188 482.143554688 c 128,-1,31
 562.775390625 493.80078125 562.775390625 493.80078125 591.116210938 496 c 0,32,33
 642.665039062 500.069335938 642.665039062 500.069335938 661.461914062 479.172851562 c 128,-1,34
 680.258789062 458.276367188 680.258789062 458.276367188 680.258789062 422.857421875 c 0,35,36
 680.258789062 374.185546875 680.258789062 374.185546875 617.973632812 288 c 0,37,38
 608.965820312 275.594726562 608.965820312 275.594726562 594.236328125 258.495117188 c 128,-1,39
 579.505859375 241.39453125 579.505859375 241.39453125 571.948242188 231.978515625 c 128,-1,40
 564.389648438 222.5625 564.389648438 222.5625 559.3515625 209.120117188 c 128,-1,41
 554.3125 195.677734375 554.3125 195.677734375 556.830078125 182.286132812 c 0,42,43
 558.155273438 174.924804688 558.155273438 174.924804688 562.727539062 160.821289062 c 128,-1,44
 567.299804688 146.716796875 567.299804688 146.716796875 570.084960938 136.209960938 c 128,-1,45
 572.870117188 125.703125 572.870117188 125.703125 572.317382812 108.561523438 c 128,-1,46
 571.763671875 91.419921875 571.763671875 91.419921875 565.40234375 73.4287109375 c 0,47,48
 551.90625 34.310546875 551.90625 34.310546875 510.624023438 15.3017578125 c 128,-1,49
 469.340820312 -3.70703125 469.340820312 -3.70703125 435.116210938 0.857421875 c 0,50,51
 403.517578125 4.1064453125 403.517578125 4.1064453125 378.403320312 28.71875 c 128,-1,52
 353.288085938 53.330078125 353.288085938 53.330078125 349.40234375 84.857421875 c 0,53,54
 349.91015625 99.9814453125 349.91015625 99.9814453125 357.612304688 118.481445312 c 128,-1,55
 365.314453125 136.982421875 365.314453125 136.982421875 375.6875 148 c 0,56,57
 392.251953125 166.431640625 392.251953125 166.431640625 420.212890625 186.104492188 c 128,-1,58
 448.172851562 205.77734375 448.172851562 205.77734375 471.116210938 215.142578125 c 0,59,60
 514.31640625 234.717773438 514.31640625 234.717773438 566.859375 297.259765625 c 128,-1,61
 619.40234375 359.801757812 619.40234375 359.801757812 619.40234375 397.713867188 c 0,62,63
 618.736328125 417.916992188 618.736328125 417.916992188 604.169921875 434.66015625 c 128,-1,64
 589.604492188 451.40234375 589.604492188 451.40234375 569.6875 454.857421875 c 0,65,66
 556.94921875 454.857421875 556.94921875 454.857421875 533.5859375 436.786132812 c 128,-1,67
 510.223632812 418.71484375 510.223632812 418.71484375 484.360351562 400.642578125 c 128,-1,68
 458.497070312 382.571289062 458.497070312 382.571289062 439.6875 382.571289062 c 0,69,70
 438.759765625 382.529296875 438.759765625 382.529296875 437.811523438 382.529296875 c 0,71,72
 422.000976562 382.529296875 422.000976562 382.529296875 409.826171875 393.67578125 c 128,-1,73
 397.651367188 404.822265625 397.651367188 404.822265625 396.258789062 420.571289062 c 2,74,-1
 398.830078125 599.428710938 l 1,75,-1
 185.40234375 602 l 1,76,77
 182.2578125 516.196289062 182.2578125 516.196289062 181.6875 470.286132812 c 2,78,-1
 181.6875 309.713867188 l 1,79,80
 181.6875 309.713867188 181.6875 309.713867188 219.509765625 312.213867188 c 0,81,82
 242.698242188 310.685546875 242.698242188 310.685546875 240.830078125 298.857421875 c 0,83,84
 239.795898438 293.166015625 239.795898438 293.166015625 229.0625 288.756835938 c 128,-1,85
 218.330078125 284.34765625 218.330078125 284.34765625 190.122070312 276.671875 c 128,-1,86
 161.9140625 268.99609375 161.9140625 268.99609375 144.258789062 263.142578125 c 0,87,88
 139.319335938 261.51171875 139.319335938 261.51171875 129.543945312 258.102539062 c 128,-1,89
 119.768554688 254.693359375 119.768554688 254.693359375 112.258789062 252.145507812 c 128,-1,90
 104.748046875 249.59765625 104.748046875 249.59765625 94.953125 246.455078125 c 128,-1,91
 85.1591796875 243.313476562 85.1591796875 243.313476562 77.7978515625 241.533203125 c 128,-1,92
 70.4365234375 239.751953125 70.4365234375 239.751953125 63.501953125 238.607421875 c 128,-1,93
 56.56640625 237.461914062 56.56640625 237.461914062 52.2333984375 238.177734375 c 128,-1,94
 47.900390625 238.893554688 47.900390625 238.893554688 46.544921875 241.428710938 c 0,95,96
 40.830078125 251.713867188 40.830078125 251.713867188 56.2587890625 264.78515625 c 128,-1,97
 71.6875 277.856445312 71.6875 277.856445312 89.97265625 285.78515625 c 2,98,-1
 108.258789062 293.713867188 l 1,99,100
 110.258789062 430.1015625 110.258789062 430.1015625 110.258789062 482 c 2,101,-1
 110.258789062 606.857421875 l 1,102,103
 104.819335938 609.0703125 104.819335938 609.0703125 96.755859375 612.942382812 c 128,-1,104
 88.693359375 616.814453125 88.693359375 616.814453125 75.1904296875 627.724609375 c 128,-1,105
 61.6875 638.634765625 61.6875 638.634765625 61.6875 648.286132812 c 0,106,107
 61.6689453125 648.709960938 61.6689453125 648.709960938 61.6689453125 649.174804688 c 0,108,109
 61.6689453125 657.809570312 61.6689453125 657.809570312 67.7802734375 663.920898438 c 128,-1,110
 73.890625 670.032226562 73.890625 670.032226562 82.525390625 670.032226562 c 0,111,112
 83.1005859375 670.032226562 83.1005859375 670.032226562 83.6875 670 c 0,113,114
 98.5947265625 668.360351562 98.5947265625 668.360351562 116.125976562 653.323242188 c 128,-1,115
 133.658203125 638.286132812 133.658203125 638.286132812 143.40234375 638.286132812 c 0,116,117
 171.705078125 638.286132812 171.705078125 638.286132812 268.188476562 636.569335938 c 128,-1,118
 364.670898438 634.852539062 364.670898438 634.852539062 424.043945312 636.288085938 c 128,-1,119
 483.416992188 637.724609375 483.416992188 637.724609375 523.6875 644.286132812 c 0,120,121
 538.7578125 646.75 538.7578125 646.75 551.892578125 659.25390625 c 128,-1,122
 565.026367188 671.7578125 565.026367188 671.7578125 572.799804688 684.911132812 c 128,-1,123
 580.573242188 698.063476562 580.573242188 698.063476562 591.955078125 707.798828125 c 128,-1,124
 603.336914062 717.533203125 603.336914062 717.533203125 615.973632812 715.713867188 c 0,125,126
 626.506835938 714.19921875 626.506835938 714.19921875 636.05859375 709.369140625 c 128,-1,127
 645.610351562 704.5390625 645.610351562 704.5390625 651.483398438 700.487304688 c 128,-1,128
 657.356445312 696.435546875 657.356445312 696.435546875 665.375976562 685.803710938 c 128,-1,129
 673.395507812 675.171875 673.395507812 675.171875 675.896484375 671.4296875 c 128,-1,130
 678.396484375 667.6875 678.396484375 667.6875 686.502929688 653.475585938 c 128,-1,131
 694.609375 639.263671875 694.609375 639.263671875 695.6875 637.428710938 c 2,132,-1
 695.116210938 637.428710938 l 1,11,12
EndSplineSet
Substitution2: "'c2sc' Capitals to Small Capitals lookup 35 subtable" h.sc
Substitution2: "'aalt' Access All Alternates lookup 0 subtable" h.sc
Position2: "'cpsp' Capital Spacing lookup 0 subtable" dx=10 dy=0 dh=20 dv=0
EndChar

StartChar: Hbar
Encoding: 294 294 54
Width: 796
GlyphClass: 2
Flags: W
AnchorPoint: "Anchor-17" 20 0 basechar 0
AnchorPoint: "Anchor-16" 388 324 basechar 0
AnchorPoint: "Anchor-15" 391 647 basechar 0
AnchorPoint: "Anchor-14" 20 0 basechar 0
AnchorPoint: "Anchor-13" 396 0 basechar 0
LayerCount: 2
Fore
SplineSet
56 516 m 5,0,-1
 46 525 l 5,1,-1
 54 568 l 5,2,-1
 563 572 l 5,3,-1
 576 558 l 5,4,-1
 572 518 l 5,5,-1
 56 516 l 5,0,-1
390 447 m 1,6,-1
 390 447 l 1,6,-1
EndSplineSet
Refer: 53 72 N 1 0 0 1 19.9997 0 2
Substitution2: "'c2sc' Capitals to Small Capitals lookup 35 subtable" hbar.sc
Substitution2: "'aalt' Access All Alternates lookup 0 subtable" hbar.sc
Position2: "'cpsp' Capital Spacing lookup 0 subtable" dx=10 dy=0 dh=20 dv=0
EndChar

StartChar: uni021E
Encoding: 542 542 55
Width: 783
GlyphClass: 2
Flags: W
AnchorPoint: "Anchor-17" 4.00098 0 basechar 0
AnchorPoint: "Anchor-16" 380.001 320 basechar 0
AnchorPoint: "Anchor-15" 380.001 774 basechar 0
AnchorPoint: "Anchor-14" 4.00098 0 basechar 0
AnchorPoint: "Anchor-13" 380.001 0 basechar 0
LayerCount: 2
Fore
SplineSet
219 805 m 1
 237 836 l 1
 249 838 l 1
 320 799 320 799 373 776 c 1
 419 796 419 796 497 838 c 1
 509 836 l 1
 527 805 l 1
 461 757 461 757 381 689 c 1
 365 689 l 1
 284 757 284 757 219 805 c 1
EndSplineSet
Refer: 53 72 N 1 0 0 1 3.9999 0 0
Substitution2: "'c2sc' Capitals to Small Capitals lookup 35 subtable" uni021F.sc
Substitution2: "'aalt' Access All Alternates lookup 0 subtable" uni021F.sc
EndChar

StartChar: Hcircumflex
Encoding: 292 292 56
Width: 780
GlyphClass: 2
Flags: W
AnchorPoint: "Anchor-17" 4.00098 0 basechar 0
AnchorPoint: "Anchor-16" 380.001 320 basechar 0
AnchorPoint: "Anchor-15" 380.001 859 basechar 0
AnchorPoint: "Anchor-14" 4.00098 0 basechar 0
AnchorPoint: "Anchor-13" 380.001 0 basechar 0
LayerCount: 2
Fore
SplineSet
218 712 m 1
 200 742 l 1
 266 791 266 791 346 859 c 1
 362 859 l 1
 385 840 l 2
 400 828 400 828 438.5 796.5 c 0
 477 765 477 765 508 742 c 1
 490 712 l 1
 478 710 l 1
 413 745 413 745 354 772 c 1
 287 741 287 741 230 710 c 1
 218 712 l 1
EndSplineSet
Refer: 53 72 N 1 0 0 1 4.00017 0 0
Substitution2: "'c2sc' Capitals to Small Capitals lookup 35 subtable" hcircumflex.sc
Substitution2: "'aalt' Access All Alternates lookup 0 subtable" hcircumflex.sc
Position2: "'cpsp' Capital Spacing lookup 0 subtable" dx=10 dy=0 dh=20 dv=0
EndChar

StartChar: I
Encoding: 73 73 57
Width: 599
GlyphClass: 2
Flags: W
LayerCount: 2
Fore
SplineSet
532.068359375 342.857421875 m 0,0,1
 519.306640625 300.862304688 519.306640625 300.862304688 508.25 287.358398438 c 128,-1,2
 497.193359375 273.85546875 497.193359375 273.85546875 474.92578125 281.142578125 c 0,3,4
 457.520507812 286.874023438 457.520507812 286.874023438 452.7109375 297.46484375 c 128,-1,5
 447.901367188 308.0546875 447.901367188 308.0546875 453.2109375 327.713867188 c 1,6,-1
 127.2109375 327.713867188 l 1,7,8
 117.008789062 296.881835938 117.008789062 296.881835938 106.118164062 286.62890625 c 128,-1,9
 95.2265625 276.375 95.2265625 276.375 74.92578125 283.142578125 c 0,10,11
 54.2177734375 290.044921875 54.2177734375 290.044921875 52.2470703125 308.142578125 c 128,-1,12
 50.275390625 326.240234375 50.275390625 326.240234375 64.068359375 364.857421875 c 0,13,14
 68.9326171875 379.057617188 68.9326171875 379.057617188 71.2431640625 385.483398438 c 128,-1,15
 73.5537109375 391.909179688 73.5537109375 391.909179688 77.537109375 401.686523438 c 128,-1,16
 81.51953125 411.46484375 81.51953125 411.46484375 84.21484375 415.2109375 c 128,-1,17
 86.9091796875 418.95703125 86.9091796875 418.95703125 91.158203125 423.90234375 c 128,-1,18
 95.40625 428.84765625 95.40625 428.84765625 99.724609375 429.764648438 c 128,-1,19
 104.04296875 430.681640625 104.04296875 430.681640625 109.796875 430.645507812 c 128,-1,20
 115.55078125 430.608398438 115.55078125 430.608398438 122.639648438 428.286132812 c 0,21,22
 141.430664062 422.158203125 141.430664062 422.158203125 145.9609375 411.28515625 c 128,-1,23
 150.491210938 400.413085938 150.491210938 400.413085938 144.639648438 383.142578125 c 1,24,-1
 471.2109375 383.142578125 l 1,25,26
 482.63671875 414.450195312 482.63671875 414.450195312 492.432617188 423.592773438 c 128,-1,27
 502.228515625 432.735351562 502.228515625 432.735351562 522.639648438 426 c 0,28,29
 529.669921875 423.869140625 529.669921875 423.869140625 534.420898438 420.9921875 c 128,-1,30
 539.172851562 418.116210938 539.172851562 418.116210938 542.173828125 415.37109375 c 128,-1,31
 545.174804688 412.625976562 545.174804688 412.625976562 546.052734375 407.5859375 c 128,-1,32
 546.931640625 402.545898438 546.931640625 402.545898438 547.12890625 398.978515625 c 128,-1,33
 547.326171875 395.41015625 547.326171875 395.41015625 545.497070312 387.8046875 c 128,-1,34
 543.668945312 380.200195312 543.668945312 380.200195312 542.227539062 375.407226562 c 128,-1,35
 540.78515625 370.614257812 540.78515625 370.614257812 537.415039062 360.041992188 c 128,-1,36
 534.044921875 349.469726562 534.044921875 349.469726562 532.068359375 342.857421875 c 0,0,1
EndSplineSet
Substitution2: "Single Substitution lookup 54 subtable" I.ss01
Substitution2: "'ss01' Style Set 1 lookup 44 subtable" I.ss01
Substitution2: "'c2sc' Capitals to Small Capitals lookup 35 subtable" i.sc
AlternateSubs2: "'aalt' Access All Alternates lookup 1 subtable" i.sc I.ss01
Position2: "'cpsp' Capital Spacing lookup 0 subtable" dx=10 dy=0 dh=20 dv=0
EndChar

StartChar: Iacute
Encoding: 205 205 59
Width: 612
GlyphClass: 2
Flags: W
AnchorPoint: "Anchor-17" 10.999 0 basechar 0
AnchorPoint: "Anchor-16" 10.999 0 basechar 0
AnchorPoint: "Anchor-15" 192.999 775 basechar 0
AnchorPoint: "Anchor-14" 262.999 40 basechar 0
AnchorPoint: "Anchor-13" 192.999 0 basechar 0
LayerCount: 2
Fore
SplineSet
204 545 m 1
 195 579 l 1
 290 625 290 625 405 686 c 1
 415 680 l 1
 435 620 l 1
 431 609 l 1
 319 575 319 575 215 539 c 1
 204 545 l 1
EndSplineSet
Refer: 57 73 N 1 0 0 1 11.0001 0 0
Substitution2: "'c2sc' Capitals to Small Capitals lookup 35 subtable" iacute.sc
Substitution2: "'aalt' Access All Alternates lookup 0 subtable" iacute.sc
Position2: "'cpsp' Capital Spacing lookup 0 subtable" dx=10 dy=0 dh=20 dv=0
EndChar

StartChar: uni01CF
Encoding: 463 463 61
Width: 599
GlyphClass: 2
Flags: W
AnchorPoint: "Anchor-17" -0.000976562 0 basechar 0
AnchorPoint: "Anchor-16" -0.000976562 0 basechar 0
AnchorPoint: "Anchor-15" 181.999 774 basechar 0
AnchorPoint: "Anchor-14" 251.999 40 basechar 0
AnchorPoint: "Anchor-13" 181.999 0 basechar 0
LayerCount: 2
Fore
SplineSet
158 591 m 1
 176 622 l 1
 188 624 l 1
 259 585 259 585 312 562 c 1
 358 582 358 582 436 624 c 1
 448 622 l 1
 466 591 l 1
 400 543 400 543 320 475 c 1
 304 475 l 1
 223 543 223 543 158 591 c 1
EndSplineSet
Refer: 57 73 N 1 0 0 1 0.000404966 0 0
Substitution2: "'c2sc' Capitals to Small Capitals lookup 35 subtable" uni01D0.sc
Substitution2: "'aalt' Access All Alternates lookup 0 subtable" uni01D0.sc
Position2: "'cpsp' Capital Spacing lookup 0 subtable" dx=10 dy=0 dh=20 dv=0
EndChar

StartChar: Icircumflex
Encoding: 206 206 62
Width: 612
GlyphClass: 2
Flags: W
AnchorPoint: "Anchor-17" 10.999 0 basechar 0
AnchorPoint: "Anchor-16" 10.999 0 basechar 0
AnchorPoint: "Anchor-15" 192.999 859 basechar 0
AnchorPoint: "Anchor-14" 262.999 40 basechar 0
AnchorPoint: "Anchor-13" 192.999 0 basechar 0
LayerCount: 2
Fore
SplineSet
183 536 m 1
 165 566 l 1
 231 615 231 615 311 683 c 1
 327 683 l 1
 350 664 l 2
 365 652 365 652 403.5 620.5 c 0
 442 589 442 589 473 566 c 1
 455 536 l 1
 443 534 l 1
 378 569 378 569 319 596 c 1
 252 565 252 565 195 534 c 1
 183 536 l 1
EndSplineSet
Refer: 57 73 N 1 0 0 1 11.0001 0 0
Substitution2: "'c2sc' Capitals to Small Capitals lookup 35 subtable" icircumflex.sc
Substitution2: "'aalt' Access All Alternates lookup 0 subtable" icircumflex.sc
Position2: "'cpsp' Capital Spacing lookup 0 subtable" dx=10 dy=0 dh=20 dv=0
EndChar

StartChar: uni0208
Encoding: 520 520 63
Width: 600
GlyphClass: 2
Flags: W
AnchorPoint: "Anchor-17" -0.000976562 0 basechar 0
AnchorPoint: "Anchor-16" -0.000976562 0 basechar 0
AnchorPoint: "Anchor-15" 151.999 838 basechar 0
AnchorPoint: "Anchor-14" 251.999 40 basechar 0
AnchorPoint: "Anchor-13" 181.999 0 basechar 0
LayerCount: 2
Fore
SplineSet
260 636 m 1
 258 646 l 1
 289 697 l 1
 299 700 l 1
 382 630 382 630 451 575 c 1
 436 549 l 1
 426 544 l 1
 346 591 346 591 260 636 c 1
108 628 m 1
 106 639 l 1
 137 689 l 1
 147 693 l 1
 230 623 230 623 299 568 c 1
 283 541 l 1
 274 537 l 1
 194 584 194 584 108 628 c 1
EndSplineSet
Refer: 57 73 N 1 0 0 1 0.000404966 0 0
Substitution2: "'c2sc' Capitals to Small Capitals lookup 35 subtable" uni0209.sc
Substitution2: "'aalt' Access All Alternates lookup 0 subtable" uni0209.sc
Position2: "'cpsp' Capital Spacing lookup 0 subtable" dx=10 dy=0 dh=20 dv=0
EndChar

StartChar: Idieresis
Encoding: 207 207 64
Width: 612
GlyphClass: 2
Flags: W
AnchorPoint: "Anchor-17" 10.999 0 basechar 0
AnchorPoint: "Anchor-16" 10.999 0 basechar 0
AnchorPoint: "Anchor-15" 192.999 817 basechar 0
AnchorPoint: "Anchor-14" 262.999 40 basechar 0
AnchorPoint: "Anchor-13" 192.999 0 basechar 0
LayerCount: 2
Fore
SplineSet
192 561.5 m 0
 179 576 179 576 179 597 c 0
 179 622 179 622 195 638.5 c 0
 211 655 211 655 236 655 c 0
 259 655 259 655 272 640.5 c 0
 285 626 285 626 285 604 c 0
 285 580 285 580 269 563.5 c 0
 253 547 253 547 228 547 c 0
 205 547 205 547 192 561.5 c 0
363 561.5 m 0
 350 576 350 576 350 597 c 0
 350 622 350 622 366 638.5 c 0
 382 655 382 655 407 655 c 0
 430 655 430 655 443 640.5 c 0
 456 626 456 626 456 604 c 0
 456 580 456 580 440 563.5 c 0
 424 547 424 547 399 547 c 0
 376 547 376 547 363 561.5 c 0
EndSplineSet
Refer: 57 73 N 1 0 0 1 11.0001 0 0
LCarets2: 1 0
Ligature2: "'liga' Standard Ligatures lookup 39 subtable" dieresis I
Substitution2: "'c2sc' Capitals to Small Capitals lookup 35 subtable" idieresis.sc
Substitution2: "'aalt' Access All Alternates lookup 0 subtable" idieresis.sc
Position2: "'cpsp' Capital Spacing lookup 0 subtable" dx=10 dy=0 dh=20 dv=0
EndChar

StartChar: Idotaccent
Encoding: 304 304 65
Width: 603
GlyphClass: 2
Flags: W
AnchorPoint: "Anchor-17" 2.99902 0 basechar 0
AnchorPoint: "Anchor-16" 2.99902 0 basechar 0
AnchorPoint: "Anchor-15" 184.999 832 basechar 0
AnchorPoint: "Anchor-14" 254.999 40 basechar 0
AnchorPoint: "Anchor-13" 184.999 0 basechar 0
LayerCount: 2
Fore
SplineSet
266 543 m 0
 251 560 251 560 251 586 c 0
 251 616 251 616 270 635.5 c 0
 289 655 289 655 319 655 c 0
 346 655 346 655 361.5 638 c 0
 377 621 377 621 377 595 c 0
 377 565 377 565 358 545.5 c 0
 339 526 339 526 309 526 c 0
 281 526 281 526 266 543 c 0
EndSplineSet
Refer: 57 73 N 1 0 0 1 3.00006 0 0
Substitution2: "'c2sc' Capitals to Small Capitals lookup 35 subtable" i.sc.loclTRK
Substitution2: "'aalt' Access All Alternates lookup 0 subtable" i.sc.loclTRK
Position2: "'cpsp' Capital Spacing lookup 0 subtable" dx=10 dy=0 dh=20 dv=0
EndChar

StartChar: Igrave
Encoding: 204 204 66
Width: 612
GlyphClass: 2
Flags: W
AnchorPoint: "Anchor-17" 10.999 0 basechar 0
AnchorPoint: "Anchor-16" 10.999 0 basechar 0
AnchorPoint: "Anchor-15" 146.999 840 basechar 0
AnchorPoint: "Anchor-14" 262.999 40 basechar 0
AnchorPoint: "Anchor-13" 192.999 0 basechar 0
LayerCount: 2
Fore
SplineSet
192 601 m 1
 188 612 l 1
 208 672 l 1
 218 678 l 1
 333 617 333 617 428 571 c 1
 418 537 l 1
 408 531 l 1
 304 567 304 567 192 601 c 1
EndSplineSet
Refer: 57 73 N 1 0 0 1 11.0001 0 0
Substitution2: "'c2sc' Capitals to Small Capitals lookup 35 subtable" igrave.sc
Substitution2: "'aalt' Access All Alternates lookup 0 subtable" igrave.sc
Position2: "'cpsp' Capital Spacing lookup 0 subtable" dx=10 dy=0 dh=20 dv=0
EndChar

StartChar: Imacron
Encoding: 298 298 68
Width: 603
GlyphClass: 2
Flags: W
AnchorPoint: "Anchor-17" 2.99902 0 basechar 0
AnchorPoint: "Anchor-16" 2.99902 0 basechar 0
AnchorPoint: "Anchor-15" 184.999 761 basechar 0
AnchorPoint: "Anchor-14" 254.999 40 basechar 0
AnchorPoint: "Anchor-13" 184.999 0 basechar 0
LayerCount: 2
Fore
SplineSet
166 520 m 1
 178 578 l 1
 332 577 l 2
 380 577 380 577 460 583 c 1
 467 572 l 1
 458 512 l 1
 316 511 l 1
 174 510 l 1
 166 520 l 1
EndSplineSet
Refer: 57 73 N 1 0 0 1 3.00006 0 0
Substitution2: "'c2sc' Capitals to Small Capitals lookup 35 subtable" imacron.sc
Substitution2: "'aalt' Access All Alternates lookup 0 subtable" imacron.sc
Position2: "'cpsp' Capital Spacing lookup 0 subtable" dx=10 dy=0 dh=20 dv=0
EndChar

StartChar: Iogonek
Encoding: 302 302 69
Width: 601
GlyphClass: 2
Flags: W
LayerCount: 2
Fore
SplineSet
403.999023438 156 m 5,0,1
 380.999023438 133 380.999023438 133 352.499023438 115.5 c 4,2,3
 323.999023438 98 323.999023438 98 300.999023438 91 c 5,4,5
 250.999023438 91 250.999023438 91 219.499023438 117 c 4,6,7
 187.999023438 143 187.999023438 143 187.999023438 184 c 4,8,9
 187.999023438 205 187.999023438 205 194.999023438 222.5 c 4,10,11
 201.999023438 240 201.999023438 240 220.999023438 265 c 4,12,13
 239.999023438 290 239.999023438 290 279.999023438 332 c 5,14,-1
 332.999023438 331 l 5,15,16
 291.999023438 283 291.999023438 283 277.499023438 257.5 c 4,17,18
 262.999023438 232 262.999023438 232 262.999023438 209 c 260,19,20
 262.999023438 186 262.999023438 186 276.499023438 172.5 c 4,21,22
 289.999023438 159 289.999023438 159 313.999023438 159 c 4,23,24
 329.999023438 159 329.999023438 159 350.499023438 165.5 c 4,25,26
 370.999023438 172 370.999023438 172 386.999023438 182 c 5,27,-1
 403.999023438 156 l 5,0,1
EndSplineSet
Refer: 57 73 N 1 0 0 1 1.00006 0 2
Substitution2: "'c2sc' Capitals to Small Capitals lookup 35 subtable" iogonek.sc
Substitution2: "'aalt' Access All Alternates lookup 0 subtable" iogonek.sc
Position2: "'cpsp' Capital Spacing lookup 0 subtable" dx=10 dy=0 dh=20 dv=0
EndChar

StartChar: J
Encoding: 74 74 71
Width: 585
GlyphClass: 2
Flags: W
LayerCount: 2
Fore
SplineSet
308.71484375 652.286132812 m 1,0,1
 324.560546875 637.202148438 324.560546875 637.202148438 349.009765625 613.245117188 c 128,-1,2
 373.458007812 589.288085938 373.458007812 589.288085938 421.5625 537.231445312 c 128,-1,3
 469.666992188 485.173828125 469.666992188 485.173828125 485.286132812 459.142578125 c 0,4,5
 506.427734375 425.83203125 506.427734375 425.83203125 521.389648438 374.334960938 c 128,-1,6
 536.3515625 322.836914062 536.3515625 322.836914062 536.3515625 283.3828125 c 0,7,8
 536.3515625 245.180664062 536.3515625 245.180664062 527.571289062 208 c 0,9,10
 517.251953125 157.076171875 517.251953125 157.076171875 478.240234375 102.411132812 c 128,-1,11
 439.229492188 47.7451171875 439.229492188 47.7451171875 394.428710938 21.4287109375 c 0,12,13
 350.926757812 0.013671875 350.926757812 0.013671875 302.439453125 0.013671875 c 0,14,15
 285.178710938 0.013671875 285.178710938 0.013671875 268.142578125 2.857421875 c 0,16,17
 249.221679688 6.5400390625 249.221679688 6.5400390625 210.936523438 26.6826171875 c 128,-1,18
 172.650390625 46.8251953125 172.650390625 46.8251953125 143.825195312 65.126953125 c 2,19,-1
 115 83.4287109375 l 1,20,21
 110.357421875 80.2294921875 110.357421875 80.2294921875 103.157226562 75.5576171875 c 128,-1,22
 95.9560546875 70.8857421875 95.9560546875 70.8857421875 81.509765625 63.5859375 c 128,-1,23
 67.0634765625 56.2861328125 67.0634765625 56.2861328125 61.857421875 57.4287109375 c 0,24,25
 48.412109375 61.2392578125 48.412109375 61.2392578125 47 75.142578125 c 0,26,27
 47 98.53515625 47 98.53515625 125.286132812 150.286132812 c 0,28,29
 165.495117188 181.4921875 165.495117188 181.4921875 209.286132812 207.428710938 c 1,30,31
 220.361328125 207.428710938 220.361328125 207.428710938 230.680664062 200.126953125 c 128,-1,32
 241 192.82421875 241 192.82421875 241 184.571289062 c 1,33,34
 219.778320312 161.416015625 219.778320312 161.416015625 194.428710938 142.857421875 c 1,35,36
 212.180664062 124.795898438 212.180664062 124.795898438 241.146484375 104.788085938 c 128,-1,37
 270.111328125 84.7802734375 270.111328125 84.7802734375 293.286132812 74.5712890625 c 0,38,39
 337.76171875 60.4267578125 337.76171875 60.4267578125 374.107421875 66.78515625 c 128,-1,40
 410.453125 73.14453125 410.453125 73.14453125 425.571289062 91.142578125 c 0,41,42
 469.05078125 140.55078125 469.05078125 140.55078125 464.428710938 248.571289062 c 0,43,44
 462.428710938 291.69140625 462.428710938 291.69140625 435.58984375 341.955078125 c 128,-1,45
 408.750976562 392.219726562 408.750976562 392.219726562 371.875976562 433.155273438 c 128,-1,46
 335 474.090820312 335 474.090820312 298.41015625 508.8671875 c 128,-1,47
 261.8203125 543.643554688 261.8203125 543.643554688 236.41015625 563.107421875 c 2,48,-1
 211 582.571289062 l 2,49,50
 208.874023438 581.237304688 208.874023438 581.237304688 205.266601562 579.140625 c 128,-1,51
 201.659179688 577.04296875 201.659179688 577.04296875 191.904296875 572.458984375 c 128,-1,52
 182.1484375 567.875976562 182.1484375 567.875976562 173.970703125 565.42578125 c 128,-1,53
 165.79296875 562.975585938 165.79296875 562.975585938 157.31640625 563.544921875 c 128,-1,54
 148.83984375 564.114257812 148.83984375 564.114257812 145 569.713867188 c 0,55,56
 123.547851562 601.176757812 123.547851562 601.176757812 214.428710938 652.857421875 c 0,57,58
 215.841796875 653.665039062 215.841796875 653.665039062 247.077148438 676.216796875 c 128,-1,59
 278.313476562 698.768554688 278.313476562 698.768554688 302.541992188 709.973632812 c 128,-1,60
 326.770507812 721.1796875 326.770507812 721.1796875 336.71484375 712 c 0,61,62
 345.58203125 700.645507812 345.58203125 700.645507812 339.360351562 687.375976562 c 128,-1,63
 333.137695312 674.106445312 333.137695312 674.106445312 320.926757812 663.196289062 c 2,64,-1
 308.71484375 652.286132812 l 1,0,1
EndSplineSet
Substitution2: "'c2sc' Capitals to Small Capitals lookup 35 subtable" j.sc
Substitution2: "'aalt' Access All Alternates lookup 0 subtable" j.sc
Position2: "'cpsp' Capital Spacing lookup 0 subtable" dx=10 dy=0 dh=20 dv=0
EndChar

StartChar: K
Encoding: 75 75 73
Width: 382
GlyphClass: 2
Flags: W
LayerCount: 2
Fore
SplineSet
102.700195312 -44.2861328125 m 1,0,1
 66.5263671875 -44.2861328125 66.5263671875 -44.2861328125 58.4501953125 -17.5361328125 c 128,-1,2
 50.373046875 9.21484375 50.373046875 9.21484375 81.271484375 48.857421875 c 0,3,4
 95.748046875 66.4765625 95.748046875 66.4765625 142.970703125 116.8046875 c 128,-1,5
 190.193359375 167.133789062 190.193359375 167.133789062 222.620117188 205.099609375 c 128,-1,6
 255.045898438 243.065429688 255.045898438 243.065429688 254.4140625 253.428710938 c 0,7,8
 253.7265625 264.6953125 253.7265625 264.6953125 184.075195312 330.060546875 c 128,-1,9
 114.423828125 395.426757812 114.423828125 395.426757812 114.12890625 408.857421875 c 0,10,11
 113.884765625 419.932617188 113.884765625 419.932617188 144.676757812 445.530273438 c 128,-1,12
 175.467773438 471.126953125 175.467773438 471.126953125 207.67578125 496.184570312 c 128,-1,13
 239.883789062 521.243164062 239.883789062 521.243164062 241.842773438 530 c 0,14,15
 244.763671875 542.698242188 244.763671875 542.698242188 208.548828125 587.413085938 c 128,-1,16
 172.334960938 632.126953125 172.334960938 632.126953125 134.66015625 670.4921875 c 2,17,-1
 96.9853515625 708.857421875 l 2,18,19
 96.21484375 708.182617188 96.21484375 708.182617188 94.9150390625 707.095703125 c 128,-1,20
 93.6142578125 706.0078125 93.6142578125 706.0078125 89.4453125 702.669921875 c 128,-1,21
 85.2763671875 699.33203125 85.2763671875 699.33203125 81.6923828125 696.870117188 c 128,-1,22
 78.1083984375 694.408203125 78.1083984375 694.408203125 72.76953125 690.984375 c 128,-1,23
 67.4306640625 687.561523438 67.4306640625 687.561523438 63.791015625 686.303710938 c 128,-1,24
 60.15234375 685.046875 60.15234375 685.046875 55.873046875 684.1171875 c 128,-1,25
 51.59375 683.1875 51.59375 683.1875 50.12890625 685.713867188 c 0,26,27
 41.583984375 694.521484375 41.583984375 694.521484375 67.3310546875 722.609375 c 128,-1,28
 93.0771484375 750.697265625 93.0771484375 750.697265625 125.116210938 773.771484375 c 128,-1,29
 157.15625 796.844726562 157.15625 796.844726562 164.4140625 793.713867188 c 0,30,31
 173.217773438 787.713867188 173.217773438 787.713867188 169.663085938 778.380859375 c 128,-1,32
 166.107421875 769.046875 166.107421875 769.046875 157.260742188 760.380859375 c 2,33,-1
 148.4140625 751.713867188 l 1,34,35
 155.844726562 745.34765625 155.844726562 745.34765625 168.1875 734.545898438 c 128,-1,36
 180.530273438 723.744140625 180.530273438 723.744140625 212.147460938 694.54296875 c 128,-1,37
 243.763671875 665.342773438 243.763671875 665.342773438 268.018554688 640.873046875 c 128,-1,38
 292.2734375 616.404296875 292.2734375 616.404296875 312.389648438 591.065429688 c 128,-1,39
 332.505859375 565.725585938 332.505859375 565.725585938 332.985351562 554.286132812 c 0,40,41
 333.72265625 536.73046875 333.72265625 536.73046875 303.018554688 508.149414062 c 128,-1,42
 272.315429688 479.567382812 272.315429688 479.567382812 241.047851562 454.327148438 c 128,-1,43
 209.78125 429.086914062 209.78125 429.086914062 209.556640625 420 c 128,-1,44
 209.329101562 410.791015625 209.329101562 410.791015625 241.146484375 381.422851562 c 128,-1,45
 272.962890625 352.053710938 272.962890625 352.053710938 304.729492188 319.625 c 128,-1,46
 336.495117188 287.196289062 336.495117188 287.196289062 336.12890625 270.571289062 c 128,-1,47
 335.759765625 253.850585938 335.759765625 253.850585938 282.970703125 196.733398438 c 128,-1,48
 230.182617188 139.6171875 230.182617188 139.6171875 176.333984375 84.98046875 c 128,-1,49
 122.485351562 30.3427734375 122.485351562 30.3427734375 120.700195312 20.857421875 c 0,50,51
 119.208984375 12.9375 119.208984375 12.9375 124.651367188 -5.8603515625 c 128,-1,52
 130.09375 -24.6591796875 130.09375 -24.6591796875 126.939453125 -35.1865234375 c 128,-1,53
 123.784179688 -45.7138671875 123.784179688 -45.7138671875 103.271484375 -45.7138671875 c 1,54,-1
 102.700195312 -44.2861328125 l 1,0,1
EndSplineSet
Substitution2: "'c2sc' Capitals to Small Capitals lookup 35 subtable" k.sc
Substitution2: "'aalt' Access All Alternates lookup 0 subtable" k.sc
Position2: "'cpsp' Capital Spacing lookup 0 subtable" dx=10 dy=0 dh=20 dv=0
EndChar

StartChar: uni01E8
Encoding: 488 488 74
Width: 400
GlyphClass: 2
Flags: W
AnchorPoint: "Anchor-17" -2 0 basechar 0
AnchorPoint: "Anchor-16" -2 0 basechar 0
AnchorPoint: "Anchor-15" 348 782 basechar 0
AnchorPoint: "Anchor-14" -2 0 basechar 0
AnchorPoint: "Anchor-13" 370 0 basechar 0
LayerCount: 2
Fore
SplineSet
46 907 m 1
 64 938 l 1
 76 940 l 1
 147 901 147 901 200 878 c 1
 246 898 246 898 324 940 c 1
 336 938 l 1
 354 907 l 1
 288 859 288 859 208 791 c 1
 192 791 l 1
 111 859 111 859 46 907 c 1
EndSplineSet
Refer: 73 75 N 1 0 0 1 -1.99937 0 0
Substitution2: "'c2sc' Capitals to Small Capitals lookup 35 subtable" uni01E9.sc
Substitution2: "'aalt' Access All Alternates lookup 0 subtable" uni01E9.sc
EndChar

StartChar: L
Encoding: 76 76 76
Width: 485
GlyphClass: 2
Flags: W
LayerCount: 2
Fore
SplineSet
386.662109375 761.428710938 m 0,0,1
 373.329101562 747.333007812 373.329101562 747.333007812 343.614257812 721.975585938 c 128,-1,2
 313.900390625 696.619140625 313.900390625 696.619140625 290.853515625 678.309570312 c 2,3,-1
 267.805664062 660 l 1,4,-1
 254.662109375 464 l 1,5,6
 312.064453125 481.56640625 312.064453125 481.56640625 345.484375 473 c 128,-1,7
 378.903320312 464.43359375 378.903320312 464.43359375 375.234375 434 c 0,8,9
 371.39453125 403.040039062 371.39453125 403.040039062 355.620117188 366.931640625 c 128,-1,10
 339.846679688 330.822265625 339.846679688 330.822265625 320.077148438 301.40234375 c 128,-1,11
 300.30859375 271.982421875 300.30859375 271.982421875 281.087890625 246.986328125 c 128,-1,12
 261.8671875 221.989257812 261.8671875 221.989257812 248.836914062 207.994140625 c 2,13,-1
 235.805664062 194 l 1,14,-1
 221.234375 35.4287109375 l 1,15,-1
 364.090820312 52.5712890625 l 1,16,17
 387.961914062 77.10546875 387.961914062 77.10546875 421.234375 85.142578125 c 0,18,19
 434.188476562 85.142578125 434.188476562 85.142578125 437.805664062 75.75 c 128,-1,20
 441.422851562 66.357421875 441.422851562 66.357421875 432.948242188 53.7138671875 c 0,21,22
 429.375976562 48.4375 429.375976562 48.4375 422.086914062 37.3447265625 c 128,-1,23
 414.797851562 26.251953125 414.797851562 26.251953125 410.331054688 19.6865234375 c 128,-1,24
 405.86328125 13.12109375 405.86328125 13.12109375 399.01171875 3.513671875 c 128,-1,25
 392.16015625 -6.0927734375 392.16015625 -6.0927734375 386.9609375 -11.8701171875 c 128,-1,26
 381.760742188 -17.646484375 381.760742188 -17.646484375 375.676757812 -23.4599609375 c 128,-1,27
 369.592773438 -29.2724609375 369.592773438 -29.2724609375 363.990234375 -31.951171875 c 128,-1,28
 358.387695312 -34.630859375 358.387695312 -34.630859375 353.234375 -34.5712890625 c 0,29,30
 342.186523438 -34.4443359375 342.186523438 -34.4443359375 340.900390625 -21.73046875 c 128,-1,31
 339.615234375 -9.015625 339.615234375 -9.015625 343.852539062 3.634765625 c 2,32,-1
 348.090820312 16.2861328125 l 1,33,-1
 57.234375 -32.5712890625 l 2,34,35
 42.64453125 -35.0322265625 42.64453125 -35.0322265625 43.0087890625 -18.4521484375 c 0,36,37
 43.4619140625 2.1396484375 43.4619140625 2.1396484375 58.876953125 8.6787109375 c 0,38,39
 60.5966796875 9.4091796875 60.5966796875 9.4091796875 62.376953125 9.7138671875 c 2,40,-1
 148.090820312 23.7138671875 l 1,41,-1
 168.662109375 268.571289062 l 1,42,43
 223.200195312 255.859375 223.200195312 255.859375 266.676757812 294.842773438 c 128,-1,44
 310.153320312 333.826171875 310.153320312 333.826171875 318.090820312 391.428710938 c 0,45,46
 321.268554688 414.126953125 321.268554688 414.126953125 309.819335938 424.280273438 c 128,-1,47
 298.370117188 434.43359375 298.370117188 434.43359375 270.090820312 428.286132812 c 0,48,49
 249.009765625 422.979492188 249.009765625 422.979492188 222.3046875 409.333984375 c 128,-1,50
 195.599609375 395.688476562 195.599609375 395.688476562 178.948242188 381.713867188 c 1,51,-1
 194.948242188 622.857421875 l 1,52,53
 167.271484375 612.642578125 167.271484375 612.642578125 137.805664062 611.142578125 c 0,54,55
 133.66015625 611.142578125 133.66015625 611.142578125 131.463867188 616.912109375 c 128,-1,56
 129.266601562 622.681640625 129.266601562 622.681640625 132.052734375 630.23046875 c 128,-1,57
 134.837890625 637.778320312 134.837890625 637.778320312 143.234375 641.713867188 c 0,58,59
 199.7265625 668.252929688 199.7265625 668.252929688 239.802734375 693.35546875 c 128,-1,60
 279.87890625 718.458007812 279.87890625 718.458007812 295.8125 733.497070312 c 128,-1,61
 311.74609375 748.536132812 311.74609375 748.536132812 327.1328125 762.275390625 c 128,-1,62
 342.51953125 776.014648438 342.51953125 776.014648438 355.234375 782.286132812 c 0,63,64
 366.903320312 789.224609375 366.903320312 789.224609375 384.401367188 782.446289062 c 0,65,66
 400.657226562 776.150390625 400.657226562 776.150390625 386.662109375 761.428710938 c 0,0,1
EndSplineSet
Substitution2: "Single Substitution lookup 54 subtable" L.ss01
Substitution2: "'ss01' Style Set 1 lookup 44 subtable" L.ss01
Substitution2: "'c2sc' Capitals to Small Capitals lookup 35 subtable" l.sc
AlternateSubs2: "'aalt' Access All Alternates lookup 1 subtable" l.sc L.ss01
Position2: "'cpsp' Capital Spacing lookup 0 subtable" dx=10 dy=0 dh=20 dv=0
EndChar

StartChar: Lacute
Encoding: 313 313 78
Width: 480
GlyphClass: 2
Flags: W
AnchorPoint: "Anchor-17" -1 0 basechar 0
AnchorPoint: "Anchor-16" -1 0 basechar 0
AnchorPoint: "Anchor-15" 189 783 basechar 0
AnchorPoint: "Anchor-14" -1 0 basechar 0
AnchorPoint: "Anchor-13" 286 0 basechar 0
LayerCount: 2
Fore
SplineSet
125 748 m 1
 116 782 l 1
 211 828 211 828 326 889 c 1
 336 883 l 1
 356 823 l 1
 352 812 l 1
 240 778 240 778 136 742 c 1
 125 748 l 1
EndSplineSet
Refer: 76 76 N 1 0 0 1 -0.999746 0 0
Substitution2: "'c2sc' Capitals to Small Capitals lookup 35 subtable" lacute.sc
Substitution2: "'aalt' Access All Alternates lookup 0 subtable" lacute.sc
Position2: "'cpsp' Capital Spacing lookup 0 subtable" dx=10 dy=0 dh=20 dv=0
EndChar

StartChar: Lcaron
Encoding: 317 317 79
Width: 489
GlyphClass: 2
Flags: W
AnchorPoint: "Anchor-17" -1 0 basechar 0
AnchorPoint: "Anchor-16" -1 0 basechar 0
AnchorPoint: "Anchor-15" 189 647 basechar 0
AnchorPoint: "Anchor-14" -1 0 basechar 0
AnchorPoint: "Anchor-13" 286 0 basechar 0
LayerCount: 2
Fore
SplineSet
363 487 m 5,0,1
 364 504 364 504 364 538 c 4,2,3
 364 625 364 625 356 709 c 5,4,-1
 440 723 l 5,5,-1
 447 714 l 5,6,7
 432 599 432 599 410 500 c 5,8,-1
 376 484 l 5,9,-1
 363 487 l 5,0,1
EndSplineSet
Refer: 76 76 N 1 0 0 1 -0.999746 0 2
Substitution2: "'c2sc' Capitals to Small Capitals lookup 35 subtable" lcaron.sc
Substitution2: "'aalt' Access All Alternates lookup 0 subtable" lcaron.sc
Position2: "'cpsp' Capital Spacing lookup 0 subtable" dx=10 dy=0 dh=20 dv=0
EndChar

StartChar: Lslash
Encoding: 321 321 83
Width: 486
GlyphClass: 2
Flags: W
AnchorPoint: "Anchor-17" -1 0 basechar 0
AnchorPoint: "Anchor-16" -1 0 basechar 0
AnchorPoint: "Anchor-15" 194 647 basechar 0
AnchorPoint: "Anchor-14" -1 0 basechar 0
AnchorPoint: "Anchor-13" 291 0 basechar 0
LayerCount: 2
Fore
SplineSet
98 259 m 5,0,-1
 89 262 l 5,1,-1
 79 307 l 5,2,-1
 425 469 l 5,3,-1
 433 465 l 5,4,-1
 443 421 l 5,5,-1
 98 259 l 5,0,-1
EndSplineSet
Refer: 76 76 N 1 0 0 1 -0.999746 0 2
Substitution2: "'c2sc' Capitals to Small Capitals lookup 35 subtable" lslash.sc
Substitution2: "'aalt' Access All Alternates lookup 0 subtable" lslash.sc
Position2: "'cpsp' Capital Spacing lookup 0 subtable" dx=10 dy=0 dh=20 dv=0
EndChar

StartChar: M
Encoding: 77 77 84
Width: 778
GlyphClass: 2
Flags: W
LayerCount: 2
Fore
SplineSet
202.71484375 714.286132812 m 0,0,1
 239.71484375 714.286132812 239.71484375 714.286132812 254.544921875 709.588867188 c 128,-1,2
 269.375 704.892578125 269.375 704.892578125 283.286132812 683.428710938 c 0,3,4
 297.446289062 661.4296875 297.446289062 661.4296875 308.951171875 639.606445312 c 128,-1,5
 320.456054688 617.782226562 320.456054688 617.782226562 333.430664062 590.96484375 c 128,-1,6
 346.404296875 564.146484375 346.404296875 564.146484375 356.428710938 545.428710938 c 1,7,8
 366.381835938 535.866210938 366.381835938 535.866210938 380.182617188 535.866210938 c 0,9,10
 395.623046875 535.866210938 395.623046875 535.866210938 405.857421875 547.428710938 c 0,11,12
 529.084960938 708.02734375 529.084960938 708.02734375 559.286132812 714.286132812 c 0,13,14
 593.436523438 717.274414062 593.436523438 717.274414062 627.71484375 717.274414062 c 128,-1,15
 661.9921875 717.274414062 661.9921875 717.274414062 696.142578125 714.286132812 c 0,16,17
 704.387695312 713.131835938 704.387695312 713.131835938 713.052734375 712.961914062 c 128,-1,18
 721.717773438 712.791992188 721.717773438 712.791992188 724.125976562 712.409179688 c 128,-1,19
 726.534179688 712.025390625 726.534179688 712.025390625 728.196289062 709.559570312 c 128,-1,20
 729.857421875 707.094726562 729.857421875 707.094726562 729.857421875 700.571289062 c 0,21,22
 729.857421875 681.486328125 729.857421875 681.486328125 714.450195312 675.258789062 c 128,-1,23
 699.04296875 669.03125 699.04296875 669.03125 682.7890625 672.168945312 c 128,-1,24
 666.53515625 675.306640625 666.53515625 675.306640625 656.71484375 672 c 1,25,26
 656.71484375 214.857421875 656.71484375 214.857421875 644.142578125 145.713867188 c 0,27,28
 637.299804688 109.692382812 637.299804688 109.692382812 566.71484375 111.428710938 c 0,29,30
 558.875976562 111.62109375 558.875976562 111.62109375 544.79296875 110.905273438 c 128,-1,31
 530.709960938 110.188476562 530.709960938 110.188476562 521.291992188 110.087890625 c 128,-1,32
 511.874023438 109.986328125 511.874023438 109.986328125 502.044921875 111.147460938 c 128,-1,33
 492.216796875 112.307617188 492.216796875 112.307617188 487.52734375 116.775390625 c 128,-1,34
 482.837890625 121.243164062 482.837890625 121.243164062 483.571289062 129.142578125 c 0,35,36
 484.409179688 138.17578125 484.409179688 138.17578125 495.607421875 142.162109375 c 128,-1,37
 506.805664062 146.147460938 506.805664062 146.147460938 520.043945312 147.1015625 c 128,-1,38
 533.283203125 148.056640625 533.283203125 148.056640625 545.5546875 156.259765625 c 128,-1,39
 557.825195312 164.463867188 557.825195312 164.463867188 560.428710938 180.857421875 c 0,40,41
 567.577148438 227.44921875 567.577148438 227.44921875 571.064453125 297.349609375 c 128,-1,42
 574.55078125 367.250976562 574.55078125 367.250976562 576.555664062 462.5546875 c 128,-1,43
 578.559570312 557.858398438 578.559570312 557.858398438 580.142578125 595.428710938 c 2,44,-1
 580.142578125 674 l 1,45,46
 563.227539062 666.124023438 563.227539062 666.124023438 543.471679688 649.883789062 c 128,-1,47
 523.71484375 633.642578125 523.71484375 633.642578125 512.71484375 618.571289062 c 0,48,49
 493.487304688 595.416992188 493.487304688 595.416992188 435.091796875 518.916015625 c 128,-1,50
 376.696289062 442.415039062 376.696289062 442.415039062 356.428710938 418.571289062 c 0,51,52
 350.4296875 410.571289062 350.4296875 410.571289062 340.428710938 410.571289062 c 128,-1,53
 330.427734375 410.571289062 330.427734375 410.571289062 324.428710938 418.571289062 c 2,54,-1
 200.71484375 658.857421875 l 1,55,56
 198.706054688 353.723632812 198.706054688 353.723632812 194.428710938 67.4287109375 c 0,57,58
 194.428710938 37.5439453125 194.428710938 37.5439453125 219.454101562 32.75 c 0,59,60
 247.0859375 27.45703125 247.0859375 27.45703125 264.803710938 57.908203125 c 0,61,62
 269.59375 66.1416015625 269.59375 66.1416015625 272.428710938 76.2861328125 c 0,63,64
 277.983398438 95.1220703125 277.983398438 95.1220703125 278.642578125 113.928710938 c 128,-1,65
 279.302734375 132.734375 279.302734375 132.734375 272.428710938 139.142578125 c 0,66,67
 252.428710938 150.572265625 252.428710938 150.572265625 252.428710938 173.142578125 c 0,68,69
 252.428710938 213.713867188 252.428710938 213.713867188 288.428710938 213.713867188 c 0,70,71
 313.165039062 213.713867188 313.165039062 213.713867188 320.29296875 191.176757812 c 128,-1,72
 327.419921875 168.639648438 327.419921875 168.639648438 326.71484375 113.142578125 c 0,73,74
 325.70703125 33.89453125 325.70703125 33.89453125 234.71484375 -20.5712890625 c 0,75,76
 212.208984375 -36.8837890625 212.208984375 -36.8837890625 184.412109375 -36.8837890625 c 0,77,78
 157.984375 -36.8837890625 157.984375 -36.8837890625 136.142578125 -22 c 0,79,80
 124.197265625 -14.5673828125 124.197265625 -14.5673828125 118.77734375 4.2646484375 c 128,-1,81
 113.358398438 23.095703125 113.358398438 23.095703125 113.793945312 45.2587890625 c 128,-1,82
 114.229492188 67.4228515625 114.229492188 67.4228515625 114.71484375 92.2861328125 c 0,83,84
 116.74609375 144.984375 116.74609375 144.984375 119.389648438 289.198242188 c 128,-1,85
 122.032226562 433.413085938 122.032226562 433.413085938 123.659179688 551.27734375 c 2,86,-1
 125.286132812 669.142578125 l 2,87,88
 124.288085938 669.026367188 124.288085938 669.026367188 122.545898438 668.848632812 c 128,-1,89
 120.802734375 668.671875 120.802734375 668.671875 115.461914062 668.286132812 c 128,-1,90
 110.12109375 667.901367188 110.12109375 667.901367188 104.93359375 667.708984375 c 128,-1,91
 99.7470703125 667.517578125 99.7470703125 667.517578125 92.6953125 667.602539062 c 128,-1,92
 85.64453125 667.6875 85.64453125 667.6875 79.5908203125 668.206054688 c 128,-1,93
 73.537109375 668.724609375 73.537109375 668.724609375 67.3525390625 670.004882812 c 128,-1,94
 61.1669921875 671.284179688 61.1669921875 671.284179688 56.82421875 673.237304688 c 128,-1,95
 52.48046875 675.190429688 52.48046875 675.190429688 49.740234375 678.388671875 c 128,-1,96
 47 681.586914062 47 681.586914062 47 685.713867188 c 0,97,98
 47.12109375 693.729492188 47.12109375 693.729492188 50.2275390625 699.096679688 c 128,-1,99
 53.333984375 704.46484375 53.333984375 704.46484375 59.5283203125 707.622070312 c 128,-1,100
 65.7216796875 710.779296875 65.7216796875 710.779296875 75.060546875 712.34375 c 128,-1,101
 84.3994140625 713.907226562 84.3994140625 713.907226562 96.986328125 714.315429688 c 128,-1,102
 109.572265625 714.724609375 109.572265625 714.724609375 125.463867188 714.59375 c 128,-1,103
 141.354492188 714.463867188 141.354492188 714.463867188 160.653320312 714.232421875 c 128,-1,104
 179.951171875 714.000976562 179.951171875 714.000976562 202.71484375 714.286132812 c 0,0,1
EndSplineSet
Substitution2: "Single Substitution lookup 54 subtable" M.ss01
Substitution2: "'ss01' Style Set 1 lookup 44 subtable" M.ss01
Substitution2: "'c2sc' Capitals to Small Capitals lookup 35 subtable" m.sc
AlternateSubs2: "'aalt' Access All Alternates lookup 1 subtable" m.sc M.ss01
Position2: "'cpsp' Capital Spacing lookup 0 subtable" dx=10 dy=0 dh=20 dv=0
EndChar

StartChar: N
Encoding: 78 78 85
Width: 807
GlyphClass: 2
Flags: W
LayerCount: 2
Fore
SplineSet
357.828125 462.857421875 m 1,0,1
 375.578125 462.857421875 375.578125 462.857421875 443.649414062 458.142578125 c 128,-1,2
 511.720703125 453.428710938 511.720703125 453.428710938 513.828125 453.428710938 c 0,3,4
 518.935546875 453.428710938 518.935546875 453.428710938 564.864257812 458.142578125 c 128,-1,5
 610.791992188 462.857421875 610.791992188 462.857421875 613.541992188 462.857421875 c 0,6,7
 633.749023438 462.857421875 633.749023438 462.857421875 655.23046875 458.783203125 c 128,-1,8
 676.711914062 454.708984375 676.711914062 454.708984375 700.090820312 445.422851562 c 128,-1,9
 723.469726562 436.135742188 723.469726562 436.135742188 739.66796875 417.014648438 c 128,-1,10
 755.866210938 397.89453125 755.866210938 397.89453125 758.685546875 371.713867188 c 0,11,12
 759.955078125 358.294921875 759.955078125 358.294921875 759.955078125 344.801757812 c 0,13,14
 759.955078125 308.685546875 759.955078125 308.685546875 750.970703125 273.713867188 c 0,15,16
 747.477539062 253.0859375 747.477539062 253.0859375 737.18359375 237.538085938 c 128,-1,17
 726.888671875 221.989257812 726.888671875 221.989257812 709.99609375 213.090820312 c 128,-1,18
 693.102539062 204.19140625 693.102539062 204.19140625 677.8359375 198.590820312 c 128,-1,19
 662.569335938 192.990234375 662.569335938 192.990234375 639.77734375 190.924804688 c 128,-1,20
 616.985351562 188.859375 616.985351562 188.859375 604.872070312 188.400390625 c 128,-1,21
 592.7578125 187.940429688 592.7578125 187.940429688 572.81640625 187.989257812 c 0,22,23
 568.646484375 188 568.646484375 188 566.685546875 188 c 0,24,25
 563.541992188 188 563.541992188 188 471.828125 197.428710938 c 128,-1,26
 380.114257812 206.857421875 380.114257812 206.857421875 376.970703125 206.857421875 c 0,27,28
 376.291992188 206.857421875 376.291992188 206.857421875 322.224609375 208.040039062 c 128,-1,29
 268.157226562 209.223632812 268.157226562 209.223632812 212.479492188 210.150390625 c 128,-1,30
 156.80078125 211.077148438 156.80078125 211.077148438 146.685546875 210.571289062 c 0,31,32
 139.725585938 210.571289062 139.725585938 210.571289062 126.259765625 209.629882812 c 128,-1,33
 112.79296875 208.688476562 112.79296875 208.688476562 105.021484375 208.606445312 c 128,-1,34
 97.25 208.525390625 97.25 208.525390625 86.294921875 211.24609375 c 128,-1,35
 75.33984375 213.967773438 75.33984375 213.967773438 66.11328125 220.286132812 c 0,36,37
 50 231.638671875 50 231.638671875 50 251.349609375 c 0,38,39
 50 252.818359375 50 252.818359375 50.11328125 254.286132812 c 0,40,41
 51.3896484375 277.844726562 51.3896484375 277.844726562 68.8017578125 297.015625 c 128,-1,42
 86.21484375 316.185546875 86.21484375 316.185546875 109.541992188 319.713867188 c 0,43,44
 113.564453125 319.713867188 113.564453125 319.713867188 132.986328125 304.26171875 c 128,-1,45
 152.408203125 288.80859375 152.408203125 288.80859375 164.11328125 286 c 0,46,47
 185.734375 281.891601562 185.734375 281.891601562 255.399414062 273.37109375 c 128,-1,48
 325.064453125 264.849609375 325.064453125 264.849609375 344.399414062 264 c 0,49,50
 362.291992188 264 362.291992188 264 445.649414062 260.857421875 c 128,-1,51
 529.006835938 257.713867188 529.006835938 257.713867188 531.256835938 257.713867188 c 0,52,53
 535.584960938 257.713867188 535.584960938 257.713867188 600.11328125 265.428710938 c 0,54,55
 608.791015625 266.439453125 608.791015625 266.439453125 615.495117188 268.716796875 c 128,-1,56
 622.19921875 270.993164062 622.19921875 270.993164062 626.881835938 276.58984375 c 128,-1,57
 631.564453125 282.1875 631.564453125 282.1875 634.423828125 284.856445312 c 128,-1,58
 637.283203125 287.525390625 637.283203125 287.525390625 639.663085938 297.033203125 c 128,-1,59
 642.043945312 306.541015625 642.043945312 306.541015625 642.657226562 308.413085938 c 128,-1,60
 643.270507812 310.28515625 643.270507812 310.28515625 644.948242188 322.513671875 c 128,-1,61
 646.625 334.743164062 646.625 334.743164062 646.685546875 335.142578125 c 0,62,63
 646.828125 337.3125 646.828125 337.3125 646.828125 339.5078125 c 0,64,65
 646.828125 363.458984375 646.828125 363.458984375 630.04296875 382.7734375 c 128,-1,66
 613.258789062 402.087890625 613.258789062 402.087890625 589.541992188 405.428710938 c 0,67,68
 569.990234375 407.459960938 569.990234375 407.459960938 427.256835938 411.142578125 c 0,69,70
 424.774414062 411.142578125 424.774414062 411.142578125 400.578125 409.94140625 c 128,-1,71
 376.380859375 408.741210938 376.380859375 408.741210938 356.60546875 409.17578125 c 128,-1,72
 336.829101562 409.610351562 336.829101562 409.610351562 311.461914062 412.05859375 c 128,-1,73
 286.095703125 414.506835938 286.095703125 414.506835938 267.352539062 422.880859375 c 128,-1,74
 248.609375 431.254882812 248.609375 431.254882812 240.399414062 444.857421875 c 0,75,76
 231.471679688 459.298828125 231.471679688 459.298828125 240.901367188 480.283203125 c 128,-1,77
 250.331054688 501.267578125 250.331054688 501.267578125 271.256835938 488.286132812 c 0,78,79
 312.043945312 468.580078125 312.043945312 468.580078125 357.828125 462.857421875 c 1,0,1
EndSplineSet
Substitution2: "'c2sc' Capitals to Small Capitals lookup 35 subtable" n.sc
Substitution2: "'aalt' Access All Alternates lookup 0 subtable" n.sc
Position2: "'cpsp' Capital Spacing lookup 0 subtable" dx=10 dy=0 dh=20 dv=0
EndChar

StartChar: Nacute
Encoding: 323 323 87
Width: 818
GlyphClass: 2
Flags: W
AnchorPoint: "Anchor-17" 5 0 basechar 0
AnchorPoint: "Anchor-16" 5 0 basechar 0
AnchorPoint: "Anchor-15" 409 775 basechar 0
AnchorPoint: "Anchor-14" 5 0 basechar 0
AnchorPoint: "Anchor-13" 367 0 basechar 0
LayerCount: 2
Fore
SplineSet
308 529 m 1
 299 563 l 1
 394 609 394 609 509 670 c 1
 519 664 l 1
 539 604 l 1
 535 593 l 1
 423 559 423 559 319 523 c 1
 308 529 l 1
EndSplineSet
Refer: 85 78 N 1 0 0 1 5 0 0
Substitution2: "'c2sc' Capitals to Small Capitals lookup 35 subtable" nacute.sc
Substitution2: "'aalt' Access All Alternates lookup 0 subtable" nacute.sc
Position2: "'cpsp' Capital Spacing lookup 0 subtable" dx=10 dy=0 dh=20 dv=0
EndChar

StartChar: Ncaron
Encoding: 327 327 88
Width: 818
GlyphClass: 2
Flags: W
AnchorPoint: "Anchor-17" 5 0 basechar 0
AnchorPoint: "Anchor-16" 5 0 basechar 0
AnchorPoint: "Anchor-15" 379 774 basechar 0
AnchorPoint: "Anchor-14" 5 0 basechar 0
AnchorPoint: "Anchor-13" 367 0 basechar 0
LayerCount: 2
Fore
SplineSet
291 617 m 1
 309 648 l 1
 321 650 l 1
 392 611 392 611 445 588 c 1
 491 608 491 608 569 650 c 1
 581 648 l 1
 599 617 l 1
 533 569 533 569 453 501 c 1
 437 501 l 1
 356 569 356 569 291 617 c 1
EndSplineSet
Refer: 85 78 N 1 0 0 1 5 0 0
Substitution2: "'c2sc' Capitals to Small Capitals lookup 35 subtable" ncaron.sc
Substitution2: "'aalt' Access All Alternates lookup 0 subtable" ncaron.sc
Position2: "'cpsp' Capital Spacing lookup 0 subtable" dx=10 dy=0 dh=20 dv=0
EndChar

StartChar: Eng
Encoding: 330 330 90
Width: 807
Flags: W
LayerCount: 2
Fore
SplineSet
506 87 m 1,0,-1
 509 96 l 1,1,2
 554 119 554 119 579 147.5 c 0,3,4
 604 176 604 176 615 215 c 1,5,-1
 742 248 l 1,6,-1
 726 220 l 0,7,8
 627 85 627 85 527 51 c 1,9,-1
 506 87 l 1,0,-1
EndSplineSet
Refer: 85 78 N 1 0 0 1 0 0 2
Substitution2: "'c2sc' Capitals to Small Capitals lookup 35 subtable" eng.sc
Substitution2: "'aalt' Access All Alternates lookup 0 subtable" eng.sc
Position2: "'cpsp' Capital Spacing lookup 0 subtable" dx=10 dy=0 dh=20 dv=0
EndChar

StartChar: Ntilde
Encoding: 209 209 92
Width: 816
GlyphClass: 2
Flags: W
AnchorPoint: "Anchor-17" 3 0 basechar 0
AnchorPoint: "Anchor-16" 3 0 basechar 0
AnchorPoint: "Anchor-15" 378 826 basechar 0
AnchorPoint: "Anchor-14" 3 0 basechar 0
AnchorPoint: "Anchor-13" 365 0 basechar 0
LayerCount: 2
Fore
SplineSet
273 621 m 1
 273 628 l 1
 350 715 l 1
 367 719 l 1
 386 719 386 719 446 701 c 0
 502 685 502 685 514 685 c 256
 526 685 526 685 543.5 699 c 0
 561 713 561 713 578 733 c 1
 586 733 l 1
 616 705 l 1
 616 698 l 1
 539 612 l 1
 523 608 l 1
 503 608 503 608 443 626 c 0
 391 641 391 641 375 641 c 0
 363 641 363 641 345.5 627 c 0
 328 613 328 613 311 593 c 1
 303 593 l 1
 273 621 l 1
EndSplineSet
Refer: 85 78 N 1 0 0 1 3 0 0
Substitution2: "'c2sc' Capitals to Small Capitals lookup 35 subtable" ntilde.sc
Substitution2: "'aalt' Access All Alternates lookup 0 subtable" ntilde.sc
Position2: "'cpsp' Capital Spacing lookup 0 subtable" dx=10 dy=0 dh=20 dv=0
EndChar

StartChar: O
Encoding: 79 79 93
Width: 768
GlyphClass: 2
Flags: W
LayerCount: 2
Fore
SplineSet
219.125976562 766.571289062 m 0,0,1
 233.452148438 766.338867188 233.452148438 766.338867188 257.18359375 766.235351562 c 0,2,3
 294.6015625 766.072265625 294.6015625 766.072265625 307.341796875 764.435546875 c 128,-1,4
 320.08203125 762.798828125 320.08203125 762.798828125 320.5546875 755.713867188 c 0,5,6
 321.524414062 746.014648438 321.524414062 746.014648438 313.674804688 741.515625 c 128,-1,7
 305.825195312 737.015625 305.825195312 737.015625 295.70703125 736.885742188 c 128,-1,8
 285.587890625 736.756835938 285.587890625 736.756835938 276.43359375 735.104492188 c 128,-1,9
 267.280273438 733.453125 267.280273438 733.453125 266.268554688 728.857421875 c 2,10,-1
 253.983398438 608 l 1,11,-1
 556.268554688 641.713867188 l 1,12,13
 557.233398438 654.739257812 557.233398438 654.739257812 559.311523438 674.399414062 c 128,-1,14
 561.389648438 694.05859375 561.389648438 694.05859375 569.702148438 729.600585938 c 128,-1,15
 578.015625 765.142578125 578.015625 765.142578125 588.5546875 770.857421875 c 0,16,17
 602.985351562 777.064453125 602.985351562 777.064453125 618.697265625 777.064453125 c 128,-1,18
 634.41015625 777.064453125 634.41015625 777.064453125 648.840820312 770.857421875 c 0,19,20
 651.935546875 769.471679688 651.935546875 769.471679688 654.19140625 766.467773438 c 128,-1,21
 656.447265625 763.46484375 656.447265625 763.46484375 657.584960938 758.6015625 c 128,-1,22
 658.72265625 753.73828125 658.72265625 753.73828125 659.463867188 749.158203125 c 128,-1,23
 660.204101562 744.578125 660.204101562 744.578125 659.971679688 737.432617188 c 128,-1,24
 659.739257812 730.287109375 659.739257812 730.287109375 659.572265625 725.499023438 c 128,-1,25
 659.404296875 720.7109375 659.404296875 720.7109375 658.408203125 712.651367188 c 128,-1,26
 657.412109375 704.592773438 657.412109375 704.592773438 656.942382812 700.96484375 c 128,-1,27
 656.473632812 697.337890625 656.473632812 697.337890625 655.3203125 689.733398438 c 128,-1,28
 654.166992188 682.12890625 654.166992188 682.12890625 653.983398438 680.857421875 c 0,29,30
 641.900390625 581.384765625 641.900390625 581.384765625 617.623046875 441.833007812 c 128,-1,31
 593.345703125 302.28125 593.345703125 302.28125 571.125976562 204.571289062 c 0,32,33
 567.451171875 184.859375 567.451171875 184.859375 513.983398438 180 c 0,34,35
 392.584960938 168.495117188 392.584960938 168.495117188 336.001953125 155.853515625 c 128,-1,36
 279.418945312 143.211914062 279.418945312 143.211914062 248.5546875 125.713867188 c 0,37,38
 225.802734375 112.815429688 225.802734375 112.815429688 193.837890625 87.619140625 c 128,-1,39
 161.873046875 62.423828125 161.873046875 62.423828125 135.271484375 29.046875 c 128,-1,40
 108.669921875 -4.3291015625 108.669921875 -4.3291015625 117.125976562 -23.7138671875 c 0,41,42
 124.212890625 -40.9072265625 124.212890625 -40.9072265625 142.48828125 -46.87890625 c 128,-1,43
 160.763671875 -52.849609375 160.763671875 -52.849609375 177.478515625 -49.7880859375 c 128,-1,44
 194.193359375 -46.7255859375 194.193359375 -46.7255859375 202.840820312 -40 c 0,45,46
 213.4140625 -32.01171875 213.4140625 -32.01171875 207.919921875 -18.8994140625 c 128,-1,47
 202.42578125 -5.787109375 202.42578125 -5.787109375 195.856445312 5.3759765625 c 128,-1,48
 189.287109375 16.5390625 189.287109375 16.5390625 202.840820312 32.5712890625 c 0,49,50
 210.173828125 41.9453125 210.173828125 41.9453125 247.412109375 35.2861328125 c 128,-1,51
 284.649414062 28.626953125 284.649414062 28.626953125 291.125976562 10.5712890625 c 0,52,53
 300.319335938 -15.0908203125 300.319335938 -15.0908203125 260.989257812 -44.2919921875 c 128,-1,54
 221.659179688 -73.494140625 221.659179688 -73.494140625 183.412109375 -84.857421875 c 0,55,56
 161.702148438 -94.2431640625 161.702148438 -94.2431640625 138.053710938 -94.2431640625 c 0,57,58
 104.682617188 -94.2431640625 104.682617188 -94.2431640625 76.5546875 -76.2861328125 c 0,59,60
 63.0771484375 -67.4599609375 63.0771484375 -67.4599609375 53.5380859375 -49.8115234375 c 128,-1,61
 44 -32.1630859375 44 -32.1630859375 44 -16.0517578125 c 0,62,63
 44 6.2021484375 44 6.2021484375 56.5546875 24.5712890625 c 0,64,65
 75.892578125 64.2236328125 75.892578125 64.2236328125 135.30859375 101.25390625 c 128,-1,66
 194.723632812 138.284179688 194.723632812 138.284179688 259.412109375 161.713867188 c 0,67,68
 302.924804688 177.46875 302.924804688 177.46875 365.4375 191.075195312 c 128,-1,69
 427.950195312 204.681640625 427.950195312 204.681640625 458.814453125 215.305664062 c 128,-1,70
 489.678710938 225.9296875 489.678710938 225.9296875 493.983398438 244.286132812 c 0,71,72
 518.489257812 337.1484375 518.489257812 337.1484375 529.412109375 432.571289062 c 2,73,-1
 551.125976562 600 l 1,74,75
 361.205078125 576.262695312 361.205078125 576.262695312 255.697265625 564.286132812 c 1,76,77
 246.903320312 427.487304688 246.903320312 427.487304688 232.840820312 408.286132812 c 0,78,79
 223.0703125 394.987304688 223.0703125 394.987304688 206.879882812 393.208007812 c 128,-1,80
 190.690429688 391.427734375 190.690429688 391.427734375 178.705078125 400.221679688 c 128,-1,81
 166.719726562 409.015625 166.719726562 409.015625 167.412109375 422.857421875 c 0,82,83
 173.749023438 557.76953125 173.749023438 557.76953125 178.297851562 635.040039062 c 128,-1,84
 182.84765625 712.310546875 182.84765625 712.310546875 183.412109375 725.713867188 c 0,85,86
 183.733398438 730.890625 183.733398438 730.890625 174.532226562 731.28125 c 128,-1,87
 165.331054688 731.670898438 165.331054688 731.670898438 154.161132812 729.321289062 c 128,-1,88
 142.9921875 726.971679688 142.9921875 726.971679688 133.629882812 731.701171875 c 128,-1,89
 124.268554688 736.430664062 124.268554688 736.430664062 124.268554688 750.286132812 c 0,90,91
 123.9296875 766.571289062 123.9296875 766.571289062 219.125976562 766.571289062 c 0,0,1
712.840820312 359.713867188 m 0,92,93
 722.260742188 358.772460938 722.260742188 358.772460938 722.625976562 340.821289062 c 128,-1,94
 722.991210938 322.870117188 722.991210938 322.870117188 719.125976562 304.571289062 c 0,95,96
 714.094726562 270.227539062 714.094726562 270.227539062 694.125976562 263.857421875 c 128,-1,97
 674.157226562 257.487304688 674.157226562 257.487304688 659.697265625 288.286132812 c 0,98,99
 657.1328125 296.374023438 657.1328125 296.374023438 657.1328125 304.86328125 c 0,100,101
 657.1328125 327.57421875 657.1328125 327.57421875 673.206054688 343.647460938 c 128,-1,102
 689.279296875 359.720703125 689.279296875 359.720703125 711.990234375 359.720703125 c 0,103,104
 712.428710938 359.720703125 712.428710938 359.720703125 712.840820312 359.713867188 c 0,92,93
EndSplineSet
Substitution2: "Single Substitution lookup 51 subtable" ordmasculine
Substitution2: "'c2sc' Capitals to Small Capitals lookup 35 subtable" o.sc
AlternateSubs2: "'aalt' Access All Alternates lookup 1 subtable" ordmasculine o.sc
Position2: "'cpsp' Capital Spacing lookup 0 subtable" dx=10 dy=0 dh=20 dv=0
EndChar

StartChar: Oacute
Encoding: 211 211 94
Width: 775
GlyphClass: 2
Flags: W
LayerCount: 2
Fore
SplineSet
357 732 m 1
 348 766 l 1
 443 812 443 812 558 873 c 1
 568 867 l 1
 588 807 l 1
 584 796 l 1
 472 762 472 762 368 726 c 1
 357 732 l 1
EndSplineSet
Refer: 93 79 N 1 0 0 1 1 0 0
Substitution2: "'c2sc' Capitals to Small Capitals lookup 35 subtable" oacute.sc
Substitution2: "'aalt' Access All Alternates lookup 0 subtable" oacute.sc
Position2: "'cpsp' Capital Spacing lookup 0 subtable" dx=10 dy=0 dh=20 dv=0
EndChar

StartChar: uni01D1
Encoding: 465 465 96
Width: 776
GlyphClass: 2
Flags: W
AnchorPoint: "Anchor-17" 668 639 basechar 0
AnchorPoint: "Anchor-16" 346 320 basechar 0
AnchorPoint: "Anchor-15" 342 774 basechar 0
AnchorPoint: "Anchor-14" 620 10 basechar 0
AnchorPoint: "Anchor-13" 346 0 basechar 0
LayerCount: 2
Fore
SplineSet
300 816 m 1
 318 847 l 1
 330 849 l 1
 401 810 401 810 454 787 c 1
 500 807 500 807 578 849 c 1
 590 847 l 1
 608 816 l 1
 542 768 542 768 462 700 c 1
 446 700 l 1
 365 768 365 768 300 816 c 1
EndSplineSet
Refer: 93 79 N 1 0 0 1 4 0 0
Substitution2: "'c2sc' Capitals to Small Capitals lookup 35 subtable" uni01D2.sc
Substitution2: "'aalt' Access All Alternates lookup 0 subtable" uni01D2.sc
Position2: "'cpsp' Capital Spacing lookup 0 subtable" dx=10 dy=0 dh=20 dv=0
EndChar

StartChar: Ocircumflex
Encoding: 212 212 97
Width: 775
GlyphClass: 2
Flags: W
AnchorPoint: "Anchor-17" 665 639 basechar 0
AnchorPoint: "Anchor-16" 343 320 basechar 0
AnchorPoint: "Anchor-15" 340 859 basechar 0
AnchorPoint: "Anchor-14" 617 10 basechar 0
AnchorPoint: "Anchor-13" 343 0 basechar 0
LayerCount: 2
Fore
SplineSet
304 777 m 1
 286 807 l 1
 352 856 352 856 432 924 c 1
 448 924 l 1
 471 905 l 2
 486 893 486 893 524.5 861.5 c 0
 563 830 563 830 594 807 c 1
 576 777 l 1
 564 775 l 1
 499 810 499 810 440 837 c 1
 373 806 373 806 316 775 c 1
 304 777 l 1
EndSplineSet
Refer: 93 79 N 1 0 0 1 1 0 0
Substitution2: "'c2sc' Capitals to Small Capitals lookup 35 subtable" ocircumflex.sc
Substitution2: "'aalt' Access All Alternates lookup 0 subtable" ocircumflex.sc
Position2: "'cpsp' Capital Spacing lookup 0 subtable" dx=10 dy=0 dh=20 dv=0
EndChar

StartChar: uni020C
Encoding: 524 524 98
Width: 773
GlyphClass: 2
Flags: W
AnchorPoint: "Anchor-17" 665 639 basechar 0
AnchorPoint: "Anchor-16" 343 320 basechar 0
AnchorPoint: "Anchor-15" 314 838 basechar 0
AnchorPoint: "Anchor-14" 617 10 basechar 0
AnchorPoint: "Anchor-13" 343 0 basechar 0
LayerCount: 2
Fore
SplineSet
374 850 m 1
 372 860 l 1
 403 911 l 1
 413 914 l 1
 496 844 496 844 565 789 c 1
 550 763 l 1
 540 758 l 1
 460 805 460 805 374 850 c 1
222 842 m 1
 220 853 l 1
 251 903 l 1
 261 907 l 1
 344 837 344 837 413 782 c 1
 397 755 l 1
 388 751 l 1
 308 798 308 798 222 842 c 1
EndSplineSet
Refer: 93 79 N 1 0 0 1 1 0 0
Substitution2: "'c2sc' Capitals to Small Capitals lookup 35 subtable" uni020D.sc
Substitution2: "'aalt' Access All Alternates lookup 0 subtable" uni020D.sc
Position2: "'cpsp' Capital Spacing lookup 0 subtable" dx=10 dy=0 dh=20 dv=0
EndChar

StartChar: Odieresis
Encoding: 214 214 99
Width: 775
GlyphClass: 2
Flags: W
AnchorPoint: "Anchor-17" 665 639 basechar 0
AnchorPoint: "Anchor-16" 343 320 basechar 0
AnchorPoint: "Anchor-15" 340 817 basechar 0
AnchorPoint: "Anchor-14" 617 10 basechar 0
AnchorPoint: "Anchor-13" 343 0 basechar 0
LayerCount: 2
Fore
SplineSet
328 779.5 m 0
 315 794 315 794 315 815 c 0
 315 840 315 840 331 856.5 c 0
 347 873 347 873 372 873 c 0
 395 873 395 873 408 858.5 c 0
 421 844 421 844 421 822 c 0
 421 798 421 798 405 781.5 c 0
 389 765 389 765 364 765 c 0
 341 765 341 765 328 779.5 c 0
499 779.5 m 0
 486 794 486 794 486 815 c 0
 486 840 486 840 502 856.5 c 0
 518 873 518 873 543 873 c 0
 566 873 566 873 579 858.5 c 0
 592 844 592 844 592 822 c 0
 592 798 592 798 576 781.5 c 0
 560 765 560 765 535 765 c 0
 512 765 512 765 499 779.5 c 0
EndSplineSet
Refer: 93 79 N 1 0 0 1 1 0 0
LCarets2: 1 0
Ligature2: "'liga' Standard Ligatures lookup 39 subtable" dieresis O
Substitution2: "'c2sc' Capitals to Small Capitals lookup 35 subtable" odieresis.sc
Substitution2: "'aalt' Access All Alternates lookup 0 subtable" odieresis.sc
Position2: "'cpsp' Capital Spacing lookup 0 subtable" dx=10 dy=0 dh=20 dv=0
EndChar

StartChar: uni022A
Encoding: 554 554 100
Width: 773
GlyphClass: 2
Flags: W
AnchorPoint: "Anchor-17" 665 639 basechar 0
AnchorPoint: "Anchor-16" 343 320 basechar 0
AnchorPoint: "Anchor-15" 343 957 basechar 0
AnchorPoint: "Anchor-14" 617 10 basechar 0
AnchorPoint: "Anchor-13" 343 0 basechar 0
LayerCount: 2
Fore
SplineSet
297 938 m 1
 309 996 l 1
 463 995 l 2
 511 995 511 995 591 1001 c 1
 598 989 l 1
 589 929 l 1
 447 928 l 1
 305 927 l 1
 297 938 l 1
320 788.5 m 0
 307 803 307 803 307 825 c 0
 307 849 307 849 323 865.5 c 0
 339 882 339 882 364 882 c 0
 387 882 387 882 400 867.5 c 0
 413 853 413 853 413 832 c 0
 413 807 413 807 397 790.5 c 0
 381 774 381 774 356 774 c 0
 333 774 333 774 320 788.5 c 0
491 788.5 m 0
 478 803 478 803 478 825 c 0
 478 849 478 849 494 865.5 c 0
 510 882 510 882 535 882 c 0
 558 882 558 882 571 867.5 c 0
 584 853 584 853 584 832 c 0
 584 807 584 807 568 790.5 c 0
 552 774 552 774 527 774 c 0
 504 774 504 774 491 788.5 c 0
EndSplineSet
Refer: 93 79 N 1 0 0 1 1 0 0
Substitution2: "'c2sc' Capitals to Small Capitals lookup 35 subtable" uni022B.sc
Substitution2: "'aalt' Access All Alternates lookup 0 subtable" uni022B.sc
Position2: "'cpsp' Capital Spacing lookup 0 subtable" dx=10 dy=0 dh=20 dv=0
EndChar

StartChar: uni0230
Encoding: 560 560 101
Width: 773
GlyphClass: 2
Flags: W
AnchorPoint: "Anchor-17" 665 639 basechar 0
AnchorPoint: "Anchor-16" 343 320 basechar 0
AnchorPoint: "Anchor-15" 343 911 basechar 0
AnchorPoint: "Anchor-14" 617 10 basechar 0
AnchorPoint: "Anchor-13" 343 0 basechar 0
LayerCount: 2
Fore
SplineSet
296 880 m 1
 308 938 l 1
 462 937 l 2
 510 937 510 937 590 943 c 1
 597 932 l 1
 588 872 l 1
 446 871 l 1
 304 870 l 1
 296 880 l 1
402 739 m 0
 388 755 388 755 388 779 c 0
 388 806 388 806 405.5 824 c 0
 423 842 423 842 451 842 c 0
 476 842 476 842 490.5 826 c 0
 505 810 505 810 505 786 c 0
 505 759 505 759 487.5 741 c 0
 470 723 470 723 442 723 c 0
 416 723 416 723 402 739 c 0
EndSplineSet
Refer: 93 79 N 1 0 0 1 1 0 0
Substitution2: "'c2sc' Capitals to Small Capitals lookup 35 subtable" uni0231.sc
Substitution2: "'aalt' Access All Alternates lookup 0 subtable" uni0231.sc
Position2: "'cpsp' Capital Spacing lookup 0 subtable" dx=10 dy=0 dh=20 dv=0
EndChar

StartChar: Ograve
Encoding: 210 210 102
Width: 775
GlyphClass: 2
Flags: W
AnchorPoint: "Anchor-17" 665 639 basechar 0
AnchorPoint: "Anchor-16" 343 320 basechar 0
AnchorPoint: "Anchor-15" 300 848 basechar 0
AnchorPoint: "Anchor-14" 617 10 basechar 0
AnchorPoint: "Anchor-13" 343 0 basechar 0
LayerCount: 2
Fore
SplineSet
308 790 m 1
 304 801 l 1
 324 861 l 1
 334 867 l 1
 449 806 449 806 544 760 c 1
 534 726 l 1
 524 720 l 1
 420 756 420 756 308 790 c 1
EndSplineSet
Refer: 93 79 N 1 0 0 1 1 0 0
Substitution2: "'c2sc' Capitals to Small Capitals lookup 35 subtable" ograve.sc
Substitution2: "'aalt' Access All Alternates lookup 0 subtable" ograve.sc
Position2: "'cpsp' Capital Spacing lookup 0 subtable" dx=10 dy=0 dh=20 dv=0
EndChar

StartChar: Ohorn
Encoding: 416 416 103
Width: 830
GlyphClass: 2
Flags: W
LayerCount: 2
Fore
SplineSet
627 682 m 5,0,1
 655 682 655 682 673 695 c 4,2,3
 691 708 691 708 691 730 c 4,4,5
 691 747 691 747 682.5 765.5 c 4,6,7
 674 784 674 784 660 797 c 5,8,-1
 662 811 l 5,9,10
 697 841 697 841 727 841 c 4,11,12
 753 841 753 841 769 819 c 4,13,14
 785 797 785 797 785 760 c 4,15,16
 785 727 785 727 766 699 c 4,17,18
 747 671 747 671 715.5 655 c 4,19,20
 684 639 684 639 650 640 c 5,21,-1
 627 682 l 5,0,1
EndSplineSet
Refer: 93 79 N 1 0 0 1 4 0 2
Substitution2: "'c2sc' Capitals to Small Capitals lookup 35 subtable" ohorn.sc
Substitution2: "'aalt' Access All Alternates lookup 0 subtable" ohorn.sc
Position2: "'cpsp' Capital Spacing lookup 0 subtable" dx=10 dy=0 dh=20 dv=0
EndChar

StartChar: Ohungarumlaut
Encoding: 336 336 104
Width: 774
GlyphClass: 2
Flags: W
AnchorPoint: "Anchor-17" 669 639 basechar 0
AnchorPoint: "Anchor-16" 347 320 basechar 0
AnchorPoint: "Anchor-15" 395 838 basechar 0
AnchorPoint: "Anchor-14" 621 10 basechar 0
AnchorPoint: "Anchor-13" 347 0 basechar 0
LayerCount: 2
Fore
SplineSet
301 779 m 1
 286 805 l 1
 354 860 354 860 438 930 c 1
 448 927 l 1
 479 876 l 1
 477 866 l 1
 391 821 391 821 311 774 c 1
 301 779 l 1
453 771 m 1
 438 798 l 1
 506 853 506 853 590 923 c 1
 600 919 l 1
 631 869 l 1
 629 858 l 1
 543 814 543 814 463 767 c 1
 453 771 l 1
EndSplineSet
Refer: 93 79 N 1 0 0 1 5 0 0
Substitution2: "'c2sc' Capitals to Small Capitals lookup 35 subtable" ohungarumlaut.sc
Substitution2: "'aalt' Access All Alternates lookup 0 subtable" ohungarumlaut.sc
Position2: "'cpsp' Capital Spacing lookup 0 subtable" dx=10 dy=0 dh=20 dv=0
EndChar

StartChar: Omacron
Encoding: 332 332 106
Width: 774
GlyphClass: 2
Flags: W
AnchorPoint: "Anchor-17" 669 639 basechar 0
AnchorPoint: "Anchor-16" 347 320 basechar 0
AnchorPoint: "Anchor-15" 344 761 basechar 0
AnchorPoint: "Anchor-14" 621 10 basechar 0
AnchorPoint: "Anchor-13" 347 0 basechar 0
LayerCount: 2
Fore
SplineSet
299 792 m 1
 311 850 l 1
 465 849 l 2
 513 849 513 849 593 855 c 1
 600 844 l 1
 591 784 l 1
 449 783 l 1
 307 782 l 1
 299 792 l 1
EndSplineSet
Refer: 93 79 N 1 0 0 1 5 0 0
Substitution2: "'c2sc' Capitals to Small Capitals lookup 35 subtable" omacron.sc
Substitution2: "'aalt' Access All Alternates lookup 0 subtable" omacron.sc
Position2: "'cpsp' Capital Spacing lookup 0 subtable" dx=10 dy=0 dh=20 dv=0
EndChar

StartChar: uni01EA
Encoding: 490 490 107
Width: 773
GlyphClass: 2
Flags: W
LayerCount: 2
Fore
SplineSet
225 -230.5 m 4,0,1
 246 -224 246 -224 262 -214 c 5,2,-1
 279 -240 l 5,3,4
 255 -263 255 -263 227 -280.5 c 4,5,6
 199 -298 199 -298 176 -305 c 5,7,8
 126 -305 126 -305 94 -279 c 4,9,10
 62 -253 62 -253 62 -212 c 4,11,12
 62 -182 62 -182 79.5 -153.5 c 4,13,14
 97 -125 97 -125 155 -64 c 5,15,-1
 208 -65 l 5,16,17
 167 -113 167 -113 152.5 -138.5 c 4,18,19
 138 -164 138 -164 138 -187 c 260,20,21
 138 -210 138 -210 151.5 -223.5 c 4,22,23
 165 -237 165 -237 188 -237 c 4,24,25
 204 -237 204 -237 225 -230.5 c 4,0,1
EndSplineSet
Refer: 93 79 N 1 0 0 1 1 0 2
Substitution2: "'c2sc' Capitals to Small Capitals lookup 35 subtable" uni01EB.sc
Substitution2: "'aalt' Access All Alternates lookup 0 subtable" uni01EB.sc
Position2: "'cpsp' Capital Spacing lookup 0 subtable" dx=10 dy=0 dh=20 dv=0
EndChar

StartChar: Oslash
Encoding: 216 216 108
Width: 775
GlyphClass: 2
Flags: W
LayerCount: 2
Fore
SplineSet
201 168 m 5,0,-1
 160 184 l 5,1,-1
 157 194 l 5,2,-1
 595 987 l 5,3,-1
 638 970 l 5,4,-1
 641 958 l 5,5,-1
 201 168 l 5,0,-1
EndSplineSet
Refer: 93 79 N 1 0 0 1 4 0 2
Substitution2: "'c2sc' Capitals to Small Capitals lookup 35 subtable" oslash.sc
Substitution2: "'aalt' Access All Alternates lookup 0 subtable" oslash.sc
Position2: "'cpsp' Capital Spacing lookup 0 subtable" dx=10 dy=0 dh=20 dv=0
EndChar

StartChar: Oslashacute
Encoding: 510 510 109
Width: 773
GlyphClass: 2
Flags: W
AnchorPoint: "Anchor-17" 661 639 basechar 0
AnchorPoint: "Anchor-16" 339 320 basechar 0
AnchorPoint: "Anchor-15" 345 777 basechar 0
AnchorPoint: "Anchor-14" 613 10 basechar 0
AnchorPoint: "Anchor-13" 339 0 basechar 0
LayerCount: 2
Fore
SplineSet
219.4453125 829 m 1
 210.4453125 863 l 1
 305.4453125 909 305.4453125 909 420.4453125 970 c 1
 430.4453125 964 l 1
 450.4453125 904 l 1
 446.4453125 893 l 1
 334.4453125 859 334.4453125 859 230.4453125 823 c 1
 219.4453125 829 l 1
EndSplineSet
Refer: 108 216 N 1 0 0 1 -3 0 0
Substitution2: "'c2sc' Capitals to Small Capitals lookup 35 subtable" oslashacute.sc
Substitution2: "'aalt' Access All Alternates lookup 0 subtable" oslashacute.sc
Position2: "'cpsp' Capital Spacing lookup 0 subtable" dx=10 dy=0 dh=20 dv=0
EndChar

StartChar: Otilde
Encoding: 213 213 110
Width: 775
GlyphClass: 2
Flags: W
AnchorPoint: "Anchor-17" 665 639 basechar 0
AnchorPoint: "Anchor-16" 343 320 basechar 0
AnchorPoint: "Anchor-15" 341 826 basechar 0
AnchorPoint: "Anchor-14" 617 10 basechar 0
AnchorPoint: "Anchor-13" 343 0 basechar 0
LayerCount: 2
Fore
SplineSet
278 802 m 1
 278 809 l 1
 355 896 l 1
 372 900 l 1
 391 900 391 900 451 882 c 0
 507 866 507 866 519 866 c 256
 531 866 531 866 548.5 880 c 0
 566 894 566 894 583 914 c 1
 591 914 l 1
 621 886 l 1
 621 879 l 1
 544 793 l 1
 528 789 l 1
 508 789 508 789 448 807 c 0
 396 822 396 822 380 822 c 0
 368 822 368 822 350.5 808 c 0
 333 794 333 794 316 774 c 1
 308 774 l 1
 278 802 l 1
EndSplineSet
Refer: 93 79 N 1 0 0 1 1 0 0
Substitution2: "'c2sc' Capitals to Small Capitals lookup 35 subtable" otilde.sc
Substitution2: "'aalt' Access All Alternates lookup 0 subtable" otilde.sc
Position2: "'cpsp' Capital Spacing lookup 0 subtable" dx=10 dy=0 dh=20 dv=0
EndChar

StartChar: uni022C
Encoding: 556 556 111
Width: 773
GlyphClass: 2
Flags: W
AnchorPoint: "Anchor-17" 665 639 basechar 0
AnchorPoint: "Anchor-16" 343 320 basechar 0
AnchorPoint: "Anchor-15" 343 958 basechar 0
AnchorPoint: "Anchor-14" 617 10 basechar 0
AnchorPoint: "Anchor-13" 343 0 basechar 0
LayerCount: 2
Fore
SplineSet
288 807 m 1
 288 815 l 1
 365 909 l 1
 381 913 l 1
 401 913 401 913 461 895 c 0
 513 880 513 880 529 880 c 0
 540 880 540 880 557.5 896 c 0
 575 912 575 912 593 935 c 1
 601 935 l 1
 631 908 l 1
 631 900 l 1
 554 806 l 1
 537 802 l 1
 518 802 518 802 458 820 c 0
 449 822 449 822 424.5 828.5 c 0
 400 835 400 835 390 835 c 0
 378 835 378 835 360.5 818.5 c 0
 343 802 343 802 326 779 c 1
 318 779 l 1
 288 807 l 1
309 983 m 1
 321 1041 l 1
 475 1040 l 2
 523 1040 523 1040 603 1046 c 1
 610 1035 l 1
 601 975 l 1
 459 974 l 1
 317 973 l 1
 309 983 l 1
EndSplineSet
Refer: 93 79 N 1 0 0 1 1 0 0
Substitution2: "'c2sc' Capitals to Small Capitals lookup 35 subtable" uni022D.sc
Substitution2: "'aalt' Access All Alternates lookup 0 subtable" uni022D.sc
Position2: "'cpsp' Capital Spacing lookup 0 subtable" dx=10 dy=0 dh=20 dv=0
EndChar

StartChar: OE
Encoding: 338 338 112
Width: 1212
GlyphClass: 2
Flags: W
LayerCount: 2
Fore
SplineSet
1130.53417969 0 m 0,0,1
 778.12890625 8.5751953125 778.12890625 8.5751953125 661.106445312 9.7138671875 c 0,2,3
 658.674804688 9.7138671875 658.674804688 9.7138671875 644.482421875 4.67578125 c 128,-1,4
 630.291015625 -0.361328125 630.291015625 -0.361328125 623.106445312 -1.142578125 c 0,5,6
 609.145507812 -2.66015625 609.145507812 -2.66015625 619.303710938 18.380859375 c 0,7,8
 621.693359375 23.33203125 621.693359375 23.33203125 624.8203125 27.4287109375 c 0,9,10
 664.811523438 77.0390625 664.811523438 77.0390625 748.879882812 163.903320312 c 128,-1,11
 832.947265625 250.767578125 832.947265625 250.767578125 845.391601562 264.286132812 c 0,12,13
 868.205078125 289.45703125 868.205078125 289.45703125 865.65234375 294.987304688 c 0,14,15
 863.998046875 298.571289062 863.998046875 298.571289062 855.962890625 298.571289062 c 2,16,-1
 643.677734375 300 l 2,17,18
 634.61328125 300.497070312 634.61328125 300.497070312 625.534179688 300.497070312 c 128,-1,19
 616.456054688 300.497070312 616.456054688 300.497070312 607.391601562 300 c 1,20,21
 592.987304688 222.122070312 592.987304688 222.122070312 573.106445312 140.571289062 c 0,22,23
 568.688476562 121.953125 568.688476562 121.953125 515.962890625 116 c 0,24,25
 395.037109375 104.737304688 395.037109375 104.737304688 338.608398438 92.068359375 c 128,-1,26
 282.180664062 79.400390625 282.180664062 79.400390625 250.249023438 61.7138671875 c 0,27,28
 227.4921875 49.1103515625 227.4921875 49.1103515625 195.319335938 23.6865234375 c 128,-1,29
 163.147460938 -1.736328125 163.147460938 -1.736328125 136.892578125 -35.01953125 c 128,-1,30
 110.638671875 -68.3037109375 110.638671875 -68.3037109375 119.106445312 -87.7138671875 c 0,31,32
 126.592773438 -104.919921875 126.592773438 -104.919921875 144.995117188 -110.94140625 c 128,-1,33
 163.3984375 -116.962890625 163.3984375 -116.962890625 180.07421875 -113.8203125 c 128,-1,34
 196.75 -110.677734375 196.75 -110.677734375 204.8203125 -103.713867188 c 0,35,36
 215.143554688 -95.8544921875 215.143554688 -95.8544921875 209.645507812 -82.7509765625 c 128,-1,37
 204.147460938 -69.6474609375 204.147460938 -69.6474609375 197.708984375 -58.486328125 c 128,-1,38
 191.270507812 -47.3251953125 191.270507812 -47.3251953125 204.8203125 -31.4287109375 c 0,39,40
 211.934570312 -22.041015625 211.934570312 -22.041015625 249.141601562 -28.5712890625 c 128,-1,41
 286.348632812 -35.1015625 286.348632812 -35.1015625 292.8203125 -53.142578125 c 0,42,43
 301.99609375 -79.1416015625 301.99609375 -79.1416015625 263.000976562 -108.124023438 c 128,-1,44
 224.004882812 -137.10546875 224.004882812 -137.10546875 185.391601562 -148.857421875 c 0,45,46
 114.576171875 -170.41015625 114.576171875 -170.41015625 78.5341796875 -140 c 0,47,48
 65.0654296875 -131.213867188 65.0654296875 -131.213867188 55.5322265625 -113.615234375 c 128,-1,49
 46 -96.015625 46 -96.015625 46 -79.9345703125 c 0,50,51
 46 -57.7412109375 46 -57.7412109375 58.5341796875 -39.4287109375 c 0,52,53
 78.181640625 -0.1357421875 78.181640625 -0.1357421875 137.913085938 37.4208984375 c 128,-1,54
 197.64453125 74.9775390625 197.64453125 74.9775390625 261.106445312 97.7138671875 c 0,55,56
 304.6328125 113.434570312 304.6328125 113.434570312 367.239257812 127.077148438 c 128,-1,57
 429.844726562 140.71875 429.844726562 140.71875 460.6875 151.399414062 c 128,-1,58
 491.529296875 162.079101562 491.529296875 162.079101562 495.962890625 180.571289062 c 0,59,60
 519.810546875 273.37109375 519.810546875 273.37109375 530.534179688 368.571289062 c 2,61,-1
 552.249023438 535.713867188 l 1,62,63
 362.041992188 511.119140625 362.041992188 511.119140625 256.534179688 499.428710938 c 1,64,65
 248.759765625 363.34765625 248.759765625 363.34765625 233.962890625 343.428710938 c 0,66,67
 224.060546875 329.86328125 224.060546875 329.86328125 207.803710938 327.963867188 c 128,-1,68
 191.546875 326.064453125 191.546875 326.064453125 179.551757812 334.893554688 c 128,-1,69
 167.556640625 343.72265625 167.556640625 343.72265625 168.249023438 357.713867188 c 0,70,71
 174.717773438 495.434570312 174.717773438 495.434570312 179.510742188 575.706054688 c 128,-1,72
 184.3046875 655.9765625 184.3046875 655.9765625 184.534179688 660.857421875 c 0,73,74
 182.326171875 669.98828125 182.326171875 669.98828125 169.25390625 665.883789062 c 128,-1,75
 156.181640625 661.779296875 156.181640625 661.779296875 140.767578125 664.6875 c 128,-1,76
 125.353515625 667.596679688 125.353515625 667.596679688 125.106445312 685.142578125 c 0,77,78
 125.106445312 702.567382812 125.106445312 702.567382812 220.249023438 701.428710938 c 0,79,80
 229.427734375 701.428710938 229.427734375 701.428710938 245.752929688 701.494140625 c 0,81,82
 290.771484375 701.672851562 290.771484375 701.672851562 306.137695312 700.047851562 c 128,-1,83
 321.502929688 698.421875 321.502929688 698.421875 322.534179688 690.857421875 c 0,84,85
 323.989257812 681.161132812 323.989257812 681.161132812 316.249023438 676.736328125 c 128,-1,86
 308.509765625 672.311523438 308.509765625 672.311523438 298.23046875 672.247070312 c 128,-1,87
 287.951171875 672.181640625 287.951171875 672.181640625 278.606445312 670.486328125 c 128,-1,88
 269.26171875 668.790039062 269.26171875 668.790039062 268.249023438 664 c 2,89,-1
 255.677734375 542.857421875 l 1,90,-1
 559.106445312 577.142578125 l 1,91,92
 560.071289062 590.200195312 560.071289062 590.200195312 562.149414062 609.899414062 c 128,-1,93
 564.2265625 629.59765625 564.2265625 629.59765625 572.5390625 665.1484375 c 128,-1,94
 580.852539062 700.698242188 580.852539062 700.698242188 591.391601562 706.286132812 c 0,95,96
 605.802734375 712.596679688 605.802734375 712.596679688 621.534179688 712.596679688 c 128,-1,97
 637.266601562 712.596679688 637.266601562 712.596679688 651.677734375 706.286132812 c 0,98,99
 669.390625 698.354492188 669.390625 698.354492188 656.534179688 616.286132812 c 0,100,101
 651.05859375 581.962890625 651.05859375 581.962890625 639.891601562 506.796875 c 128,-1,102
 628.723632812 431.630859375 628.723632812 431.630859375 621.962890625 389.713867188 c 1,103,104
 628.549804688 394.780273438 628.549804688 394.780273438 636.517578125 400.720703125 c 128,-1,105
 644.484375 406.66015625 644.484375 406.66015625 655.123046875 414.517578125 c 128,-1,106
 665.76171875 422.374023438 665.76171875 422.374023438 672.534179688 427.428710938 c 0,107,108
 726.192382812 468.508789062 726.192382812 468.508789062 807.060546875 518.73828125 c 128,-1,109
 887.928710938 568.966796875 887.928710938 568.966796875 948.534179688 598.857421875 c 1,110,111
 1013.68261719 636.72265625 1013.68261719 636.72265625 1083.10644531 666 c 0,112,113
 1093.85449219 669.948242188 1093.85449219 669.948242188 1100.8203125 655.25 c 128,-1,114
 1107.78710938 640.551757812 1107.78710938 640.551757812 1097.10644531 634 c 0,115,116
 1077.17089844 622.0390625 1077.17089844 622.0390625 1014.28710938 584.735351562 c 128,-1,117
 951.40234375 547.431640625 951.40234375 547.431640625 922.34375 529.610351562 c 128,-1,118
 893.286132812 511.7890625 893.286132812 511.7890625 843.799804688 480.607421875 c 128,-1,119
 794.313476562 449.424804688 794.313476562 449.424804688 754.737304688 421.504882812 c 128,-1,120
 715.161132812 393.584960938 715.161132812 393.584960938 677.677734375 364.286132812 c 1,121,122
 693.225585938 364.286132812 693.225585938 364.286132812 799.427734375 361.857421875 c 128,-1,123
 905.62890625 359.428710938 905.62890625 359.428710938 921.391601562 362.857421875 c 0,124,125
 943.42578125 364.041992188 943.42578125 364.041992188 957.0703125 349.857421875 c 128,-1,126
 970.713867188 335.671875 970.713867188 335.671875 955.677734375 318 c 0,127,128
 919.401367188 280.600585938 919.401367188 280.600585938 852.682617188 212.998046875 c 128,-1,129
 785.962890625 145.396484375 785.962890625 145.396484375 761.677734375 120.571289062 c 0,130,131
 739.177734375 97.296875 739.177734375 97.296875 738.09375 92.251953125 c 0,132,133
 736.705078125 85.794921875 736.705078125 85.794921875 746.8203125 85.4287109375 c 0,134,135
 800.974609375 83.671875 800.974609375 83.671875 948.456054688 77.9296875 c 128,-1,136
 1095.9375 72.1875 1095.9375 72.1875 1133.39160156 70.857421875 c 0,137,138
 1143.9140625 70.857421875 1143.9140625 70.857421875 1149.69824219 63.5595703125 c 128,-1,139
 1155.48242188 56.2607421875 1155.48242188 56.2607421875 1155.52539062 45.8447265625 c 128,-1,140
 1155.56835938 35.4287109375 1155.56835938 35.4287109375 1152.83496094 25.0126953125 c 128,-1,141
 1150.10058594 14.5966796875 1150.10058594 14.5966796875 1143.85058594 7.2978515625 c 128,-1,142
 1137.60058594 0 1137.60058594 0 1130.53417969 0 c 0,0,1
EndSplineSet
Substitution2: "'c2sc' Capitals to Small Capitals lookup 35 subtable" oe.sc
Substitution2: "'aalt' Access All Alternates lookup 0 subtable" oe.sc
Position2: "'cpsp' Capital Spacing lookup 0 subtable" dx=10 dy=0 dh=20 dv=0
EndChar

StartChar: P
Encoding: 80 80 113
Width: 724
GlyphClass: 2
Flags: W
LayerCount: 2
Fore
SplineSet
680.142578125 519.713867188 m 0,0,1
 680.153320312 518.603515625 680.153320312 518.603515625 680.153320312 517.51953125 c 0,2,3
 680.153320312 474.635742188 680.153320312 474.635742188 657.463867188 424.129882812 c 128,-1,4
 634.774414062 373.623046875 634.774414062 373.623046875 602.713867188 345.142578125 c 0,5,6
 581.44921875 327.090820312 581.44921875 327.090820312 547.2109375 309.677734375 c 128,-1,7
 512.971679688 292.265625 512.971679688 292.265625 485.857421875 285.713867188 c 0,8,9
 451.584960938 276.916992188 451.584960938 276.916992188 416.428710938 273.142578125 c 1,10,-1
 393.571289062 50.857421875 l 1,11,12
 397.602539062 50.564453125 397.602539062 50.564453125 403.515625 49.5068359375 c 128,-1,13
 409.428710938 48.4482421875 409.428710938 48.4482421875 418.865234375 42.017578125 c 128,-1,14
 428.301757812 35.587890625 428.301757812 35.587890625 427.286132812 25.4287109375 c 0,15,16
 426.068359375 15.1982421875 426.068359375 15.1982421875 419.6796875 9.228515625 c 128,-1,17
 413.291992188 3.259765625 413.291992188 3.259765625 401.744140625 1.7822265625 c 128,-1,18
 390.196289062 0.3046875 390.196289062 0.3046875 381.055664062 0.3330078125 c 128,-1,19
 371.915039062 0.361328125 371.915039062 0.361328125 356.94921875 1.7998046875 c 128,-1,20
 341.982421875 3.2392578125 341.982421875 3.2392578125 337 3.4287109375 c 0,21,22
 318.784179688 4.0986328125 318.784179688 4.0986328125 304.4453125 5.4755859375 c 128,-1,23
 290.106445312 6.8525390625 290.106445312 6.8525390625 273.62109375 9.9931640625 c 128,-1,24
 257.134765625 13.1337890625 257.134765625 13.1337890625 248.865234375 19.4130859375 c 128,-1,25
 240.594726562 25.6923828125 240.594726562 25.6923828125 242.713867188 34.5712890625 c 0,26,27
 246.142578125 48.9208984375 246.142578125 48.9208984375 258.142578125 55.7060546875 c 128,-1,28
 270.142578125 62.4921875 270.142578125 62.4921875 280.428710938 62.1025390625 c 2,29,-1
 290.713867188 61.7138671875 l 1,30,-1
 308.713867188 264 l 1,31,-1
 156.713867188 258.571289062 l 1,32,33
 154.533203125 253.454101562 154.533203125 253.454101562 150.661132812 246.1171875 c 128,-1,34
 146.7890625 238.78125 146.7890625 238.78125 135.529296875 228.358398438 c 128,-1,35
 124.270507812 217.936523438 124.270507812 217.936523438 113.857421875 222 c 0,36,37
 72.2666015625 238.568359375 72.2666015625 238.568359375 103.857421875 306 c 0,38,39
 113.73046875 326.54296875 113.73046875 326.54296875 117.84765625 334.228515625 c 128,-1,40
 121.965820312 341.9140625 121.965820312 341.9140625 131.008789062 355.088867188 c 128,-1,41
 140.052734375 368.262695312 140.052734375 368.262695312 149.169921875 371.577148438 c 128,-1,42
 158.287109375 374.891601562 158.287109375 374.891601562 169.286132812 371.428710938 c 0,43,44
 185.793945312 366.349609375 185.793945312 366.349609375 189.5078125 353.634765625 c 128,-1,45
 193.22265625 340.920898438 193.22265625 340.920898438 188.682617188 330.74609375 c 2,46,-1
 184.142578125 320.571289062 l 1,47,48
 243.995117188 320.581054688 243.995117188 320.581054688 314.142578125 325.713867188 c 1,49,-1
 318.428710938 372.571289062 l 2,50,51
 316.28515625 372.577148438 316.28515625 372.577148438 313.107421875 373.366210938 c 128,-1,52
 309.9296875 374.155273438 309.9296875 374.155273438 304.607421875 381.299804688 c 128,-1,53
 299.286132812 388.444335938 299.286132812 388.444335938 299.286132812 401.142578125 c 0,54,55
 299.286132812 406.383789062 299.286132812 406.383789062 300.752929688 410.458984375 c 128,-1,56
 302.21875 414.533203125 302.21875 414.533203125 305.375 417.125 c 128,-1,57
 308.53125 419.716796875 308.53125 419.716796875 311.873046875 421.547851562 c 128,-1,58
 315.21484375 423.379882812 315.21484375 423.379882812 320.63671875 424.08984375 c 128,-1,59
 326.057617188 424.799804688 326.057617188 424.799804688 330.2734375 425.159179688 c 128,-1,60
 334.489257812 425.518554688 334.489257812 425.518554688 341.174804688 425.119140625 c 128,-1,61
 347.860351562 424.71875 347.860351562 424.71875 351.948242188 424.377929688 c 128,-1,62
 356.036132812 424.037109375 356.036132812 424.037109375 362.983398438 423.297851562 c 128,-1,63
 369.930664062 422.559570312 369.930664062 422.559570312 373 422.286132812 c 0,64,65
 377.455078125 421.889648438 377.455078125 421.889648438 385.918945312 421.259765625 c 128,-1,66
 394.381835938 420.629882812 394.381835938 420.629882812 399.270507812 420.193359375 c 128,-1,67
 404.158203125 419.7578125 404.158203125 419.7578125 411.7109375 418.916015625 c 128,-1,68
 419.263671875 418.075195312 419.263671875 418.075195312 423.76953125 417.0078125 c 128,-1,69
 428.275390625 415.94140625 428.275390625 415.94140625 433.9765625 414.315429688 c 128,-1,70
 439.677734375 412.688476562 439.677734375 412.688476562 442.860351562 410.416992188 c 128,-1,71
 446.04296875 408.145507812 446.04296875 408.145507812 448.952148438 405.161132812 c 128,-1,72
 451.861328125 402.17578125 451.861328125 402.17578125 452.780273438 398.125976562 c 128,-1,73
 453.698242188 394.076171875 453.698242188 394.076171875 453 389.142578125 c 0,74,75
 452.095703125 379.490234375 452.095703125 379.490234375 444.59375 372.659179688 c 128,-1,76
 437.092773438 365.828125 437.092773438 365.828125 427.397460938 365.828125 c 0,77,78
 425.91015625 365.828125 425.91015625 365.828125 424.428710938 366 c 2,79,-1
 421.286132812 336 l 1,80,81
 447.245117188 339.177734375 447.245117188 339.177734375 461 342 c 0,82,83
 531.321289062 354.872070312 531.321289062 354.872070312 560.805664062 372.118164062 c 128,-1,84
 590.290039062 389.365234375 590.290039062 389.365234375 597.286132812 433.142578125 c 0,85,86
 604.37109375 474.419921875 604.37109375 474.419921875 592.892578125 507.109375 c 128,-1,87
 581.413085938 539.798828125 581.413085938 539.798828125 558.479492188 560.26953125 c 128,-1,88
 535.545898438 580.739257812 535.545898438 580.739257812 499.7265625 595.45703125 c 128,-1,89
 463.907226562 610.173828125 463.907226562 610.173828125 429.245117188 617.279296875 c 128,-1,90
 394.583007812 624.384765625 394.583007812 624.384765625 352.713867188 628.571289062 c 2,91,-1
 112.428710938 657.142578125 l 2,92,93
 111.174804688 653.3984375 111.174804688 653.3984375 108.583984375 647.849609375 c 128,-1,94
 105.9921875 642.299804688 105.9921875 642.299804688 96.1787109375 633.006835938 c 128,-1,95
 86.365234375 623.713867188 86.365234375 623.713867188 74.4287109375 623.713867188 c 0,96,97
 60.6044921875 623.713867188 60.6044921875 623.713867188 54.8017578125 633.797851562 c 128,-1,98
 49 643.880859375 49 643.880859375 49 652.286132812 c 0,99,100
 51.3427734375 688.45703125 51.3427734375 688.45703125 67 721.142578125 c 0,101,102
 87.861328125 769.654296875 87.861328125 769.654296875 124.142578125 754.571289062 c 0,103,104
 139 748.73046875 139 748.73046875 142 737.801757812 c 128,-1,105
 145 726.873046875 145 726.873046875 140.571289062 718.865234375 c 2,106,-1
 136.142578125 710.857421875 l 1,107,108
 431.104492188 675.12890625 431.104492188 675.12890625 484.142578125 668.286132812 c 0,109,110
 514.646484375 664.48828125 514.646484375 664.48828125 545.379882812 655.071289062 c 128,-1,111
 576.11328125 645.654296875 576.11328125 645.654296875 608.076171875 628.946289062 c 128,-1,112
 640.0390625 612.23828125 640.0390625 612.23828125 660.040039062 583.78515625 c 128,-1,113
 680.041992188 555.333007812 680.041992188 555.333007812 680.142578125 519.713867188 c 0,0,1
EndSplineSet
Substitution2: "'c2sc' Capitals to Small Capitals lookup 35 subtable" p.sc
Substitution2: "'aalt' Access All Alternates lookup 0 subtable" p.sc
Position2: "'cpsp' Capital Spacing lookup 0 subtable" dx=10 dy=0 dh=20 dv=0
EndChar

StartChar: Thorn
Encoding: 222 222 114
Width: 556
Flags: W
LayerCount: 2
Fore
SplineSet
54 43 m 1,0,1
 100 52 100 52 115.5 69.5 c 128,-1,2
 131 87 131 87 131 129 c 2,3,-1
 132 533 l 2,4,5
 132 565 132 565 124.5 576 c 128,-1,6
 117 587 117 587 95 587 c 0,7,8
 82 587 82 587 56 585 c 1,9,-1
 53 591 l 1,10,-1
 60 641 l 1,11,-1
 88 640 l 1,12,-1
 188 639 l 2,13,14
 231 639 231 639 315 647 c 1,15,-1
 310 593 l 1,16,17
 269 587 269 587 256 577 c 128,-1,18
 243 567 243 567 241 541 c 0,19,20
 240 531 240 531 239 521.5 c 128,-1,21
 238 512 238 512 239 507 c 1,22,-1
 319 507 l 2,23,24
 426 507 426 507 482 464 c 128,-1,25
 538 421 538 421 538 338 c 0,26,27
 538 286 538 286 505.5 242 c 128,-1,28
 473 198 473 198 418 172 c 128,-1,29
 363 146 363 146 299 146 c 2,30,-1
 228 146 l 1,31,-1
 228 113 l 2,32,33
 228 77 228 77 236 65 c 128,-1,34
 244 53 244 53 269 53 c 0,35,36
 293 53 293 53 320 56 c 1,37,-1
 323 51 l 1,38,-1
 314 -3 l 1,39,40
 218 0 218 0 174 0 c 0,41,42
 124 0 124 0 48 -11 c 1,43,-1
 54 43 l 1,0,1
402 240.5 m 128,-1,45
 429 271 429 271 429 323 c 0,46,47
 429 386 429 386 388.5 415 c 128,-1,48
 348 444 348 444 261 444 c 0,49,50
 246 444 246 444 241.5 442 c 128,-1,51
 237 440 237 440 236 433 c 0,52,53
 231 313 231 313 229 219 c 1,54,55
 246 213 246 213 274.5 208.5 c 128,-1,56
 303 204 303 204 323 203 c 0,57,44
 375 210 375 210 402 240.5 c 128,-1,45
EndSplineSet
Validated: 1
Substitution2: "'c2sc' Capitals to Small Capitals lookup 35 subtable" thorn.sc
Substitution2: "'aalt' Access All Alternates lookup 0 subtable" thorn.sc
Position2: "'cpsp' Capital Spacing lookup 0 subtable" dx=10 dy=0 dh=20 dv=0
EndChar

StartChar: Q
Encoding: 81 81 115
Width: 1072
GlyphClass: 2
Flags: W
LayerCount: 2
Fore
SplineSet
1026.33203125 386.571289062 m 0,0,1
 1026.33203125 378.344726562 1026.33203125 378.344726562 1015.41015625 369.029296875 c 128,-1,2
 1004.48925781 359.713867188 1004.48925781 359.713867188 999.475585938 359.713867188 c 0,3,4
 989.727539062 359.713867188 989.727539062 359.713867188 980.315429688 372.814453125 c 128,-1,5
 970.904296875 385.915039062 970.904296875 385.915039062 970.904296875 391.713867188 c 0,6,7
 973.21875 401.228515625 973.21875 401.228515625 981.58984375 409.599609375 c 128,-1,8
 989.9609375 417.971679688 989.9609375 417.971679688 999.475585938 420.286132812 c 0,9,10
 1007.88085938 420.858398438 1007.88085938 420.858398438 1017.10644531 407.084960938 c 128,-1,11
 1026.33203125 393.310546875 1026.33203125 393.310546875 1026.33203125 386.571289062 c 0,0,1
886.904296875 561.713867188 m 0,12,13
 896.659179688 564.462890625 896.659179688 564.462890625 923.260742188 561.96484375 c 128,-1,14
 949.86328125 559.466796875 949.86328125 559.466796875 948.046875 546.571289062 c 2,15,-1
 946.618164062 540.857421875 l 2,16,17
 945.203125 528.12109375 945.203125 528.12109375 933.474609375 523.650390625 c 128,-1,18
 921.747070312 519.180664062 921.747070312 519.180664062 907.951171875 520.73046875 c 128,-1,19
 894.155273438 522.280273438 894.155273438 522.280273438 881.475585938 520.286132812 c 0,20,21
 876.243164062 519.631835938 876.243164062 519.631835938 869.716796875 506.389648438 c 128,-1,22
 863.190429688 493.1484375 863.190429688 493.1484375 854.887695312 465.768554688 c 128,-1,23
 846.5859375 438.388671875 846.5859375 438.388671875 840.0390625 414.44921875 c 128,-1,24
 833.491210938 390.510742188 833.491210938 390.510742188 822.7421875 349.279296875 c 128,-1,25
 811.9921875 308.047851562 811.9921875 308.047851562 806.046875 286.286132812 c 0,26,27
 777.21484375 184.247070312 777.21484375 184.247070312 746.262695312 109.03125 c 128,-1,28
 715.310546875 33.8154296875 715.310546875 33.8154296875 691.760742188 27.142578125 c 0,29,30
 655.0859375 19.2021484375 655.0859375 19.2021484375 602.59765625 12.5048828125 c 128,-1,31
 550.108398438 5.8076171875 550.108398438 5.8076171875 512.618164062 4.2861328125 c 0,32,33
 478.017578125 0.4658203125 478.017578125 0.4658203125 443.189453125 0.4658203125 c 0,34,35
 398.103515625 0.4658203125 398.103515625 0.4658203125 353.475585938 6.857421875 c 1,36,37
 316.287109375 16.248046875 316.287109375 16.248046875 285.8984375 49.734375 c 128,-1,38
 255.509765625 83.2197265625 255.509765625 83.2197265625 249.760742188 121.142578125 c 0,39,40
 245.6953125 142.943359375 245.6953125 142.943359375 237.09765625 217.961914062 c 128,-1,41
 228.5 292.979492188 228.5 292.979492188 221.189453125 330 c 1,42,43
 167.059570312 266.221679688 167.059570312 266.221679688 122.046875 195.713867188 c 0,44,45
 117.034179688 185.208007812 117.034179688 185.208007812 125.737304688 176.299804688 c 128,-1,46
 134.44140625 167.391601562 134.44140625 167.391601562 147.953125 161.918945312 c 128,-1,47
 161.46484375 156.4453125 161.46484375 156.4453125 173.327148438 147.916015625 c 128,-1,48
 185.189453125 139.385742188 185.189453125 139.385742188 185.189453125 130 c 0,49,50
 185.189453125 110 185.189453125 110 151.760742188 110 c 1,51,52
 106.852539062 118.346679688 106.852539062 118.346679688 63.189453125 131.713867188 c 0,53,54
 55.3896484375 134.1953125 55.3896484375 134.1953125 50.7900390625 139.228515625 c 128,-1,55
 46.1904296875 144.262695312 46.1904296875 144.262695312 46.0068359375 152.231445312 c 128,-1,56
 45.8232421875 160.200195312 45.8232421875 160.200195312 50.6572265625 169.87109375 c 128,-1,57
 55.4912109375 179.54296875 55.4912109375 179.54296875 68.1591796875 192.267578125 c 128,-1,58
 80.828125 204.993164062 80.828125 204.993164062 100.33203125 218.571289062 c 0,59,60
 118.610351562 231.456054688 118.610351562 231.456054688 158.04296875 298.536132812 c 128,-1,61
 197.475585938 365.615234375 197.475585938 365.615234375 197.475585938 404.571289062 c 1,62,63
 191.12890625 415.3515625 191.12890625 415.3515625 178.904296875 418 c 0,64,65
 158.049804688 421.02734375 158.049804688 421.02734375 135.634765625 409.249023438 c 128,-1,66
 113.21875 397.471679688 113.21875 397.471679688 109.475585938 396.857421875 c 0,67,68
 93.0927734375 394.159179688 93.0927734375 394.159179688 87.99609375 398.025390625 c 128,-1,69
 82.8994140625 401.891601562 82.8994140625 401.891601562 78.33203125 413.713867188 c 0,70,71
 76.166015625 419.567382812 76.166015625 419.567382812 79.8544921875 425.5390625 c 128,-1,72
 83.5439453125 431.51171875 83.5439453125 431.51171875 91.966796875 436.704101562 c 128,-1,73
 100.390625 441.897460938 100.390625 441.897460938 110.223632812 446.513671875 c 128,-1,74
 120.057617188 451.130859375 120.057617188 451.130859375 132.421875 455.270507812 c 128,-1,75
 144.787109375 459.409179688 144.787109375 459.409179688 153.967773438 462.2109375 c 128,-1,76
 163.1484375 465.012695312 163.1484375 465.012695312 172.657226562 467.638671875 c 128,-1,77
 182.166015625 470.263671875 182.166015625 470.263671875 184.046875 470.857421875 c 0,78,79
 229.51953125 485.154296875 229.51953125 485.154296875 259.442382812 456.240234375 c 128,-1,80
 289.365234375 427.326171875 289.365234375 427.326171875 298.33203125 378.857421875 c 0,81,82
 298.33203125 378.856445312 298.33203125 378.856445312 304.497070312 333.060546875 c 128,-1,83
 310.663085938 287.265625 310.663085938 287.265625 317.412109375 243.340820312 c 128,-1,84
 324.161132812 199.416992188 324.161132812 199.416992188 335.774414062 149.899414062 c 128,-1,85
 347.388671875 100.3828125 347.388671875 100.3828125 358.904296875 79.7138671875 c 0,86,87
 366.834960938 64.5419921875 366.834960938 64.5419921875 384.415039062 51.900390625 c 128,-1,88
 401.995117188 39.259765625 401.995117188 39.259765625 418.904296875 36.5712890625 c 0,89,90
 447.314453125 32.3115234375 447.314453125 32.3115234375 476.046875 32.3115234375 c 128,-1,91
 504.779296875 32.3115234375 504.779296875 32.3115234375 533.189453125 36.5712890625 c 0,92,93
 537.416992188 36.833984375 537.416992188 36.833984375 548.296875 37.455078125 c 128,-1,94
 559.176757812 38.076171875 559.176757812 38.076171875 561.544921875 38.2587890625 c 128,-1,95
 563.9140625 38.4404296875 563.9140625 38.4404296875 571.775390625 39.263671875 c 128,-1,96
 579.63671875 40.0869140625 579.63671875 40.0869140625 581.572265625 40.8427734375 c 128,-1,97
 583.506835938 41.599609375 583.506835938 41.599609375 589.525390625 43.2734375 c 128,-1,98
 595.544921875 44.947265625 595.544921875 44.947265625 598.221679688 46.9267578125 c 128,-1,99
 600.899414062 48.90625 600.899414062 48.90625 606.250976562 52.080078125 c 128,-1,100
 611.603515625 55.25390625 611.603515625 55.25390625 616.198242188 59.10546875 c 128,-1,101
 620.79296875 62.9580078125 620.79296875 62.9580078125 626.904296875 68.2861328125 c 0,102,103
 655.586914062 93.701171875 655.586914062 93.701171875 720.33203125 301.713867188 c 0,104,105
 737.61328125 356.927734375 737.61328125 356.927734375 754.239257812 416.275390625 c 128,-1,106
 770.865234375 475.624023438 770.865234375 475.624023438 778.51953125 499.724609375 c 128,-1,107
 786.173828125 523.82421875 786.173828125 523.82421875 794.33203125 536.571289062 c 0,108,109
 802.950195312 550.5078125 802.950195312 550.5078125 833.823242188 556.111328125 c 128,-1,110
 864.697265625 561.713867188 864.697265625 561.713867188 886.904296875 561.713867188 c 0,12,13
EndSplineSet
Substitution2: "'c2sc' Capitals to Small Capitals lookup 35 subtable" q.sc
Substitution2: "'aalt' Access All Alternates lookup 0 subtable" q.sc
Position2: "'cpsp' Capital Spacing lookup 0 subtable" dx=10 dy=0 dh=20 dv=0
EndChar

StartChar: R
Encoding: 82 82 116
Width: 755
GlyphClass: 2
Flags: W
LayerCount: 2
Fore
SplineSet
84.2158203125 680 m 2,0,1
 59.4248046875 680 59.4248046875 680 50.787109375 694.286132812 c 0,2,3
 44.73046875 704.301757812 44.73046875 704.301757812 59.2001953125 742.88671875 c 128,-1,4
 73.6689453125 781.471679688 73.6689453125 781.471679688 88.2158203125 785.713867188 c 0,5,6
 94.98828125 787.689453125 94.98828125 787.689453125 96.6044921875 778.040039062 c 128,-1,7
 98.220703125 768.391601562 98.220703125 768.391601562 97.103515625 755.446289062 c 128,-1,8
 95.9873046875 742.500976562 95.9873046875 742.500976562 99.5859375 731.298828125 c 128,-1,9
 103.184570312 720.09765625 103.184570312 720.09765625 113.358398438 719.713867188 c 0,10,11
 137.46484375 719.713867188 137.46484375 719.713867188 212.250976562 718.571289062 c 128,-1,12
 287.037109375 717.428710938 287.037109375 717.428710938 311.358398438 717.428710938 c 0,13,14
 324.731445312 717.428710938 324.731445312 717.428710938 329.708984375 710.439453125 c 128,-1,15
 334.686523438 703.450195312 334.686523438 703.450195312 335.643554688 688.857421875 c 0,16,17
 336.151367188 681.111328125 336.151367188 681.111328125 299.223632812 634.25390625 c 128,-1,18
 262.294921875 587.397460938 262.294921875 587.397460938 225.112304688 544.413085938 c 2,19,-1
 187.9296875 501.428710938 l 1,20,-1
 327.358398438 501.428710938 l 2,21,22
 342.540039062 501.428710938 342.540039062 501.428710938 343.250976562 481.786132812 c 128,-1,23
 343.961914062 462.142578125 343.961914062 462.142578125 336.215820312 449.713867188 c 0,24,25
 331.661132812 440.270507812 331.661132812 440.270507812 305.2421875 388.146484375 c 128,-1,26
 278.823242188 336.0234375 278.823242188 336.0234375 267.974609375 311.446289062 c 128,-1,27
 257.125976562 286.870117188 257.125976562 286.870117188 244.670898438 245.120117188 c 128,-1,28
 232.215820312 203.370117188 232.215820312 203.370117188 232.215820312 171.428710938 c 0,29,30
 232.15625 169.540039062 232.15625 169.540039062 232.15625 167.615234375 c 0,31,32
 232.15625 140.395507812 232.15625 140.395507812 248.247070312 110.5390625 c 128,-1,33
 264.336914062 80.681640625 264.336914062 80.681640625 287.072265625 65.7138671875 c 0,34,35
 373.375 23.591796875 373.375 23.591796875 437.9296875 56.5712890625 c 0,36,37
 501.237304688 88.9130859375 501.237304688 88.9130859375 555.643554688 243.428710938 c 0,38,39
 574.364257812 302.984375 574.364257812 302.984375 590.688476562 389.209960938 c 128,-1,40
 607.012695312 475.435546875 607.012695312 475.435546875 611.358398438 537.713867188 c 0,41,42
 611.544921875 545.953125 611.544921875 545.953125 611.544921875 554.124023438 c 0,43,44
 611.544921875 628.255859375 611.544921875 628.255859375 596.500976562 700.857421875 c 1,45,-1
 573.072265625 700.857421875 l 2,46,47
 567.71484375 700.857421875 567.71484375 700.857421875 563.012695312 708 c 128,-1,48
 558.310546875 715.142578125 558.310546875 715.142578125 560.274414062 722.286132812 c 128,-1,49
 562.239257812 729.428710938 562.239257812 729.428710938 573.072265625 729.428710938 c 2,50,-1
 693.9296875 729.428710938 l 2,51,52
 706.993164062 729.428710938 706.993164062 729.428710938 709.44140625 722.286132812 c 128,-1,53
 711.889648438 715.142578125 711.889648438 715.142578125 706.227539062 708 c 128,-1,54
 700.564453125 700.857421875 700.564453125 700.857421875 693.9296875 700.857421875 c 2,55,-1
 671.358398438 700.857421875 l 1,56,57
 684.033203125 614.076171875 684.033203125 614.076171875 684.033203125 526.384765625 c 0,58,59
 684.033203125 518.412109375 684.033203125 518.412109375 683.9296875 510.571289062 c 0,60,61
 682.553710938 435.3359375 682.553710938 435.3359375 656.936523438 334.87890625 c 128,-1,62
 631.3203125 234.420898438 631.3203125 234.420898438 596.500976562 167.713867188 c 0,63,64
 574.290039062 126.302734375 574.290039062 126.302734375 528.1640625 83.5244140625 c 128,-1,65
 482.037109375 40.74609375 482.037109375 40.74609375 439.072265625 21.7138671875 c 0,66,67
 389.6484375 0.2607421875 389.6484375 0.2607421875 335.772460938 0.2607421875 c 0,68,69
 299.892578125 0.2607421875 299.892578125 0.2607421875 265.358398438 10 c 0,70,71
 243.500976562 18.0234375 243.500976562 18.0234375 227.244140625 27.0888671875 c 128,-1,72
 210.986328125 36.1552734375 210.986328125 36.1552734375 191.026367188 53.5263671875 c 128,-1,73
 171.06640625 70.8984375 171.06640625 70.8984375 160.565429688 99.3212890625 c 128,-1,74
 150.064453125 127.745117188 150.064453125 127.745117188 151.072265625 164.857421875 c 0,75,76
 152.341796875 211.587890625 152.341796875 211.587890625 178.270507812 285.587890625 c 128,-1,77
 204.19921875 359.587890625 204.19921875 359.587890625 229.493164062 410.22265625 c 2,78,-1
 254.787109375 460.857421875 l 1,79,-1
 103.358398438 460.857421875 l 2,80,81
 93.1162109375 460.857421875 93.1162109375 460.857421875 87.89453125 472.321289062 c 128,-1,82
 82.671875 483.786132812 82.671875 483.786132812 88.5009765625 496.857421875 c 0,83,84
 92.18359375 504.603515625 92.18359375 504.603515625 130.68359375 550.388671875 c 128,-1,85
 169.18359375 596.174804688 169.18359375 596.174804688 205.842773438 638.087890625 c 2,86,-1
 242.500976562 680 l 1,87,-1
 84.2158203125 680 l 2,0,1
EndSplineSet
Substitution2: "'c2sc' Capitals to Small Capitals lookup 35 subtable" r.sc
Substitution2: "'aalt' Access All Alternates lookup 0 subtable" r.sc
Position2: "'cpsp' Capital Spacing lookup 0 subtable" dx=10 dy=0 dh=20 dv=0
EndChar

StartChar: Racute
Encoding: 340 340 117
Width: 761
GlyphClass: 2
Flags: W
AnchorPoint: "Anchor-17" 2 0 basechar 0
AnchorPoint: "Anchor-16" 2 0 basechar 0
AnchorPoint: "Anchor-15" 305 775 basechar 0
AnchorPoint: "Anchor-14" 2 0 basechar 0
AnchorPoint: "Anchor-13" 315 0 basechar 0
LayerCount: 2
Fore
SplineSet
326 738 m 1
 317 772 l 1
 412 818 412 818 527 879 c 1
 537 873 l 1
 557 813 l 1
 553 802 l 1
 441 768 441 768 337 732 c 1
 326 738 l 1
EndSplineSet
Refer: 116 82 N 1 0 0 1 2 0 0
Substitution2: "'c2sc' Capitals to Small Capitals lookup 35 subtable" racute.sc
Substitution2: "'aalt' Access All Alternates lookup 0 subtable" racute.sc
Position2: "'cpsp' Capital Spacing lookup 0 subtable" dx=10 dy=0 dh=20 dv=0
EndChar

